<?xml version="1.0" encoding="UTF-8"?>
<svg version="1.1" xmlns="http://www.w3.org/2000/svg" width="512" height="512">
<path d="M0 0 C0.68186374 -0.00465992 1.36372748 -0.00931984 2.06625375 -0.01412097 C4.34991085 -0.02606698 6.63297255 -0.01667744 8.91663456 -0.00736332 C10.57087267 -0.01153642 12.22510792 -0.0170138 13.87933785 -0.02368313 C18.42435552 -0.03815959 22.9691922 -0.03388615 27.51421988 -0.02651632 C32.416152 -0.02179241 37.31804453 -0.03428759 42.21996403 -0.04453373 C51.82283231 -0.06174217 61.42563521 -0.06255752 71.02851491 -0.05732083 C78.83247641 -0.0532818 86.63641857 -0.05471951 94.44037914 -0.06006908 C96.10550793 -0.06119172 96.10550793 -0.06119172 97.80427568 -0.06233703 C100.05930336 -0.06386848 102.31433104 -0.06540683 104.56935871 -0.066952 C125.72315291 -0.08068437 146.87691014 -0.07523411 168.03070349 -0.06376678 C187.38964332 -0.05383302 206.7484876 -0.06677627 226.10741269 -0.09070098 C245.97891446 -0.11507439 265.8503717 -0.12470421 285.72188812 -0.11804825 C296.88075925 -0.1145522 308.03955687 -0.11681357 319.19841671 -0.13429928 C328.69743921 -0.14899925 338.19633643 -0.14968555 347.69535642 -0.13222837 C352.54280665 -0.12369793 357.39003286 -0.12161861 362.23747158 -0.13687992 C366.67444293 -0.15067615 371.11099728 -0.14602938 375.5479442 -0.12664068 C377.15353029 -0.12286477 378.75914938 -0.1258483 380.36470621 -0.13625234 C395.59278782 -0.2279182 395.59278782 -0.2279182 401.0187006 4.38031673 C404.81418817 8.67945791 404.43378507 13.22699501 404.37946415 18.6753149 C404.38202742 19.61472052 404.3845907 20.55412613 404.38723165 21.52199858 C404.39217498 24.67131607 404.37566728 27.8201547 404.35927677 30.96942806 C404.35843062 33.2262944 404.35890541 35.48316157 404.36060429 37.74002743 C404.36146612 43.8697733 404.34380968 49.99934357 404.32288241 56.12904859 C404.30414713 62.53389649 404.30236765 68.93874827 404.29880619 75.34361935 C404.29053693 86.09473954 404.2717897 96.84578286 404.24501896 107.59686947 C404.21747555 118.66978286 404.19624335 129.74267873 404.18349552 140.81561947 C404.18270735 141.49832784 404.18191918 142.18103621 404.18110713 142.88443271 C404.17719197 146.30943175 404.17340086 149.7344309 404.16967142 153.15943015 C404.13857892 181.56643674 404.08552286 209.97337328 404.0187006 238.38031673 C407.85227824 239.26056447 409.54509795 239.56634298 412.94448185 237.46625423 C413.65926701 237.0344183 414.37405216 236.60258236 415.11049747 236.15766048 C415.84332951 235.69488705 416.57616154 235.23211361 417.3312006 234.75531673 C418.05243107 234.31574642 418.77366154 233.87617611 419.51674747 233.42328548 C422.44889992 231.62980749 425.36195758 229.82734226 428.20375919 227.89301205 C428.89936954 227.42733822 429.5949799 226.96166439 430.31166935 226.48187923 C430.92937199 226.05471615 431.54707462 225.62755306 432.18349552 225.18744564 C434.5828023 224.13222305 435.56954463 224.54126193 438.0187006 225.38031673 C440.15128162 227.25722995 442.12188479 229.13473725 444.0968256 231.16547298 C444.66826298 231.7411552 445.23970036 232.31683743 445.82845402 232.90996456 C447.64903862 234.74731992 449.45890628 236.59483806 451.2687006 238.44281673 C452.50238313 239.69154812 453.73675038 240.93960342 454.9718256 242.18695736 C457.99544715 245.24362693 461.00949981 248.30945199 464.0187006 251.38031673 C462.78578246 255.49602164 461.31017694 258.79235473 458.9093256 262.34906673 C458.32022404 263.25012142 457.73112247 264.15117611 457.12416935 265.07953548 C455.88240346 266.95394842 454.62967414 268.82114213 453.36635685 270.68109798 C449.86489452 275.72945502 449.86489452 275.72945502 449.3937006 281.58734798 C449.9299506 282.50902767 450.4662006 283.43070736 451.0187006 284.38031673 C451.59104435 285.50824642 452.1633881 286.63617611 452.7530756 287.79828548 C453.79008456 289.74799727 454.83640048 291.69181085 455.89467716 293.63007259 C457.93875317 297.56594006 459.25703892 300.9996132 459.8937006 305.40375423 C461.04001739 312.99475388 461.04001739 312.99475388 465.0187006 319.38031673 C472.82846188 323.3327865 481.73290363 324.6501116 490.31655216 325.92572689 C493.0187006 326.38031673 493.0187006 326.38031673 495.0187006 327.38031673 C495.0187006 340.58031673 495.0187006 353.78031673 495.0187006 367.38031673 C485.02944174 370.71006969 485.02944174 370.71006969 480.7218256 371.20453548 C472.60327642 372.39337008 472.60327642 372.39337008 465.0187006 375.38031673 C462.0357495 379.82857714 461.33102163 383.95125222 460.48500919 389.16351986 C459.68222251 392.97990891 458.07620021 396.41225144 456.4562006 399.94281673 C456.17405704 400.58452816 455.89191349 401.22623959 455.60122013 401.88739681 C454.15882754 405.11530807 452.59318473 408.05883037 450.67885685 411.03266048 C448.65877446 414.15429773 448.65877446 414.15429773 449.7206049 416.76703548 C451.06043868 419.4643424 452.52529783 421.99062073 454.1280756 424.54047298 C454.71717716 425.49889095 455.30627872 426.45730892 455.91323185 427.44476986 C457.1563004 429.45330694 458.40902565 431.45589774 459.67104435 433.45258236 C460.25498966 434.40971127 460.83893497 435.36684017 461.4405756 436.35297298 C461.98294865 437.22188168 462.52532169 438.09079037 463.08413029 438.98602962 C464.0187006 441.38031673 464.0187006 441.38031673 463.52285099 443.32611752 C461.41762073 446.20120393 459.02404176 448.74053108 456.53041935 451.27484798 C455.99020649 451.82646099 455.44999363 452.378074 454.89341068 452.94640255 C453.75221151 454.10644394 452.60811596 455.26364222 451.46132755 456.41815853 C449.70848306 458.19050887 447.97809436 459.98302663 446.24721622 461.77680111 C445.13460871 462.90246103 444.02071866 464.02685503 442.90541935 465.14984798 C442.3906554 465.68930553 441.87589146 466.22876308 441.3455286 466.78456783 C437.71713087 470.36885176 437.71713087 470.36885176 434.46059513 470.42230892 C431.65877786 469.22673243 429.49216166 467.7778916 427.06166935 465.93891048 C417.68631055 458.55901291 417.68631055 458.55901291 406.63881779 455.41010189 C402.18469989 456.69686977 398.63054641 459.36503066 394.94106388 462.09418392 C391.70602414 464.2585463 388.17362033 465.4749227 384.5187006 466.75531673 C383.88391788 466.99218197 383.24913517 467.2290472 382.59511662 467.47309017 C378.08872562 469.12426879 373.72587734 470.20352255 369.0187006 471.38031673 C366.3787006 481.61031673 363.7387006 491.84031673 361.0187006 502.38031673 C347.8187006 502.38031673 334.6187006 502.38031673 321.0187006 502.38031673 C317.64729336 492.26609501 317.64729336 492.26609501 316.6671381 488.19672298 C316.45573185 487.33240658 316.2443256 486.46809017 316.0265131 485.57758236 C315.81768497 484.7081097 315.60885685 483.83863705 315.3937006 482.94281673 C314.96614083 481.17277017 314.53655395 479.40321165 314.1046381 477.63422298 C313.9194965 476.86408871 313.7343549 476.09395443 313.54360294 475.30048275 C313.06880174 473.31757237 313.06880174 473.31757237 312.0187006 471.38031673 C309.66874089 470.57280162 307.34516894 469.86429701 304.9562006 469.19281673 C298.96701287 467.41952349 293.22930699 465.35033467 287.5187006 462.81781673 C286.88569035 462.53720394 286.25268009 462.25659115 285.60048771 461.96747494 C284.98568546 461.68992367 284.37088322 461.4123724 283.7374506 461.12641048 C283.12160099 460.85852718 282.50575138 460.59064388 281.87123966 460.31464291 C280.0187006 459.38031673 280.0187006 459.38031673 278.22084904 458.01825619 C276.04409017 456.49685033 274.66516248 455.73929612 272.0187006 455.38031673 C267.35974662 457.15048473 263.36415042 459.89625704 259.2687006 462.69281673 C257.05515138 464.16439945 254.82876803 465.61213523 252.5968256 467.05609798 C251.62132755 467.71521175 250.64582951 468.37432552 249.64077091 469.05341244 C247.0187006 470.38031673 247.0187006 470.38031673 245.03237247 470.11951351 C241.6380154 468.8734824 239.41410682 466.13857253 236.9405756 463.59516048 C236.36913822 463.01947826 235.79770084 462.44379604 235.20894718 461.85066891 C233.38836258 460.01331355 231.57849492 458.16579541 229.7687006 456.31781673 C228.53501807 455.06908535 227.30065082 453.82103005 226.0655756 452.57367611 C223.04195405 449.51700654 220.02790139 446.45118148 217.0187006 443.38031673 C218.34883398 439.76536072 219.96682176 436.71659126 222.09291935 433.50922298 C222.67750919 432.60494564 223.26209904 431.7006683 223.86440372 430.76898861 C225.09399217 428.88222883 226.33363852 427.0019863 227.58315372 425.12836361 C228.45423771 423.770014 228.45423771 423.770014 229.34291935 422.38422298 C229.88005558 421.56768246 230.41719181 420.75114193 230.9706049 419.90985775 C232.68740221 415.76642962 231.38836645 412.48931428 230.0187006 408.38031673 C228.1948449 408.3844648 228.1948449 408.3844648 226.33414364 408.38869667 C197.47207891 408.45366797 168.61001545 408.50313716 139.74789452 408.53351272 C136.19558496 408.53726485 132.64327555 408.54114782 129.09096622 408.54511166 C128.38376439 408.54589859 127.67656255 408.54668552 126.94793035 408.5474963 C115.49650814 408.56055077 104.04513109 408.58420484 92.59373568 408.61177512 C80.84384059 408.63982817 69.09396915 408.65649278 57.34404194 408.66258222 C50.74415443 408.66649728 44.14436937 408.67571532 37.54451466 408.6975069 C31.3344678 408.71784558 25.12456579 408.72415578 18.91448879 408.71963978 C16.63361989 408.72046615 14.35274622 408.72644725 12.07190609 408.73793316 C8.96031345 408.752836 5.84926928 408.74927811 2.73766422 408.74108028 C1.83298653 408.74981881 0.92830883 408.75855733 -0.00378335 408.76756066 C-5.0485267 408.73158145 -8.71726812 408.36942585 -12.9812994 405.38031673 C-16.45283148 401.00366869 -17.48160263 398.12678103 -17.48466396 392.5680151 C-17.49047773 391.90442387 -17.49629149 391.24083265 -17.50228143 390.5571326 C-17.51686935 388.33546873 -17.50300311 386.11491183 -17.48923397 383.89325619 C-17.4938434 382.28367613 -17.50019659 380.67410028 -17.50814295 379.06453323 C-17.52485379 374.6429447 -17.51658198 370.22170113 -17.50419807 365.80011129 C-17.49515708 361.0311174 -17.50911259 356.26218331 -17.52011776 351.49320126 C-17.53791772 342.15133297 -17.53405641 332.80959314 -17.5224672 323.46771979 C-17.51343896 315.87636971 -17.51220623 308.28505566 -17.51656246 300.69370174 C-17.51717539 299.61385614 -17.51778833 298.53401053 -17.51841983 297.42144233 C-17.51969871 295.22785591 -17.52099557 293.0342695 -17.5223102 290.8406831 C-17.53372032 270.2644216 -17.52059549 249.68823133 -17.49910873 229.11198151 C-17.48123737 211.45106538 -17.48434135 193.79025441 -17.50278378 176.12934017 C-17.52418283 155.62743523 -17.53262165 135.12559276 -17.52033472 114.62367821 C-17.5190605 112.43809606 -17.51780302 110.2525139 -17.51656246 108.06693172 C-17.51594536 106.99154292 -17.51532826 105.91615411 -17.51469246 104.80817777 C-17.51123666 97.22467508 -17.51707284 89.64121197 -17.52648067 82.05771542 C-17.53769131 72.81776884 -17.53468029 63.57795821 -17.5133577 54.33802724 C-17.50283471 49.62234561 -17.49874672 44.90689077 -17.51195431 40.19121075 C-17.52385818 35.87579093 -17.51734892 31.56080848 -17.4960441 27.24542844 C-17.49156951 25.68293166 -17.49386352 24.12039805 -17.50354725 22.55792487 C-17.51569337 20.43562904 -17.50325684 18.31483556 -17.48466396 16.19261837 C-17.48401455 15.0134217 -17.48336514 13.83422503 -17.48269606 12.61929512 C-16.85565423 8.56865996 -15.62724951 6.4984217 -12.9812994 3.38031673 C-8.61085794 0.50482077 -5.17517019 0.00439407 0 0 Z " fill="#E0E5E8" transform="translate(16.98129940032959,4.619683265686035)"/>
<path d="M0 0 C13.2 0 26.4 0 40 0 C40.721875 4.805625 41.44375 9.61125 42.1875 14.5625 C43.89837437 24.10003375 43.89837437 24.10003375 49.08642578 31.96289062 C54.13853094 34.65486563 59.600985 35.42638592 65.19580078 36.34814453 C69.95232654 37.45383178 73.94359316 39.90639436 78.1875 42.25 C83.74896133 45.16971434 83.74896133 45.16971434 89.84375 45.80859375 C92.57735014 44.50102168 94.63617351 42.90311068 97 41 C99.04020884 39.62917722 101.1075302 38.31089059 103.1887207 37.00317383 C104.62889823 36.09532322 106.05644733 35.16707438 107.46948242 34.2175293 C108.1266626 33.78738525 108.78384277 33.35724121 109.4609375 32.9140625 C110.04665527 32.5217041 110.63237305 32.1293457 111.23583984 31.72509766 C113.57558339 30.76342615 114.63006349 31.19570636 117 32 C119.13258102 33.87691322 121.10318419 35.75442051 123.078125 37.78515625 C123.64956238 38.36083847 124.22099976 38.93652069 124.80975342 39.52964783 C126.63033802 41.36700319 128.44020568 43.21452132 130.25 45.0625 C131.48368253 46.31123138 132.71804978 47.55928669 133.953125 48.80664062 C136.97674655 51.8633102 139.99079921 54.92913526 143 58 C141.76708186 62.11570491 140.29147634 65.412038 137.890625 68.96875 C137.00697266 70.32033203 137.00697266 70.32033203 136.10546875 71.69921875 C134.86370286 73.57363168 133.61097354 75.4408254 132.34765625 77.30078125 C128.84619392 82.34913828 128.84619392 82.34913828 128.375 88.20703125 C129.179375 89.58955078 129.179375 89.58955078 130 91 C130.57234375 92.12792969 131.1446875 93.25585938 131.734375 94.41796875 C132.77138396 96.36768053 133.81769988 98.31149412 134.87597656 100.24975586 C136.92005257 104.18562333 138.23833832 107.61929646 138.875 112.0234375 C140.0213168 119.61443715 140.0213168 119.61443715 144 126 C151.80976128 129.95246976 160.71420303 131.26979486 169.29785156 132.54541016 C172 133 172 133 174 134 C174 147.2 174 160.4 174 174 C164.01074114 177.32975295 164.01074114 177.32975295 159.703125 177.82421875 C151.58457582 179.01305335 151.58457582 179.01305335 144 182 C141.0170489 186.44826041 140.31232103 190.57093549 139.46630859 195.78320312 C138.66352191 199.59959218 137.05749961 203.03193471 135.4375 206.5625 C135.15535645 207.20421143 134.87321289 207.84592285 134.58251953 208.50708008 C133.14012694 211.73499134 131.57448413 214.67851364 129.66015625 217.65234375 C127.64007386 220.773981 127.64007386 220.773981 128.7019043 223.38671875 C130.04173808 226.08402566 131.50659723 228.610304 133.109375 231.16015625 C133.69847656 232.11857422 134.28757812 233.07699219 134.89453125 234.06445312 C136.1375998 236.07299021 137.39032505 238.07558101 138.65234375 240.07226562 C139.23628906 241.02939453 139.82023437 241.98652344 140.421875 242.97265625 C141.23543457 244.27601929 141.23543457 244.27601929 142.06542969 245.60571289 C143 248 143 248 142.50415039 249.94580078 C140.39892013 252.8208872 138.00534116 255.36021435 135.51171875 257.89453125 C134.97150589 258.44614426 134.43129303 258.99775726 133.87471008 259.56608582 C132.73351091 260.72612721 131.58941536 261.88332548 130.44262695 263.0378418 C128.68978246 264.81019214 126.95939376 266.60270989 125.22851562 268.39648438 C124.11590811 269.52214429 123.00201806 270.64653829 121.88671875 271.76953125 C121.3719548 272.3089888 120.85719086 272.84844635 120.326828 273.4042511 C116.69843027 276.98853503 116.69843027 276.98853503 113.44189453 277.04199219 C110.64007726 275.84641569 108.47346106 274.39757487 106.04296875 272.55859375 C96.66760995 265.17869618 96.66760995 265.17869618 85.62011719 262.02978516 C81.16599929 263.31655304 77.61184581 265.98471393 73.92236328 268.71386719 C70.68732354 270.87822956 67.15491973 272.09460596 63.5 273.375 C62.54782593 273.73029785 62.54782593 273.73029785 61.57641602 274.09277344 C57.07002502 275.74395205 52.70717674 276.82320582 48 278 C45.36 288.23 42.72 298.46 40 309 C26.8 309 13.6 309 0 309 C-3.37140724 298.88577828 -3.37140724 298.88577828 -4.3515625 294.81640625 C-4.56296875 293.95208984 -4.774375 293.08777344 -4.9921875 292.19726562 C-5.20101562 291.32779297 -5.40984375 290.45832031 -5.625 289.5625 C-6.05255977 287.79245344 -6.48214665 286.02289491 -6.9140625 284.25390625 C-7.0992041 283.48377197 -7.2843457 282.7136377 -7.47509766 281.92016602 C-7.94989886 279.93725564 -7.94989886 279.93725564 -9 278 C-11.34995971 277.19248489 -13.67353166 276.48398028 -16.0625 275.8125 C-22.05168773 274.03920676 -27.78939361 271.97001793 -33.5 269.4375 C-34.13301025 269.15688721 -34.76602051 268.87627441 -35.41821289 268.5871582 C-36.03301514 268.30960693 -36.64781738 268.03205566 -37.28125 267.74609375 C-37.89709961 267.47821045 -38.51294922 267.21032715 -39.14746094 266.93432617 C-41 266 -41 266 -42.79785156 264.63793945 C-44.97461043 263.1165336 -46.35353812 262.35897939 -49 262 C-53.65895398 263.770168 -57.65455018 266.51594031 -61.75 269.3125 C-63.96354922 270.78408272 -66.18993257 272.23181849 -68.421875 273.67578125 C-69.88512207 274.6644519 -69.88512207 274.6644519 -71.37792969 275.6730957 C-74 277 -74 277 -75.98632812 276.73919678 C-79.3806852 275.49316566 -81.60459378 272.75825579 -84.078125 270.21484375 C-84.64956238 269.63916153 -85.22099976 269.06347931 -85.80975342 268.47035217 C-87.63033802 266.63299681 -89.44020568 264.78547868 -91.25 262.9375 C-92.48368253 261.68876862 -93.71804978 260.44071331 -94.953125 259.19335938 C-97.97674655 256.1366898 -100.99079921 253.07086474 -104 250 C-102.66986662 246.38504398 -101.05187884 243.33627452 -98.92578125 240.12890625 C-98.34119141 239.22462891 -97.75660156 238.32035156 -97.15429688 237.38867188 C-95.92470843 235.50191209 -94.68506208 233.62166956 -93.43554688 231.74804688 C-92.85482422 230.84248047 -92.27410156 229.93691406 -91.67578125 229.00390625 C-91.13864502 228.18736572 -90.60150879 227.3708252 -90.0480957 226.52954102 C-88.69394797 223.2613545 -89.11562812 221.38323663 -90 218 C-90.9975388 215.69988987 -92.06727651 213.43041988 -93.1875 211.1875 C-95.93269281 205.5223617 -98.3225773 199.80490054 -100.4375 193.875 C-100.69619873 193.16496826 -100.95489746 192.45493652 -101.22143555 191.72338867 C-102.50415422 188.04233347 -103.31156665 184.9059819 -103 181 C-103.82564453 180.87044922 -103.82564453 180.87044922 -104.66796875 180.73828125 C-114.89541957 179.00992134 -124.92338643 176.43892558 -135 174 C-135 160.8 -135 147.6 -135 134 C-129.988125 133.01 -124.97625 132.02 -119.8125 131 C-110.34168007 129.06994139 -110.34168007 129.06994139 -102.15380859 124.30859375 C-99.9362779 120.5294641 -99.64050558 116.47250298 -99.30517578 112.17285156 C-98.75993836 108.2907611 -97.07818393 104.90395598 -95.4375 101.375 C-95.15455078 100.72466797 -94.87160156 100.07433594 -94.58007812 99.40429688 C-93.19684693 96.28473799 -91.72764866 93.6234731 -89.72265625 90.8515625 C-87.75249827 88.21821588 -87.75249827 88.21821588 -88.19042969 85.65795898 C-89.12766852 82.58084223 -90.47503116 80.31603449 -92.23046875 77.62109375 C-92.86791016 76.61755859 -93.50535156 75.61402344 -94.16210938 74.58007812 C-95.51759417 72.47691995 -96.87963613 70.37797408 -98.24804688 68.28320312 C-99.1984082 66.77983398 -99.1984082 66.77983398 -100.16796875 65.24609375 C-100.75860107 64.33529053 -101.3492334 63.4244873 -101.95776367 62.48608398 C-103 60 -103 60 -102.53100586 58.03833008 C-100.36976213 55.16092235 -97.89867531 52.65405627 -95.3359375 50.140625 C-94.78386627 49.59138367 -94.23179504 49.04214233 -93.66299438 48.47625732 C-91.90498185 46.72940707 -90.1401311 44.98965399 -88.375 43.25 C-87.1792292 42.06426409 -85.98391135 40.8780712 -84.7890625 39.69140625 C-81.86459747 36.78894915 -78.93398126 33.8928359 -76 31 C-65.535003 36.5914799 -65.535003 36.5914799 -60.85546875 39.58984375 C-60.24123047 39.98107422 -59.62699219 40.37230469 -58.99414062 40.77539062 C-57.76341299 41.56704786 -56.53965552 42.36962245 -55.32226562 43.18164062 C-52.4329988 44.99853906 -50.44533117 46.00115972 -47 45.9921875 C-43.35361924 44.78622303 -40.12754147 43.09119143 -36.8125 41.1875 C-22.89101465 33.48599828 -22.89101465 33.48599828 -15.61425781 32.76293945 C-12.53943438 32.27644187 -10.6031125 31.73604255 -8 30 C-5.53075385 25.15106586 -4.49973398 20.11184478 -3.375 14.8125 C-2.26125 9.924375 -1.1475 5.03625 0 0 Z " fill="#27A2DB" transform="translate(338,198)"/>
<path d="M0 0 C1.66100933 1.44102446 3.30877079 2.89758854 4.9375 4.375 C5.55625 4.91253906 6.175 5.45007813 6.8125 6.00390625 C20.3082203 18.46870347 29.58027429 36.73970225 33.9375 54.375 C34.27394531 55.72271484 34.27394531 55.72271484 34.6171875 57.09765625 C38.0095779 72.87459515 36.90675474 93.23624367 30.9375 108.375 C30.46441406 109.59574219 29.99132812 110.81648437 29.50390625 112.07421875 C19.4178022 137.0504788 0.52249463 156.56342069 -24.2421875 167.28515625 C-29.42458047 169.28777071 -34.69767851 170.93642374 -40.0625 172.375 C-41.02494629 172.64425293 -41.02494629 172.64425293 -42.00683594 172.91894531 C-66.03493051 179.04375373 -90.71741153 173.22699195 -112.015625 161.7890625 C-134.78526774 148.14059244 -150.82652246 127.03892276 -157.55859375 101.40551758 C-157.72488281 100.73544678 -157.89117187 100.06537598 -158.0625 99.375 C-158.24941406 98.63983154 -158.43632812 97.90466309 -158.62890625 97.1472168 C-160.25871922 90.03051131 -160.36088174 83.08991982 -160.3125 75.8125 C-160.32023437 74.64525391 -160.32796875 73.47800781 -160.3359375 72.27539062 C-160.32108718 65.68555899 -159.85404485 59.71722323 -158.0625 53.375 C-157.72992188 52.10398437 -157.39734375 50.83296875 -157.0546875 49.5234375 C-152.86611718 35.37602867 -146.7851465 23.56016324 -137.0625 12.375 C-136.6190625 11.78847656 -136.175625 11.20195312 -135.71875 10.59765625 C-124.55499831 -3.86757079 -105.5166332 -14.36894289 -88.0625 -18.625 C-86.52335937 -19.06972656 -86.52335937 -19.06972656 -84.953125 -19.5234375 C-55.43482367 -27.22079359 -23.51982828 -18.83511487 0 0 Z " fill="#DFE5E8" transform="translate(420.0625,275.625)"/>
<path d="M0 0 C0.68186374 -0.00465992 1.36372748 -0.00931984 2.06625375 -0.01412097 C4.34991085 -0.02606698 6.63297255 -0.01667744 8.91663456 -0.00736332 C10.57087267 -0.01153642 12.22510792 -0.0170138 13.87933785 -0.02368313 C18.42435552 -0.03815959 22.9691922 -0.03388615 27.51421988 -0.02651632 C32.416152 -0.02179241 37.31804453 -0.03428759 42.21996403 -0.04453373 C51.82283231 -0.06174217 61.42563521 -0.06255752 71.02851491 -0.05732083 C78.83247641 -0.0532818 86.63641857 -0.05471951 94.44037914 -0.06006908 C96.10550793 -0.06119172 96.10550793 -0.06119172 97.80427568 -0.06233703 C100.05930336 -0.06386848 102.31433104 -0.06540683 104.56935871 -0.066952 C125.72315291 -0.08068437 146.87691014 -0.07523411 168.03070349 -0.06376678 C187.38964332 -0.05383302 206.7484876 -0.06677627 226.10741269 -0.09070098 C245.97891446 -0.11507439 265.8503717 -0.12470421 285.72188812 -0.11804825 C296.88075925 -0.1145522 308.03955687 -0.11681357 319.19841671 -0.13429928 C328.69743921 -0.14899925 338.19633643 -0.14968555 347.69535642 -0.13222837 C352.54280665 -0.12369793 357.39003286 -0.12161861 362.23747158 -0.13687992 C366.67444293 -0.15067615 371.11099728 -0.14602938 375.5479442 -0.12664068 C377.15353029 -0.12286477 378.75914938 -0.1258483 380.36470621 -0.13625234 C395.59278782 -0.2279182 395.59278782 -0.2279182 401.0187006 4.38031673 C412.5206186 23.55018007 404.0187006 49.02460655 404.0187006 71.38031673 C265.0887006 71.38031673 126.1587006 71.38031673 -16.9812994 71.38031673 C-16.9812994 9.38031673 -16.9812994 9.38031673 -12.9812994 3.38031673 C-8.61085794 0.50482077 -5.17517019 0.00439407 0 0 Z " fill="#3B566B" transform="translate(16.98129940032959,4.619683265686035)"/>
<path d="M0 0 C12.76234379 10.75974197 20.6767524 23.97214988 22.37890625 40.73046875 C22.90582359 57.13289558 17.17078726 72.93642078 6 85 C-0.3122892 90.97779182 -6.95295551 94.81084873 -15 98 C-15.86238281 98.3609375 -16.72476563 98.721875 -17.61328125 99.09375 C-31.1379935 104.22915629 -47.19025868 101.21314183 -59.9375 95.5 C-70.88460449 89.74210738 -79.33291189 80.98751923 -85 70 C-85.5053125 69.04996094 -86.010625 68.09992188 -86.53125 67.12109375 C-91.80452479 55.65172107 -92.34546562 38.98882926 -88 27 C-80.81358374 9.48311035 -69.21609551 -1.42679952 -52 -9 C-35.28458743 -15.12898461 -13.91132862 -10.39485388 0 0 Z " fill="#1C75A1" transform="translate(392,307)"/>
<path d="M0 0 C1.04008231 -0.00679667 1.04008231 -0.00679667 2.10117638 -0.01373065 C4.42413695 -0.02638887 6.7468635 -0.02475339 9.06985474 -0.02310181 C10.73556825 -0.02908617 12.401279 -0.0358915 14.06698608 -0.04345703 C18.59181598 -0.06113346 23.11657025 -0.0658131 27.64143133 -0.0670886 C31.41877356 -0.06898759 35.19609817 -0.0763451 38.97343361 -0.08343279 C47.88546588 -0.09972052 56.79745774 -0.10460139 65.70950317 -0.10317993 C74.90267984 -0.10197831 84.09562181 -0.12308326 93.28873909 -0.15466726 C101.18185305 -0.18081859 109.0748903 -0.19154771 116.96804726 -0.19026911 C121.68213977 -0.18975915 126.39602373 -0.19546123 131.11007309 -0.21662521 C135.54410701 -0.23598842 139.97773301 -0.23614531 144.41178131 -0.22159195 C146.0379534 -0.21950037 147.66415088 -0.22422555 149.29027939 -0.23631287 C151.51300903 -0.25176305 153.73433165 -0.24246057 155.95703125 -0.22705078 C157.82139989 -0.22868508 157.82139989 -0.22868508 159.72343254 -0.2303524 C164.54668535 0.47954159 167.61161618 2.71010793 170.94534302 6.18539429 C173.23495492 10.29436111 172.91030108 14.73881853 172.10549927 19.26742554 C169.86799577 23.29915354 167.49413042 25.80454849 163.10549927 27.26742554 C160.83651259 27.37026661 158.56458273 27.4112043 156.29328918 27.42132568 C155.24836318 27.42789906 155.24836318 27.42789906 154.18232757 27.43460524 C151.84250641 27.44798527 149.50272291 27.45417026 147.16287231 27.46029663 C145.48745555 27.46819813 143.81204048 27.47646711 142.1366272 27.4850769 C136.63017399 27.51128813 131.1237132 27.52660212 125.61721802 27.54086304 C123.72193713 27.5462228 121.82665629 27.55160031 119.9313755 27.55699539 C112.04861834 27.57862143 104.16586323 27.5973589 96.28308392 27.60861778 C84.98348734 27.62486292 73.6842343 27.65805752 62.38476723 27.71501863 C54.4407296 27.75370103 46.49678392 27.77324837 38.55265456 27.77853835 C33.8071758 27.7821937 29.06206351 27.79423469 24.31668663 27.82664108 C19.85225868 27.85669241 15.38841953 27.86304417 10.92391205 27.85125732 C9.28643666 27.85103635 7.64893417 27.85936104 6.01155281 27.87691116 C3.77321351 27.89959465 1.53701099 27.89131468 -0.70133972 27.87542725 C-1.95292531 27.87873739 -3.2045109 27.88204754 -4.49402332 27.88545799 C-9.01544247 27.0636958 -10.64033558 25.46333195 -13.89450073 22.26742554 C-16.75404728 18.0071156 -16.66737107 13.21691842 -15.89450073 8.26742554 C-12.37605138 1.39873954 -7.22053796 0.01948302 0 0 Z " fill="#E0E5E8" transform="translate(220.89450073242188,26.732574462890625)"/>
<path d="M0 0 C42.21264368 0 42.21264368 0 50.52734375 7.109375 C54.57394404 12.30447988 55.51026018 17.48365713 55.375 23.9375 C55.36412354 24.64116699 55.35324707 25.34483398 55.34204102 26.06982422 C55.15391888 32.1933773 54.70080964 36.96420622 50.48828125 41.69921875 C42.05518329 49.52589169 32.56422287 50.16314584 21.625 50.0625 C16.860625 50.0315625 16.860625 50.0315625 12 50 C12 56.93 12 63.86 12 71 C8.04 71 4.08 71 0 71 C0 47.57 0 24.14 0 0 Z " fill="#3C576B" transform="translate(142,134)"/>
<path d="M0 0 C4.29 0 8.58 0 13 0 C18.44354709 10.55612651 23.19614803 21.36521475 27.9375 32.25 C28.7178103 34.03528244 29.49840774 35.82043941 30.27929688 37.60546875 C31.80021506 41.0824697 33.31698662 44.5612396 34.83154297 48.04101562 C36.24633584 51.28689841 37.67765168 54.52458542 39.12548828 57.75585938 C39.4540834 58.49334412 39.78267853 59.23082886 40.12123108 59.99066162 C40.7337412 61.36366996 41.35053487 62.73477857 41.97239685 64.10357666 C43.2295558 66.93109564 44 68.86562495 44 72 C40.04 72 36.08 72 32 72 C30.82845707 69.71070947 29.66261926 67.41881638 28.5 65.125 C28.16613281 64.47402344 27.83226562 63.82304687 27.48828125 63.15234375 C25 58.2265625 25 58.2265625 25 56 C12.79 56 0.58 56 -12 56 C-12.99 58.97 -13.98 61.94 -15 65 C-15.97381959 67.34438048 -16.96440702 69.68224427 -18 72 C-22.29 72 -26.58 72 -31 72 C-28.30845332 63.04172012 -24.39263752 54.63725271 -20.5625 46.125 C-19.84787917 44.52851188 -19.13369061 42.9318302 -18.41992188 41.33496094 C-16.9785949 38.11146336 -15.53525931 34.88887746 -14.09033203 31.66699219 C-11.04317295 24.86890324 -8.0221485 18.05923337 -5 11.25 C-4.02096255 9.04681757 -3.04181001 6.84368629 -2.0625 4.640625 C-1.381875 3.10921875 -0.70125 1.5778125 0 0 Z " fill="#3F596D" transform="translate(87,133)"/>
<path d="M0 0 C4.74923998 2.77552986 8.30124985 6.05953094 10.79296875 11.04296875 C11.55815888 17.79169483 10.96098078 23.52385801 6.79296875 29.04296875 C0.74860789 33.85378658 -4.65636091 34.89109397 -12.20703125 34.04296875 C-17.91553152 31.18871861 -21.67200403 26.86813768 -24.20703125 21.04296875 C-25.07116997 16.20379193 -24.62636229 12.09400171 -22.20703125 7.79296875 C-16.92374958 0.37262933 -8.84638608 -3.83604352 0 0 Z " fill="#27A0D8" transform="translate(108.20703125,23.95703125)"/>
<path d="M0 0 C5.07504578 2.96593585 8.89231103 6.34099559 10.79296875 12.04296875 C11.56972145 18.29027974 11.14203016 23.1674468 7.3984375 28.34765625 C3.23549264 32.74356396 -1.36321907 34.25574771 -7.33203125 34.54296875 C-12.74408974 34.294329 -15.88281262 32.46192455 -19.64453125 28.546875 C-23.63925241 23.9960705 -24.63877481 20.34519794 -24.54296875 14.453125 C-23.83527992 9.37586907 -21.1663293 5.79781831 -17.41015625 2.43359375 C-11.93447277 -1.46509289 -6.31095931 -2.73661067 0 0 Z " fill="#F8D162" transform="translate(52.20703125,23.95703125)"/>
<path d="M0 0 C4.75178615 2.833308 8.32785808 6.03462241 10.83984375 11.05859375 C11.60503388 17.80731983 11.00785578 23.53948301 6.83984375 29.05859375 C1.41786637 33.37404513 -3.28181982 34.74262721 -10.16015625 34.05859375 C-16.94039045 31.99004772 -20.1512904 28.78934462 -23.47265625 22.62109375 C-25.05498649 16.72331741 -24.3708288 12.19496469 -21.50390625 6.921875 C-16.67607981 0.22747613 -7.85459014 -3.42306731 0 0 Z " fill="#43C2A0" transform="translate(164.16015625,23.94140625)"/>
<path d="M0 0 C3.96 0 7.92 0 12 0 C12 23.76 12 47.52 12 72 C8.04 72 4.08 72 0 72 C0 48.24 0 24.48 0 0 Z " fill="#3D576C" transform="translate(212,133)"/>
<path d="M0 0 C22.05869275 -0.40106714 22.05869275 -0.40106714 28.0625 4.5 C31.51918147 8.96023415 31.49575901 12.49256804 31 18 C30.05424139 21.89473821 28.74647202 24.45380096 25.4375 26.875 C24.2309375 27.431875 24.2309375 27.431875 23 28 C22.34 28.33 21.68 28.66 21 29 C19.40552536 29.08400529 17.80759455 29.10727467 16.2109375 29.09765625 C15.36321777 29.09515869 14.51549805 29.09266113 13.64208984 29.09008789 C12.5639502 29.08098389 11.48581055 29.07187988 10.375 29.0625 C6.95125 29.041875 3.5275 29.02125 0 29 C0 19.43 0 9.86 0 0 Z " fill="#DEE3E7" transform="translate(154,144)"/>
<path d="M0 0 C2.78389331 2.4251051 4.02670956 4.88252104 5.48046875 8.25390625 C5.92197266 9.27291016 6.36347656 10.29191406 6.81835938 11.34179688 C7.27017578 12.40462891 7.72199219 13.46746094 8.1875 14.5625 C8.65091797 15.62919922 9.11433594 16.69589844 9.59179688 17.79492188 C13 25.72062546 13 25.72062546 13 28 C5.08 28 -2.84 28 -11 28 C-10.26191765 23.57150592 -9.67734657 20.79209635 -7.96875 16.85546875 C-7.57042969 15.93185547 -7.17210938 15.00824219 -6.76171875 14.05664062 C-6.34535156 13.10982422 -5.92898437 12.16300781 -5.5 11.1875 C-5.08363281 10.22134766 -4.66726562 9.25519531 -4.23828125 8.25976562 C-1.1509802 1.1509802 -1.1509802 1.1509802 0 0 Z " fill="#DDE2E6" transform="translate(93,149)"/>
</svg>
