<?xml version="1.0" encoding="UTF-8"?>
<svg version="1.1" xmlns="http://www.w3.org/2000/svg" width="512" height="512">
<path d="M0 0 C20.67234337 16.02106611 33.63715153 37.0008435 37.91015625 62.72265625 C38.26411714 65.71585953 38.41622284 68.55323271 38.375 71.5625 C38.36597656 72.42746094 38.35695313 73.29242188 38.34765625 74.18359375 C38.33025391 75.14458984 38.33025391 75.14458984 38.3125 76.125 C39.09625 76.16625 39.88 76.2075 40.6875 76.25 C48.58394384 78.15603817 54.5162847 82.50189163 59.15625 89.09765625 C61.41502029 93.05813523 62.56199889 96.43998383 62.56976891 101.00987625 C62.5762178 101.97221499 62.58266669 102.93455372 62.589311 103.92605424 C62.5862138 104.97536174 62.5831166 106.02466923 62.57992554 107.10577393 C62.58445665 108.22667286 62.58898776 109.34757179 62.59365618 110.50243735 C62.60633771 114.266315 62.60467736 118.03004864 62.60302734 121.79394531 C62.60901028 124.48941081 62.61575853 127.18486494 62.62338257 129.88032532 C62.63999077 136.44731341 62.64549205 143.01426559 62.64660732 149.58127293 C62.64755799 154.92051761 62.65166922 160.25975046 62.65800858 165.59899139 C62.67562136 180.741686 62.68484752 195.88435227 62.68334763 211.0270572 C62.68322776 212.25140559 62.68322776 212.25140559 62.68310547 213.50048828 C62.68302371 214.31771904 62.68294195 215.1349498 62.68285771 215.97694513 C62.68204504 229.21727553 62.70117761 242.4574921 62.7293822 255.69778958 C62.75812384 269.29769869 62.77192176 282.89755231 62.77019465 296.49749255 C62.76953114 304.13083626 62.77500632 311.76406068 62.79655075 319.39737701 C62.81477954 325.89755301 62.81909613 332.39755566 62.8055319 338.89774618 C62.79901023 342.21242899 62.80103666 345.52650859 62.8162384 348.84120369 C62.83167248 352.43986278 62.82239343 356.03765118 62.80697632 359.6362915 C62.81726344 360.67667611 62.82755057 361.71706072 62.83814943 362.78897214 C62.76119982 370.92743419 60.64628816 376.65765759 56.125 383.375 C49.92719259 389.43507836 43.26632812 392.25318619 34.668396 392.24525452 C33.51857239 392.24662918 32.36874878 392.24800385 31.18408203 392.24942017 C29.29810303 392.24402725 29.29810303 392.24402725 27.37402344 392.23852539 C26.03354901 392.23824325 24.69307443 392.23840179 23.3526001 392.2389679 C19.71657574 392.23925481 16.08058437 392.23337518 12.44456768 392.22639394 C8.64356847 392.22014279 4.8425685 392.2195552 1.04156494 392.21836853 C-6.1548337 392.21526042 -13.35121714 392.20705402 -20.54760909 392.19701904 C-28.74101424 392.18584178 -36.93442011 392.18034338 -45.12783098 392.17532361 C-61.98106302 392.16487099 -78.83427932 392.14708016 -95.6875 392.125 C-95.6875 398.395 -95.6875 404.665 -95.6875 411.125 C-94.0375 411.785 -92.3875 412.445 -90.6875 413.125 C-88.33705503 415.40943012 -87.74248998 416.69290431 -87.32673645 419.95977783 C-87.33339828 421.05231873 -87.34006012 422.14485962 -87.34692383 423.27050781 C-87.34715042 424.51149231 -87.34737701 425.75247681 -87.34761047 427.03106689 C-87.36292911 428.38008995 -87.37857707 429.72910931 -87.39453125 431.078125 C-87.40012925 432.4624587 -87.40439839 433.84679836 -87.40739441 435.23114014 C-87.41882728 438.86776247 -87.44828054 442.50402311 -87.48150635 446.14050293 C-87.51224113 449.85403552 -87.52590699 453.56762677 -87.54101562 457.28125 C-87.57315218 464.56266456 -87.62432913 471.84378153 -87.6875 479.125 C-86.82995117 479.11452637 -85.97240234 479.10405273 -85.08886719 479.09326172 C-81.89828487 479.05911704 -78.70779588 479.03407041 -75.51708984 479.01513672 C-74.13782685 479.00509747 -72.75858504 478.99146323 -71.37939453 478.97412109 C-69.3936486 478.94978246 -67.4077455 478.93956745 -65.421875 478.9296875 C-64.22788086 478.91921387 -63.03388672 478.90874023 -61.80371094 478.89794922 C-58.80195159 479.11666092 -57.17300576 479.4891836 -54.6875 481.125 C-52.6059098 483.80133026 -52.69162409 485.24253668 -52.8125 488.6875 C-53.6875 492.125 -53.6875 492.125 -55.44662857 493.81624854 C-58.0197545 495.31904887 -59.45690317 495.50077106 -62.41644287 495.50252342 C-63.36942387 495.51034666 -64.32240486 495.51816991 -65.30426407 495.52623022 C-66.87020121 495.51619197 -66.87020121 495.51619197 -68.46777344 495.50595093 C-70.13475595 495.51297089 -70.13475595 495.51297089 -71.83541489 495.52013266 C-75.57268836 495.53213306 -79.30959857 495.52260547 -83.046875 495.51318359 C-85.72075477 495.51724705 -88.3946092 495.5224788 -91.06848145 495.52911377 C-97.58516099 495.54246522 -104.10173697 495.53956711 -110.6184206 495.53087585 C-115.91387597 495.52410525 -121.20930229 495.52317987 -126.50476074 495.5264473 C-127.25796215 495.526907 -128.01116355 495.52736669 -128.78718925 495.52784032 C-130.31722419 495.52879948 -131.84725913 495.52977212 -133.37729406 495.5307581 C-147.73002708 495.53931613 -162.08270264 495.5294714 -176.43542624 495.513357 C-188.75515668 495.49995343 -201.07480233 495.50228141 -213.39453125 495.51611328 C-227.69532289 495.53216182 -241.99606417 495.53849211 -256.29686356 495.52927649 C-257.82132212 495.52832083 -259.34578068 495.52737771 -260.87023926 495.5264473 C-261.62033445 495.52598447 -262.37042964 495.52552164 -263.143255 495.52504479 C-268.43336555 495.52245272 -273.72344419 495.52683057 -279.0135498 495.53388596 C-285.45898411 495.5422931 -291.90430878 495.54003745 -298.34973049 495.52404372 C-301.63935879 495.51615029 -304.92876605 495.51469784 -308.21839905 495.52299118 C-311.78152596 495.53114788 -315.34413307 495.52095574 -318.90722656 495.50595093 C-319.95118465 495.51264309 -320.99514275 495.51933526 -322.07073593 495.52623022 C-323.02371693 495.51840697 -323.97669792 495.51058373 -324.95855713 495.50252342 C-326.19243353 495.50179284 -326.19243353 495.50179284 -327.45123672 495.50104749 C-330.27394715 495.02638371 -331.63414424 494.09912229 -333.6875 492.125 C-334.56031149 488.69609774 -335.01672829 486.23240423 -334 482.8125 C-332.6875 481.125 -332.6875 481.125 -328.6875 479.125 C-319.1175 479.125 -309.5475 479.125 -299.6875 479.125 C-299.6875 450.415 -299.6875 421.705 -299.6875 392.125 C-313.37347656 392.19460938 -313.37347656 392.19460938 -327.3359375 392.265625 C-333.12370247 392.28606838 -338.91144117 392.30549041 -344.69921875 392.3203125 C-353.8814389 392.34401682 -363.06351188 392.37183369 -372.24560547 392.42675781 C-378.93387043 392.46674549 -385.6220156 392.4924611 -392.31039679 392.50135398 C-395.84878923 392.50654869 -399.38683913 392.51867548 -402.92512131 392.54792023 C-406.88422604 392.58037487 -410.84300192 392.58095178 -414.80224609 392.57910156 C-415.96318787 392.59348267 -417.12412964 392.60786377 -418.32025146 392.62268066 C-427.05087852 392.57866842 -433.69920269 390.75878124 -441 385.9375 C-446.15758467 380.54002767 -449.80752778 374.06128651 -449.81892776 366.49904346 C-449.82276891 365.54355352 -449.82661005 364.58806358 -449.8305676 363.6036194 C-449.82970112 362.55169505 -449.82883463 361.49977069 -449.82794189 360.41596985 C-449.83091302 359.30015775 -449.83388414 358.18434566 -449.8369453 357.03472108 C-449.84565326 353.27615096 -449.84714232 349.51761262 -449.84863281 345.7590332 C-449.85325953 343.07209624 -449.85826325 340.38516219 -449.86367798 337.69822693 C-449.87726538 330.38405277 -449.88328686 323.06988408 -449.88768864 315.7556994 C-449.89045078 311.18846727 -449.89468812 306.62123727 -449.89919281 302.05400658 C-449.91138678 289.40854303 -449.92168534 276.76308118 -449.9250679 264.11761189 C-449.92528747 263.30810426 -449.92550703 262.49859664 -449.92573325 261.66455848 C-449.92595153 260.85311071 -449.92616981 260.04166293 -449.9263947 259.20562583 C-449.92683817 257.56131891 -449.92728473 255.917012 -449.92773438 254.27270508 C-449.9279558 253.45707162 -449.92817723 252.64143816 -449.92840537 251.80108853 C-449.93235218 238.5890782 -449.94980204 225.37712307 -449.9730939 212.16513405 C-449.99681464 198.60032939 -450.00927011 185.03555241 -450.01043582 171.47072667 C-450.01135226 163.85472972 -450.01709653 156.23880466 -450.03525543 148.62282753 C-450.05066629 142.13650814 -450.05577115 135.65028285 -450.04751733 129.16394863 C-450.04361406 125.85559499 -450.04616091 122.54747014 -450.05857468 119.23913193 C-450.07125615 115.64890751 -450.06543744 112.05916928 -450.05499268 108.46894836 C-450.06304908 107.42817762 -450.07110548 106.38740688 -450.07940602 105.31509763 C-450.02415009 97.19397196 -448.59969366 89.89687608 -442.68206787 83.91506004 C-431.42692137 73.81393071 -418.00592738 75.28467733 -403.796875 75.38037109 C-401.26960146 75.3755103 -398.74233177 75.36806685 -396.21507263 75.35824585 C-390.08699762 75.34143838 -383.95952336 75.35238572 -377.83149081 75.37677173 C-370.69107577 75.40412124 -363.55077143 75.40072686 -356.4103173 75.39650507 C-343.67335021 75.39013952 -330.93660759 75.41338573 -318.19970703 75.45263672 C-305.84384336 75.49070332 -293.48824233 75.50479344 -281.13232422 75.49365234 C-267.66060105 75.481541 -254.18899303 75.48187809 -240.71727943 75.50462401 C-239.28169378 75.50703853 -237.84610812 75.5094505 -236.41052246 75.51185989 C-235.70424882 75.51306697 -234.99797518 75.51427405 -234.27029932 75.5155177 C-229.29318271 75.52327638 -224.316109 75.52248891 -219.33898926 75.5186882 C-212.6477047 75.51400524 -205.95680687 75.53107586 -199.26558113 75.56280899 C-196.8065029 75.57131368 -194.34739042 75.57298307 -191.88830376 75.56742859 C-188.53998886 75.56101116 -185.19269253 75.57907933 -181.84448242 75.60360718 C-180.86434551 75.59604853 -179.8842086 75.58848988 -178.87437057 75.58070219 C-172.34332351 75.66574456 -172.34332351 75.66574456 -169.0526886 77.97008705 C-167.6875 80.125 -167.6875 80.125 -167.6875 83.125 C-161.0875 83.125 -154.4875 83.125 -147.6875 83.125 C-148.0175 80.485 -148.3475 77.845 -148.6875 75.125 C-148.91579877 53.63831809 -140.54410074 32.34451581 -126.6875 16.125 C-126.04425781 15.32578125 -125.40101563 14.5265625 -124.73828125 13.703125 C-111.54704415 -1.99956759 -92.54577349 -11.72025484 -72.6875 -15.875 C-71.78128906 -16.06707031 -70.87507813 -16.25914063 -69.94140625 -16.45703125 C-45.11663662 -19.64580718 -20.64570936 -14.40398328 0 0 Z M-256.6875 392.125 C-256.6875 411.925 -256.6875 431.725 -256.6875 452.125 C-215.1075 452.125 -173.5275 452.125 -130.6875 452.125 C-130.6875 432.325 -130.6875 412.525 -130.6875 392.125 C-172.2675 392.125 -213.8475 392.125 -256.6875 392.125 Z " fill="#E9F8F9" transform="translate(449.6875,16.875)"/>
<path d="M0 0 C20.67234337 16.02106611 33.63715153 37.0008435 37.91015625 62.72265625 C38.26411714 65.71585953 38.41622284 68.55323271 38.375 71.5625 C38.36597656 72.42746094 38.35695313 73.29242188 38.34765625 74.18359375 C38.33025391 75.14458984 38.33025391 75.14458984 38.3125 76.125 C39.09625 76.16625 39.88 76.2075 40.6875 76.25 C48.58394384 78.15603817 54.5162847 82.50189163 59.15625 89.09765625 C61.41502029 93.05813523 62.56199889 96.43998383 62.56976891 101.00987625 C62.5762178 101.97221499 62.58266669 102.93455372 62.589311 103.92605424 C62.5862138 104.97536174 62.5831166 106.02466923 62.57992554 107.10577393 C62.58445665 108.22667286 62.58898776 109.34757179 62.59365618 110.50243735 C62.60633771 114.266315 62.60467736 118.03004864 62.60302734 121.79394531 C62.60901028 124.48941081 62.61575853 127.18486494 62.62338257 129.88032532 C62.63999077 136.44731341 62.64549205 143.01426559 62.64660732 149.58127293 C62.64755799 154.92051761 62.65166922 160.25975046 62.65800858 165.59899139 C62.67562136 180.741686 62.68484752 195.88435227 62.68334763 211.0270572 C62.68322776 212.25140559 62.68322776 212.25140559 62.68310547 213.50048828 C62.68302371 214.31771904 62.68294195 215.1349498 62.68285771 215.97694513 C62.68204504 229.21727553 62.70117761 242.4574921 62.7293822 255.69778958 C62.75812384 269.29769869 62.77192176 282.89755231 62.77019465 296.49749255 C62.76953114 304.13083626 62.77500632 311.76406068 62.79655075 319.39737701 C62.81477954 325.89755301 62.81909613 332.39755566 62.8055319 338.89774618 C62.79901023 342.21242899 62.80103666 345.52650859 62.8162384 348.84120369 C62.83167248 352.43986278 62.82239343 356.03765118 62.80697632 359.6362915 C62.81726344 360.67667611 62.82755057 361.71706072 62.83814943 362.78897214 C62.76119982 370.92743419 60.64628816 376.65765759 56.125 383.375 C49.92719259 389.43507836 43.26632812 392.25318619 34.668396 392.24525452 C33.51857239 392.24662918 32.36874878 392.24800385 31.18408203 392.24942017 C29.29810303 392.24402725 29.29810303 392.24402725 27.37402344 392.23852539 C26.03354901 392.23824325 24.69307443 392.23840179 23.3526001 392.2389679 C19.71657574 392.23925481 16.08058437 392.23337518 12.44456768 392.22639394 C8.64356847 392.22014279 4.8425685 392.2195552 1.04156494 392.21836853 C-6.1548337 392.21526042 -13.35121714 392.20705402 -20.54760909 392.19701904 C-28.74101424 392.18584178 -36.93442011 392.18034338 -45.12783098 392.17532361 C-61.98106302 392.16487099 -78.83427932 392.14708016 -95.6875 392.125 C-95.6875 398.395 -95.6875 404.665 -95.6875 411.125 C-94.0375 411.785 -92.3875 412.445 -90.6875 413.125 C-88.33705503 415.40943012 -87.74248998 416.69290431 -87.32673645 419.95977783 C-87.33339828 421.05231873 -87.34006012 422.14485962 -87.34692383 423.27050781 C-87.34715042 424.51149231 -87.34737701 425.75247681 -87.34761047 427.03106689 C-87.36292911 428.38008995 -87.37857707 429.72910931 -87.39453125 431.078125 C-87.40012925 432.4624587 -87.40439839 433.84679836 -87.40739441 435.23114014 C-87.41882728 438.86776247 -87.44828054 442.50402311 -87.48150635 446.14050293 C-87.51224113 449.85403552 -87.52590699 453.56762677 -87.54101562 457.28125 C-87.57315218 464.56266456 -87.62432913 471.84378153 -87.6875 479.125 C-86.82995117 479.11452637 -85.97240234 479.10405273 -85.08886719 479.09326172 C-81.89828487 479.05911704 -78.70779588 479.03407041 -75.51708984 479.01513672 C-74.13782685 479.00509747 -72.75858504 478.99146323 -71.37939453 478.97412109 C-69.3936486 478.94978246 -67.4077455 478.93956745 -65.421875 478.9296875 C-64.22788086 478.91921387 -63.03388672 478.90874023 -61.80371094 478.89794922 C-58.80195159 479.11666092 -57.17300576 479.4891836 -54.6875 481.125 C-52.6059098 483.80133026 -52.69162409 485.24253668 -52.8125 488.6875 C-53.6875 492.125 -53.6875 492.125 -55.44662857 493.81624854 C-58.0197545 495.31904887 -59.45690317 495.50077106 -62.41644287 495.50252342 C-63.36942387 495.51034666 -64.32240486 495.51816991 -65.30426407 495.52623022 C-66.87020121 495.51619197 -66.87020121 495.51619197 -68.46777344 495.50595093 C-70.13475595 495.51297089 -70.13475595 495.51297089 -71.83541489 495.52013266 C-75.57268836 495.53213306 -79.30959857 495.52260547 -83.046875 495.51318359 C-85.72075477 495.51724705 -88.3946092 495.5224788 -91.06848145 495.52911377 C-97.58516099 495.54246522 -104.10173697 495.53956711 -110.6184206 495.53087585 C-115.91387597 495.52410525 -121.20930229 495.52317987 -126.50476074 495.5264473 C-127.25796215 495.526907 -128.01116355 495.52736669 -128.78718925 495.52784032 C-130.31722419 495.52879948 -131.84725913 495.52977212 -133.37729406 495.5307581 C-147.73002708 495.53931613 -162.08270264 495.5294714 -176.43542624 495.513357 C-188.75515668 495.49995343 -201.07480233 495.50228141 -213.39453125 495.51611328 C-227.69532289 495.53216182 -241.99606417 495.53849211 -256.29686356 495.52927649 C-257.82132212 495.52832083 -259.34578068 495.52737771 -260.87023926 495.5264473 C-261.62033445 495.52598447 -262.37042964 495.52552164 -263.143255 495.52504479 C-268.43336555 495.52245272 -273.72344419 495.52683057 -279.0135498 495.53388596 C-285.45898411 495.5422931 -291.90430878 495.54003745 -298.34973049 495.52404372 C-301.63935879 495.51615029 -304.92876605 495.51469784 -308.21839905 495.52299118 C-311.78152596 495.53114788 -315.34413307 495.52095574 -318.90722656 495.50595093 C-319.95118465 495.51264309 -320.99514275 495.51933526 -322.07073593 495.52623022 C-323.02371693 495.51840697 -323.97669792 495.51058373 -324.95855713 495.50252342 C-326.19243353 495.50179284 -326.19243353 495.50179284 -327.45123672 495.50104749 C-330.27394715 495.02638371 -331.63414424 494.09912229 -333.6875 492.125 C-334.56031149 488.69609774 -335.01672829 486.23240423 -334 482.8125 C-332.6875 481.125 -332.6875 481.125 -328.6875 479.125 C-319.1175 479.125 -309.5475 479.125 -299.6875 479.125 C-299.6875 450.415 -299.6875 421.705 -299.6875 392.125 C-313.37347656 392.19460938 -313.37347656 392.19460938 -327.3359375 392.265625 C-333.12370247 392.28606838 -338.91144117 392.30549041 -344.69921875 392.3203125 C-353.8814389 392.34401682 -363.06351188 392.37183369 -372.24560547 392.42675781 C-378.93387043 392.46674549 -385.6220156 392.4924611 -392.31039679 392.50135398 C-395.84878923 392.50654869 -399.38683913 392.51867548 -402.92512131 392.54792023 C-406.88422604 392.58037487 -410.84300192 392.58095178 -414.80224609 392.57910156 C-415.96318787 392.59348267 -417.12412964 392.60786377 -418.32025146 392.62268066 C-427.05087852 392.57866842 -433.69920269 390.75878124 -441 385.9375 C-446.15758467 380.54002767 -449.80752778 374.06128651 -449.81892776 366.49904346 C-449.82276891 365.54355352 -449.82661005 364.58806358 -449.8305676 363.6036194 C-449.82970112 362.55169505 -449.82883463 361.49977069 -449.82794189 360.41596985 C-449.83091302 359.30015775 -449.83388414 358.18434566 -449.8369453 357.03472108 C-449.84565326 353.27615096 -449.84714232 349.51761262 -449.84863281 345.7590332 C-449.85325953 343.07209624 -449.85826325 340.38516219 -449.86367798 337.69822693 C-449.87726538 330.38405277 -449.88328686 323.06988408 -449.88768864 315.7556994 C-449.89045078 311.18846727 -449.89468812 306.62123727 -449.89919281 302.05400658 C-449.91138678 289.40854303 -449.92168534 276.76308118 -449.9250679 264.11761189 C-449.92528747 263.30810426 -449.92550703 262.49859664 -449.92573325 261.66455848 C-449.92595153 260.85311071 -449.92616981 260.04166293 -449.9263947 259.20562583 C-449.92683817 257.56131891 -449.92728473 255.917012 -449.92773438 254.27270508 C-449.9279558 253.45707162 -449.92817723 252.64143816 -449.92840537 251.80108853 C-449.93235218 238.5890782 -449.94980204 225.37712307 -449.9730939 212.16513405 C-449.99681464 198.60032939 -450.00927011 185.03555241 -450.01043582 171.47072667 C-450.01135226 163.85472972 -450.01709653 156.23880466 -450.03525543 148.62282753 C-450.05066629 142.13650814 -450.05577115 135.65028285 -450.04751733 129.16394863 C-450.04361406 125.85559499 -450.04616091 122.54747014 -450.05857468 119.23913193 C-450.07125615 115.64890751 -450.06543744 112.05916928 -450.05499268 108.46894836 C-450.06304908 107.42817762 -450.07110548 106.38740688 -450.07940602 105.31509763 C-450.02415009 97.19397196 -448.59969366 89.89687608 -442.68206787 83.91506004 C-431.42692137 73.81393071 -418.00592738 75.28467733 -403.796875 75.38037109 C-401.26960146 75.3755103 -398.74233177 75.36806685 -396.21507263 75.35824585 C-390.08699762 75.34143838 -383.95952336 75.35238572 -377.83149081 75.37677173 C-370.69107577 75.40412124 -363.55077143 75.40072686 -356.4103173 75.39650507 C-343.67335021 75.39013952 -330.93660759 75.41338573 -318.19970703 75.45263672 C-305.84384336 75.49070332 -293.48824233 75.50479344 -281.13232422 75.49365234 C-267.66060105 75.481541 -254.18899303 75.48187809 -240.71727943 75.50462401 C-239.28169378 75.50703853 -237.84610812 75.5094505 -236.41052246 75.51185989 C-235.70424882 75.51306697 -234.99797518 75.51427405 -234.27029932 75.5155177 C-229.29318271 75.52327638 -224.316109 75.52248891 -219.33898926 75.5186882 C-212.6477047 75.51400524 -205.95680687 75.53107586 -199.26558113 75.56280899 C-196.8065029 75.57131368 -194.34739042 75.57298307 -191.88830376 75.56742859 C-188.53998886 75.56101116 -185.19269253 75.57907933 -181.84448242 75.60360718 C-180.86434551 75.59604853 -179.8842086 75.58848988 -178.87437057 75.58070219 C-172.33301715 75.66587876 -172.33301715 75.66587876 -169.08784485 77.9739933 C-167.13337582 80.97616521 -167.04172835 82.6091321 -167.6875 86.125 C-169.70513291 88.93873833 -171.31673612 90.82750311 -174.79853427 91.58315778 C-177.48252436 91.76517427 -180.12523958 91.7796222 -182.81529236 91.74404907 C-183.84438628 91.75028805 -184.87348021 91.75652703 -185.9337588 91.76295507 C-189.387137 91.77789421 -192.8393877 91.75721292 -196.29272461 91.73681641 C-198.76645815 91.74035667 -201.24018935 91.74613317 -203.71391296 91.75398254 C-209.04344057 91.76617375 -214.37263773 91.76329929 -219.70213127 91.74715042 C-227.4141541 91.72407147 -235.1259196 91.73139622 -242.83795101 91.74668162 C-255.35903031 91.77095201 -267.88002725 91.7751595 -280.40112305 91.76464844 C-281.1503566 91.76402461 -281.89959015 91.76340079 -282.67152775 91.76275806 C-284.18789298 91.76148676 -285.70425821 91.76021252 -287.22062344 91.75893535 C-287.97239473 91.75830297 -288.72416602 91.75767059 -289.49871826 91.75701904 C-290.25113701 91.7563809 -291.00355575 91.75574275 -291.77877506 91.75508527 C-300.13368487 91.74828084 -308.4885935 91.74628833 -316.84350586 91.74609375 C-317.59152271 91.74607092 -318.33953956 91.74604809 -319.11022358 91.74602456 C-331.58350317 91.74609381 -344.05675149 91.75812576 -356.53001601 91.77705324 C-364.22234121 91.78801491 -371.91450257 91.78719008 -379.60681976 91.7711135 C-385.50028555 91.75940813 -391.39368345 91.76241211 -397.28715706 91.77074242 C-399.70509359 91.77155389 -402.12303815 91.76718736 -404.54095459 91.75729942 C-407.83838403 91.74446583 -411.13529632 91.74993943 -414.432724 91.75991821 C-415.87217098 91.74753095 -415.87217098 91.74753095 -417.34069771 91.73489344 C-422.5002273 91.77197782 -426.32336619 92.05797515 -430.6875 95.125 C-470.65255827 161.73343045 -434.34680981 250.44763638 -434.6875 328.125 C-275.6275 328.125 -116.5675 328.125 47.3125 328.125 C65.12468404 206.09053341 65.12468404 206.09053341 43.3125 95.125 C41.54669884 93.92626145 41.54669884 93.92626145 39.625 93.3125 C37.9853125 92.7246875 37.9853125 92.7246875 36.3125 92.125 C36.209375 93.07375 36.10625 94.0225 36 95 C33.68730287 110.30640339 25.83545799 124.14852881 16.3125 136.125 C15.1678125 137.671875 15.1678125 137.671875 14 139.25 C-2.5382979 156.94213263 -26.33988111 168.27031694 -50.515625 169.3828125 C-76.87577388 170.17073848 -100.09677196 161.42135981 -119.4609375 143.32641602 C-138.49100338 124.97284884 -147.48324092 101.22333916 -148.6875 75.125 C-148.82153739 53.58559733 -140.62047634 32.43391547 -126.6875 16.125 C-126.04425781 15.32578125 -125.40101563 14.5265625 -124.73828125 13.703125 C-111.54704415 -1.99956759 -92.54577349 -11.72025484 -72.6875 -15.875 C-71.78128906 -16.06707031 -70.87507813 -16.25914063 -69.94140625 -16.45703125 C-45.11663662 -19.64580718 -20.64570936 -14.40398328 0 0 Z M-256.6875 392.125 C-256.6875 411.925 -256.6875 431.725 -256.6875 452.125 C-215.1075 452.125 -173.5275 452.125 -130.6875 452.125 C-130.6875 432.325 -130.6875 412.525 -130.6875 392.125 C-172.2675 392.125 -213.8475 392.125 -256.6875 392.125 Z " fill="#010101" transform="translate(449.6875,16.875)"/>
<path d="M0 0 C1.18770996 0.38599365 1.18770996 0.38599365 2.39941406 0.77978516 C27.87878352 9.1268002 49.73556944 21.4054036 69 40 C69.87527344 40.81210938 70.75054687 41.62421875 71.65234375 42.4609375 C76.29214066 46.87911083 80.41258329 51.52229281 84.1875 56.6875 C84.94417969 57.72261719 85.70085937 58.75773437 86.48046875 59.82421875 C88.4025251 63.84126712 88.20847733 65.74635162 87 70 C79.62357067 82.56849461 68.42954553 93.18609249 57 102 C56.12214844 102.71671875 55.24429687 103.4334375 54.33984375 104.171875 C14.56167494 135.72586545 -38.51606731 143.18052404 -87.72265625 137.98217773 C-115.53994767 134.62841715 -144.06289717 125.40969201 -167 109 C-167.94488281 108.33742188 -168.88976562 107.67484375 -169.86328125 106.9921875 C-182.98855843 97.49295966 -200.44706708 84.13599015 -207 69 C-207.46373125 64.94698884 -207.39100716 62.71346738 -205.41796875 59.11328125 C-204.68191406 58.18902344 -203.94585937 57.26476562 -203.1875 56.3125 C-202.78370117 55.80340088 -202.37990234 55.29430176 -201.96386719 54.76977539 C-200.66639019 53.15832084 -199.33984765 51.57634849 -198 50 C-197.57219238 49.49243164 -197.14438477 48.98486328 -196.70361328 48.46191406 C-167.46989959 14.18486056 -123.29727675 -4.02876471 -79.03344727 -7.79931641 C-52.93664501 -9.52580103 -24.92286407 -8.42275896 0 0 Z " fill="#030303" transform="translate(244,173)"/>
<path d="M0 0 C1.74796875 0.52787109 1.74796875 0.52787109 3.53125 1.06640625 C16.09324484 5.20367194 25.612073 11.77337759 35 21 C35.62648438 21.61359375 36.25296875 22.2271875 36.8984375 22.859375 C52.19147869 39.05200685 56.65418748 59.04325446 56.3046875 80.55859375 C55.71185084 97.50833272 48.42638581 114.42116755 37 127 C36.35804688 127.73347656 35.71609375 128.46695313 35.0546875 129.22265625 C25.66570116 139.32187957 14.06196925 145.82606246 1 150 C0.09507812 150.31839844 -0.80984375 150.63679687 -1.7421875 150.96484375 C-20.63574203 156.77206943 -40.3374501 152.89871614 -57.49755859 144.06445312 C-62.37076289 141.45221283 -66.80388002 138.61639288 -71 135 C-71.7115625 134.44183594 -72.423125 133.88367188 -73.15625 133.30859375 C-87.47603334 121.56342899 -96.44500567 103.20333963 -99 85 C-101.09523923 62.99549189 -95.7164302 43.11850828 -82.05224609 25.64819336 C-62.24795135 1.73069894 -29.85002874 -9.02021499 0 0 Z " fill="#FCDE75" transform="translate(416,18)"/>
<path d="M0 0 C159.06 0 318.12 0 482 0 C482 24 482 24 479 29 C473.99027756 33.39878068 471.06953094 34.14712696 464.55264568 34.13142776 C463.77180733 34.1334804 462.99096899 34.13553303 462.18646887 34.13764787 C459.54224041 34.14334994 456.89806352 34.14185669 454.25382996 34.14044189 C452.35000893 34.14302369 450.44618844 34.14603633 448.54236871 34.1494453 C443.28901067 34.15754029 438.03566628 34.15930625 432.78230274 34.16004276 C427.12506229 34.16188898 421.46782899 34.1694341 415.81059265 34.17617798 C403.43060586 34.18977943 391.05062229 34.1957888 378.67062926 34.20018864 C370.9460358 34.20294793 363.22144359 34.20718469 355.49685097 34.21169281 C334.12551396 34.2238877 312.75417848 34.23422208 291.38283825 34.2375679 C290.00030457 34.23778954 288.61777088 34.23801132 287.2352372 34.23823325 C285.84932561 34.2384539 284.46341402 34.23867438 283.07750243 34.2388947 C280.29702961 34.23933726 277.5165568 34.23978437 274.73608398 34.24023438 C273.70198735 34.24039846 273.70198735 34.24039846 272.64699987 34.24056586 C250.28746397 34.24419742 227.92796048 34.26012065 205.56843699 34.28342474 C181.9397302 34.30800669 158.3110485 34.32173324 134.68232709 34.32293582 C121.79754541 34.32385396 108.91280615 34.32964128 96.02803612 34.34775543 C85.05802079 34.36312295 74.08806099 34.36829673 63.11803695 34.36001733 C57.51749985 34.35609896 51.91707468 34.35709809 46.31655121 34.37107468 C41.19371618 34.38374264 36.07107801 34.38267901 30.94824354 34.37048396 C29.09088966 34.36851458 27.23352217 34.37166214 25.37618747 34.38032833 C22.85884228 34.39133424 20.34220253 34.38399487 17.82487774 34.3719368 C17.09737691 34.37953199 16.36987608 34.38712718 15.62032977 34.39495254 C9.93581492 34.33583956 6.9118994 32.69946613 2.75 29 C-3.93640428 21.35839511 0 8.88086835 0 0 Z " fill="#9EABB9" transform="translate(15,360)"/>
<path d="M0 0 C1.08410156 0.45246094 2.16820312 0.90492188 3.28515625 1.37109375 C19.36432333 8.66708142 30.08072971 20.26511672 36.4375 36.9375 C41.49469289 51.61016277 39.91236115 66.93598902 33.71484375 80.89453125 C26.45887856 95.34582683 14.78708503 105.01795197 0 111 C-0.80953125 111.35449219 -1.6190625 111.70898438 -2.453125 112.07421875 C-16.3926719 117.14120129 -32.95453854 114.38058328 -46 108.375 C-59.84182702 101.05118726 -69.77762356 90.22639459 -75.24609375 75.51171875 C-77.28868184 68.70661957 -78.36277054 62.7835456 -78.3125 55.6875 C-78.30686035 54.85081787 -78.3012207 54.01413574 -78.29541016 53.15209961 C-77.98147224 37.11484545 -71.3174911 24.20041361 -60 13 C-59.39671875 12.36320313 -58.7934375 11.72640625 -58.171875 11.0703125 C-43.98835718 -2.80486797 -18.201642 -8.12521299 0 0 Z " fill="#030203" transform="translate(204,183)"/>
<path d="M0 0 C3.5 0.5625 3.5 0.5625 5.703125 2.05078125 C8.33760123 5.73332084 7.93995816 8.90693198 7.75 13.3125 C7.73195313 14.10527344 7.71390625 14.89804687 7.6953125 15.71484375 C7.64833082 17.66458348 7.57659044 19.61369878 7.5 21.5625 C11.13 21.5625 14.76 21.5625 18.5 21.5625 C18.45359375 20.38171875 18.4071875 19.2009375 18.359375 17.984375 C18.32185051 16.42710866 18.28545107 14.86981492 18.25 13.3125 C18.21648437 12.53519531 18.18296875 11.75789063 18.1484375 10.95703125 C18.04990088 5.19263877 18.04990088 5.19263877 20.296875 2.046875 C23.52324965 -0.12692352 25.70126556 0.01982365 29.5 0.5625 C31.703125 2.046875 31.703125 2.046875 33.5 4.5625 C33.98299309 7.49623582 33.87775294 10.3496144 33.75 13.3125 C33.73195313 14.10527344 33.71390625 14.89804687 33.6953125 15.71484375 C33.64833082 17.66458348 33.57659044 19.61369878 33.5 21.5625 C34.58796875 21.68109375 35.6759375 21.7996875 36.796875 21.921875 C42.28044363 22.87050924 45.09824218 25.69348957 48.375 30.0625 C49.61127863 32.80978585 49.58912685 34.59160496 49.5 37.5625 C50.68078125 37.51609375 51.8615625 37.4696875 53.078125 37.421875 C54.63539134 37.38435051 56.19268508 37.34795107 57.75 37.3125 C58.91595703 37.26222656 58.91595703 37.26222656 60.10546875 37.2109375 C65.88261426 37.11218288 65.88261426 37.11218288 69.01171875 39.39453125 C71.07127342 42.39466995 71.15532072 43.99464272 70.5 47.5625 C68.50878598 50.20201626 66.94455564 52.25955868 63.58959961 52.96313477 C61.43493225 53.05402016 59.34023264 53.00004703 57.1875 52.875 C56.44693359 52.85244141 55.70636719 52.82988281 54.94335938 52.80664062 C53.12802643 52.7480815 51.31374319 52.65840886 49.5 52.5625 C49.5 56.1925 49.5 59.8225 49.5 63.5625 C50.68078125 63.51609375 51.8615625 63.4696875 53.078125 63.421875 C54.63539134 63.38435051 56.19268508 63.34795107 57.75 63.3125 C58.91595703 63.26222656 58.91595703 63.26222656 60.10546875 63.2109375 C65.88038528 63.11222098 65.88038528 63.11222098 69.015625 65.390625 C71.04053223 68.353384 71.08616142 70.04553149 70.5 73.5625 C69.015625 75.734375 69.015625 75.734375 66.5 77.5625 C63.56686789 78.04837453 60.71267355 77.9402438 57.75 77.8125 C56.95722656 77.79445313 56.16445313 77.77640625 55.34765625 77.7578125 C53.39791652 77.71083082 51.44880122 77.63909044 49.5 77.5625 C49.39171875 78.63886719 49.2834375 79.71523437 49.171875 80.82421875 C48.27299654 85.82553668 46.21554122 88.24184722 42.5 91.5625 C39.06501283 93.4435644 37.50577497 93.5625 33.5 93.5625 C33.54640625 94.74328125 33.5928125 95.9240625 33.640625 97.140625 C33.67814949 98.69789134 33.71454893 100.25518508 33.75 101.8125 C33.78351563 102.58980469 33.81703125 103.36710937 33.8515625 104.16796875 C33.95011546 109.93331687 33.95011546 109.93331687 31.703125 113.07421875 C28.4501835 115.27168455 26.32873246 115.177832 22.5 114.5625 C20.2058322 112.46358052 18.70302688 110.78833743 18.18359375 107.65209961 C18.10687396 105.50419772 18.15023847 103.39679147 18.25 101.25 C18.26804687 100.50943359 18.28609375 99.76886719 18.3046875 99.00585938 C18.35152663 97.1908429 18.42326211 95.37649834 18.5 93.5625 C14.87 93.5625 11.24 93.5625 7.5 93.5625 C7.55220703 95.33367187 7.55220703 95.33367187 7.60546875 97.140625 C7.63361232 98.69790242 7.66091187 100.25519525 7.6875 101.8125 C7.71263672 102.58980469 7.73777344 103.36710937 7.76367188 104.16796875 C7.80792223 107.61949681 7.80643967 109.95434967 6.234375 113.07421875 C3.85789075 115.11349916 1.58713524 115.09143777 -1.46484375 115.19140625 C-4.76317614 114.1721519 -5.76761417 112.49718464 -7.5 109.5625 C-7.95971218 106.76743568 -7.88116885 104.0726528 -7.75 101.25 C-7.73195313 100.50943359 -7.71390625 99.76886719 -7.6953125 99.00585938 C-7.64847337 97.1908429 -7.57673789 95.37649834 -7.5 93.5625 C-8.59828125 93.43230469 -9.6965625 93.30210937 -10.828125 93.16796875 C-15.01556502 92.47748662 -16.56661944 91.57736335 -19.5 88.5625 C-21.91360899 84.65078887 -22.64571524 82.09501073 -22.5 77.5625 C-23.75296875 77.62050781 -25.0059375 77.67851563 -26.296875 77.73828125 C-27.9478794 77.78518478 -29.59892411 77.83068431 -31.25 77.875 C-32.075 77.91689453 -32.9 77.95878906 -33.75 78.00195312 C-39.87749778 78.12549139 -39.87749778 78.12549139 -43.07421875 75.234375 C-44.5 72.5625 -44.5 72.5625 -44.5625 69.5 C-43.20407525 65.74435511 -41.87415109 64.67811078 -38.5 62.5625 C-35.73866047 62.27635083 -33.41854388 62.17660117 -30.6875 62.3125 C-29.99462891 62.33054688 -29.30175781 62.34859375 -28.58789062 62.3671875 C-26.89132336 62.41398936 -25.19547524 62.48572376 -23.5 62.5625 C-23.5 59.2625 -23.5 55.9625 -23.5 52.5625 C-25.14548828 52.66691406 -25.14548828 52.66691406 -26.82421875 52.7734375 C-28.27858438 52.82973552 -29.73301652 52.8843335 -31.1875 52.9375 C-31.90873047 52.98777344 -32.62996094 53.03804687 -33.37304688 53.08984375 C-38.62216415 53.23365518 -38.62216415 53.23365518 -41.13525391 51.31225586 C-43.53110073 48.58808929 -44.5 47.04150184 -44.5 43.375 C-43.47520652 40.49276834 -42.8553736 39.42051168 -40.5 37.5625 C-38.50708008 37.22192383 -38.50708008 37.22192383 -36.26953125 37.26953125 C-35.46708984 37.27919922 -34.66464844 37.28886719 -33.83789062 37.29882812 C-33.00451172 37.32396484 -32.17113281 37.34910156 -31.3125 37.375 C-30.0450293 37.39530273 -30.0450293 37.39530273 -28.75195312 37.41601562 C-26.66769616 37.45134201 -24.58376723 37.50514861 -22.5 37.5625 C-22.53222656 36.63695312 -22.56445312 35.71140625 -22.59765625 34.7578125 C-22.46756569 30.50124921 -21.23831079 28.79230247 -18.5 25.5625 C-14.88405751 22.84425089 -12.1293329 21.5625 -7.5 21.5625 C-7.54640625 20.46550781 -7.5928125 19.36851563 -7.640625 18.23828125 C-7.6781579 16.7838815 -7.71455643 15.32945217 -7.75 13.875 C-7.80027344 12.7931543 -7.80027344 12.7931543 -7.8515625 11.68945312 C-7.92190059 7.83844246 -7.74190374 5.96427056 -5.703125 2.578125 C-3.5 0.5625 -3.5 0.5625 0 0 Z " fill="#030403" transform="translate(381.5,35.4375)"/>
<path d="M0 0 C4.84463539 0.72344388 6.75096478 2.29970989 10 6 C11.68535113 9.37070226 11.13250637 13.18934376 11.12025452 16.89627075 C11.12110894 17.82902954 11.12196337 18.76178833 11.12284368 19.72281253 C11.12449883 22.86747361 11.11897652 26.01208207 11.11352539 29.15673828 C11.1132435 31.40331013 11.11340129 33.64988207 11.1139679 35.89645386 C11.1142558 42.01185089 11.10836022 48.12722845 11.10139394 54.24262094 C11.09515922 60.62747506 11.09455651 67.01232959 11.09336853 73.39718628 C11.09060965 84.11912437 11.08435573 94.84105392 11.07543945 105.56298828 C11.06626412 116.60790979 11.05918388 127.65282936 11.05493164 138.69775391 C11.05453756 139.71851822 11.05453756 139.71851822 11.05413551 140.75990404 C11.0528305 144.17373101 11.05156678 147.58755799 11.05032361 151.00138497 C11.03995247 179.33426175 11.02206072 207.66713012 11 236 C2.09 236 -6.82 236 -16 236 C-16.13047436 210.75735361 -16.26086723 185.51470681 -16.39115143 160.27205944 C-16.45164361 148.55205959 -16.51216484 136.83205989 -16.57275391 125.11206055 C-16.62554939 114.89959359 -16.67829092 104.68712636 -16.73096704 94.47465879 C-16.75887291 89.06483872 -16.78680622 83.6550188 -16.81480408 78.2451992 C-16.84113554 73.15720084 -16.86739507 68.06920211 -16.89359856 62.98120308 C-16.90324674 61.11028403 -16.91292158 59.23936512 -16.92262459 57.36844635 C-16.93583291 54.82088252 -16.94894671 52.27331823 -16.96203613 49.72575378 C-16.96592708 48.97964834 -16.96981803 48.23354289 -16.97382689 47.46482819 C-17.00570339 41.22612596 -16.85516912 38.47292538 -13.375 33.1875 C-6.79698774 22.84895262 -2.50568032 12.00088994 0 0 Z " fill="#DBF4F7" transform="translate(486,109)"/>
<path d="M0 0 C3.96 0 7.92 0 12 0 C12.00364563 0.88061096 12.00729126 1.76122192 12.01104736 2.66851807 C12.04891371 10.96740336 12.10575079 19.26589513 12.18390274 27.56450272 C12.22341253 31.83094064 12.25558363 36.0971711 12.27099609 40.36376953 C12.28613992 44.48131052 12.32054412 48.59828126 12.36830902 52.71556854 C12.38314647 54.28638503 12.39104237 55.85728292 12.39188385 57.42816925 C12.39424833 59.62883804 12.42128178 61.82792419 12.45410156 64.02832031 C12.46298401 65.28074524 12.47186646 66.53317017 12.48101807 67.82354736 C13.11059971 71.67693056 13.96140826 72.621891 17 75 C19.82391307 75.59942166 19.82391307 75.59942166 22.99682617 75.50793457 C24.83910294 75.52485352 24.83910294 75.52485352 26.71859741 75.54211426 C28.07672355 75.53433731 29.43484736 75.52614465 30.79296875 75.51757812 C32.22548128 75.52299919 33.65798823 75.53012176 35.09048462 75.53881836 C38.97896106 75.55705693 42.8670131 75.54998224 46.75549698 75.53730202 C50.82423295 75.52717701 54.89293252 75.5365663 58.96166992 75.54284668 C65.79449998 75.55012456 72.62715713 75.54053178 79.45996094 75.52148438 C87.3603676 75.49971525 95.26036136 75.50676653 103.16075802 75.52879 C109.94304661 75.54694007 116.72521088 75.54950428 123.50751591 75.53903532 C127.55865815 75.53279818 131.6096063 75.53197067 135.66073608 75.54518127 C139.46939808 75.55673358 143.2775276 75.54872606 147.08613205 75.52560425 C148.48414602 75.52031374 149.88220479 75.52183687 151.28020096 75.53065491 C153.18784234 75.54157851 155.09558161 75.52545335 157.00317383 75.50793457 C158.60483147 75.50567242 158.60483147 75.50567242 160.23884583 75.50336456 C163.70076157 74.8722496 164.88400655 73.76592739 167 71 C167.61717441 67.73568593 167.61717441 67.73568593 167.54589844 64.02832031 C167.56140495 62.98868889 167.56140495 62.98868889 167.57722473 61.92805481 C167.60664696 59.64450757 167.60815168 57.36184687 167.609375 55.078125 C167.62435717 53.4919872 167.6410844 51.90586501 167.65948486 50.31976318 C167.70316707 46.15064781 167.72315921 41.98174288 167.73822021 37.81243896 C167.7577883 33.55582227 167.79975859 29.29943294 167.83984375 25.04296875 C167.91515546 16.69534414 167.96336985 8.34788407 168 0 C174.6 0 181.2 0 188 0 C188 6.6 188 13.2 188 20 C185.525 20.99 185.525 20.99 183 22 C170.78399537 40.32400695 180.34952288 65.98005827 180 88 C120.6 88 61.2 88 0 88 C0 58.96 0 29.92 0 0 Z " fill="#8C9BA7" transform="translate(166,409)"/>
<path d="M0 0 C1.08410156 0.45246094 2.16820312 0.90492188 3.28515625 1.37109375 C19.36432333 8.66708142 30.08072971 20.26511672 36.4375 36.9375 C41.49469289 51.61016277 39.91236115 66.93598902 33.71484375 80.89453125 C26.45887856 95.34582683 14.78708503 105.01795197 0 111 C-0.80953125 111.35449219 -1.6190625 111.70898438 -2.453125 112.07421875 C-16.3926719 117.14120129 -32.95453854 114.38058328 -46 108.375 C-59.84182702 101.05118726 -69.77762356 90.22639459 -75.24609375 75.51171875 C-77.28868184 68.70661957 -78.36277054 62.7835456 -78.3125 55.6875 C-78.30686035 54.85081787 -78.3012207 54.01413574 -78.29541016 53.15209961 C-77.98147224 37.11484545 -71.3174911 24.20041361 -60 13 C-59.39671875 12.36320313 -58.7934375 11.72640625 -58.171875 11.0703125 C-43.98835718 -2.80486797 -18.201642 -8.12521299 0 0 Z M-55.921875 25.328125 C-65.12600552 37.1620071 -66.90157592 49.4211835 -66 64 C-64.43114116 74.39701364 -57.94792552 85.23537656 -49.78125 91.77734375 C-37.10562457 101.02976786 -25.47558888 103.44676247 -10 102 C2.53863788 99.14390577 12.50130324 91.28205582 20 81 C26.33172909 69.87929814 29.00292538 57.55887141 26.34765625 44.88671875 C22.48799409 32.11504697 14.9154757 21.14306003 3.23046875 14.40234375 C-18.10005396 4.16965943 -39.57831383 8.27908637 -55.921875 25.328125 Z " fill="#D5ADE9" transform="translate(204,183)"/>
<path d="M0 0 C10.13380492 -0.35123586 19.19648736 0.03753077 29 3 C30.74796875 3.52787109 30.74796875 3.52787109 32.53125 4.06640625 C45.09324484 8.20367194 54.612073 14.77337759 64 24 C64.62648438 24.61359375 65.25296875 25.2271875 65.8984375 25.859375 C81.19147869 42.05200685 85.65418748 62.04325446 85.3046875 83.55859375 C84.71185084 100.50833272 77.42638581 117.42116755 66 130 C65.35804688 130.73347656 64.71609375 131.46695313 64.0546875 132.22265625 C54.66570116 142.32187957 43.06196925 148.82606246 30 153 C29.09507812 153.31839844 28.19015625 153.63679687 27.2578125 153.96484375 C17.43437822 156.98422794 7.16280629 156.27849174 -3 156 C-3 155.67 -3 155.34 -3 155 C-2.07960938 155.03222656 -1.15921875 155.06445312 -0.2109375 155.09765625 C14.65674518 154.96139439 23.99646419 147.64594487 34.54296875 137.578125 C44.7005051 126.91997876 51.96064898 113.13772858 56 99 C52.04 99 48.08 99 44 99 C44 98.67 44 98.34 44 98 C45.19238281 97.96261719 46.38476562 97.92523438 47.61328125 97.88671875 C49.179719 97.82105968 50.74612384 97.75461232 52.3125 97.6875 C53.09818359 97.66494141 53.88386719 97.64238281 54.69335938 97.61914062 C55.45068359 97.58369141 56.20800781 97.54824219 56.98828125 97.51171875 C57.68477783 97.48553467 58.38127441 97.45935059 59.09887695 97.43237305 C61.55587943 96.87357616 62.47676736 95.98140044 64 94 C64.54290343 89.89075934 64.54290343 89.89075934 62.72729492 86.34448242 C60.66355773 84.7381219 59.57729197 84.58561248 56.98828125 84.48828125 C55.85229492 84.43510742 55.85229492 84.43510742 54.69335938 84.38085938 C53.90767578 84.35830078 53.12199219 84.33574219 52.3125 84.3125 C51.51521484 84.27833984 50.71792969 84.24417969 49.89648438 84.20898438 C47.93148096 84.12661896 45.96576304 84.06162933 44 84 C44 80.37 44 76.74 44 73 C45.10859375 72.97421875 46.2171875 72.9484375 47.359375 72.921875 C48.82295547 72.86558344 50.28649562 72.80823633 51.75 72.75 C52.47960937 72.73582031 53.20921875 72.72164063 53.9609375 72.70703125 C57.48579624 72.5468104 59.62765252 72.27765314 62.48828125 70.14453125 C64.53551706 67.24031301 64.51789225 65.47727653 64 62 C62.47306782 60.02453697 61.55411548 59.12602267 59.09887695 58.56762695 C58.40238037 58.54144287 57.70588379 58.51525879 56.98828125 58.48828125 C56.23095703 58.45283203 55.47363281 58.41738281 54.69335938 58.38085938 C53.90767578 58.35830078 53.12199219 58.33574219 52.3125 58.3125 C51.51521484 58.27833984 50.71792969 58.24417969 49.89648438 58.20898438 C47.93148096 58.12661896 45.96576304 58.06162933 44 58 C44 57.67 44 57.34 44 57 C47.96 57 51.92 57 56 57 C51.7870799 44.23075102 46.65491511 33.42569084 38 23 C37.55269531 22.40703125 37.10539062 21.8140625 36.64453125 21.203125 C30.14008608 12.886591 18.65243517 3.3252264 8 1.48046875 C5.32627028 1.22469103 2.68466727 1.05519877 0 1 C0 0.67 0 0.34 0 0 Z " fill="#FACD59" transform="translate(387,15)"/>
<path d="M0 0 C-1.43911048 3.11101824 -3.1984885 5.69753081 -5.25 8.4375 C-14.17837207 21.08602709 -18.59337644 34.77440201 -18.5 50.1875 C-18.49500488 51.27957764 -18.49000977 52.37165527 -18.48486328 53.49682617 C-18.28526217 62.82232774 -16.68824874 70.4265247 -13 79 C-12.54238281 80.08410156 -12.08476563 81.16820312 -11.61328125 82.28515625 C-8.36052047 89.33428988 -4.08833108 95.16262526 1 101 C-2.44266982 102.14755661 -3.08428642 101.86238563 -6.359375 100.62890625 C-7.22014648 100.30631836 -8.08091797 99.98373047 -8.96777344 99.65136719 C-9.8859082 99.29204102 -10.80404297 98.93271484 -11.75 98.5625 C-12.69649414 98.19415039 -13.64298828 97.82580078 -14.61816406 97.44628906 C-38.4488258 87.97378272 -62.37286045 72.51384728 -77 51 C-61.32363028 29.59786404 -28.61114172 0 0 0 Z " fill="#A4E4ED" transform="translate(130,188)"/>
<path d="M0 0 C29.03246698 6.26318389 53.69334242 23.71376122 73.8125 44.9375 C74.64394531 45.81277344 75.47539062 46.68804687 76.33203125 47.58984375 C78 50 78 50 78.0078125 52.02734375 C75.63373676 56.67427495 71.56090812 60.24939358 68 64 C67.26652344 64.80953125 66.53304687 65.6190625 65.77734375 66.453125 C49.64763336 83.60650484 25.82071402 97.22674061 3 103 C2.01 102.67 1.02 102.34 0 102 C0.65355469 101.30777344 0.65355469 101.30777344 1.3203125 100.6015625 C16.19306146 84.31236125 21.11815093 65.12214585 20.19091797 43.56494141 C19.092209 28.80402527 12.11995093 14.98928641 2.6015625 3.890625 C1 2 1 2 0 0 Z " fill="#6AD6E4" transform="translate(237,187)"/>
<path d="M0 0 C7.09170109 5.81439658 12.03318621 13.28273018 13.04296875 22.53515625 C13.18012573 33.67230341 10.70753081 41.30629063 3 49.4765625 C-4.64701223 56.08139248 -12.87056761 57.83174731 -22.71484375 57.73046875 C-32.63418874 56.9724402 -39.01474291 50.96651254 -45.60546875 44.01953125 C-50.88708586 35.99929786 -51.44916365 27.88965461 -50.29296875 18.45703125 C-47.21215014 8.432701 -40.91649449 1.80951775 -32.04296875 -3.48046875 C-21.35039303 -7.61169119 -9.5167666 -6.40395708 0 0 Z " fill="#8B9AA6" transform="translate(203.29296875,212.54296875)"/>
<path d="M0 0 C4.88037705 3.87911445 6.65028824 8.19407792 8.75 13.85546875 C9.08580078 14.72793747 9.42160156 15.60040619 9.76757812 16.49931335 C10.48528082 18.36706069 11.1973661 20.23697468 11.90429688 22.10882568 C12.99692357 24.99188238 14.11188908 27.8652656 15.234375 30.73681641 C17.13331495 35.5999066 19.006307 40.47238529 20.86669922 45.3503418 C21.63183179 47.35020252 22.40180979 49.34821519 23.17626953 51.34448242 C24.3161925 54.28409621 25.44090955 57.22913205 26.5625 60.17578125 C26.90925781 61.06123123 27.25601563 61.94668121 27.61328125 62.85896301 C29.44598646 67.72928674 30.54418176 71.70910781 30 77 C28.4375 79.4375 28.4375 79.4375 26 81 C22.5 81.5625 22.5 81.5625 19 81 C15.1496496 77.57746631 13.35214335 72.89639787 12 68 C12 67.01 12 66.02 12 65 C1.77 65 -8.46 65 -19 65 C-19.33 66.65 -19.66 68.3 -20 70 C-20.57469138 71.58169563 -21.19979003 73.14603228 -21.875 74.6875 C-22.20242188 75.45449219 -22.52984375 76.22148437 -22.8671875 77.01171875 C-24 79 -24 79 -27 81 C-30.5772533 81.45667063 -32.33458305 81.43777431 -35.375 79.4375 C-37.53623753 76.1956437 -37.55017423 73.74258747 -37 70 C-35.76395468 65.80952126 -34.1788682 61.77155389 -32.58203125 57.70703125 C-32.12777267 56.52461349 -31.6735141 55.34219574 -31.20549011 54.12394714 C-29.99759406 50.9868705 -28.77958351 47.85411455 -27.55664062 44.72290039 C-26.57259577 42.19660414 -25.59841201 39.66656587 -24.62483692 37.13621998 C-19.74147841 24.44528939 -19.74147841 24.44528939 -17.24649048 18.14785767 C-16.38840583 15.98087092 -15.54444671 13.8082548 -14.71224976 11.63119507 C-14.28989044 10.55753693 -13.86753113 9.48387878 -13.43237305 8.37768555 C-13.06057419 7.4156572 -12.68877533 6.45362885 -12.30570984 5.46244812 C-9.45696759 0.08998344 -5.8730309 -0.82428504 0 0 Z " fill="#030404" transform="translate(387,204)"/>
<path d="M0 0 C20.97693515 -0.58149615 20.97693515 -0.58149615 29 3 C30.08410156 3.45246094 31.16820312 3.90492188 32.28515625 4.37109375 C48.36432333 11.66708142 59.08072971 23.26511672 65.4375 39.9375 C70.49469289 54.61016277 68.91236115 69.93598902 62.71484375 83.89453125 C55.45887856 98.34582683 43.78708503 108.01795197 29 114 C28.19046875 114.35449219 27.3809375 114.70898438 26.546875 115.07421875 C20.64985122 117.21776881 14.81077787 117.12662688 8.625 117.0625 C7.79355469 117.05798828 6.96210938 117.05347656 6.10546875 117.04882812 C4.07028103 117.03713164 2.03513077 117.01919935 0 117 C0.54914063 116.74992187 1.09828125 116.49984375 1.6640625 116.2421875 C4.44011254 114.76596022 6.85053413 112.99890324 9.375 111.125 C10.84066406 110.05378906 10.84066406 110.05378906 12.3359375 108.9609375 C14.23063001 107.56631046 16.11790002 106.16157499 18 104.75 C20.79905153 103.11721994 23.25259668 102.19900331 26.3125 101.1875 C36.11934888 97.76774401 44.40622197 90.4344832 49.47265625 81.36328125 C55.03315124 69.73973925 57.24149681 57.46247443 53.4375 44.875 C48.82095647 32.63954546 41.42222462 22.85299619 29.5 17.125 C24.73357555 15.12834547 20.07898673 13.91588285 15 13 C15.33 12.34 15.66 11.68 16 11 C14.2758698 9.70161824 12.54546768 8.41156253 10.8125 7.125 C9.84957031 6.40570313 8.88664063 5.68640625 7.89453125 4.9453125 C5.28871325 3.19403401 2.95207856 2.02540206 0 1 C0 0.67 0 0.34 0 0 Z " fill="#C693E1" transform="translate(175,180)"/>
<path d="M0 0 C159.06 0 318.12 0 482 0 C482 24 482 24 479 29 C473.98386556 33.40441073 471.06376214 34.14633936 464.53867912 34.12304783 C463.75634279 34.12420167 462.97400646 34.12535552 462.16796297 34.12654433 C459.51868258 34.12921347 456.86946169 34.12468638 454.22018433 34.12025452 C452.3128003 34.12069016 450.40541633 34.12156493 448.49803269 34.12284368 C443.23501671 34.12509004 437.97202091 34.12106544 432.7090075 34.11606562 C427.04164138 34.11176332 421.37427647 34.11320739 415.70690918 34.1139679 C405.8806112 34.11449327 396.05431984 34.11134505 386.22802353 34.10573006 C372.02069563 34.09761689 357.81337094 34.09500003 343.60604097 34.09374207 C320.55783392 34.09155126 297.50963085 34.08489895 274.46142578 34.07543945 C252.06689472 34.06625883 229.6723646 34.05917335 207.27783203 34.05493164 C206.24284586 34.05473435 206.24284586 34.05473435 205.18695088 34.05453308 C198.25793936 34.05321459 191.32892784 34.05193877 184.39991631 34.05069422 C126.2666085 34.04024864 68.13330431 34.02259826 10 34 C10 33.67 10 33.34 10 33 C155.86 33 301.72 33 452 33 C455.38788692 22.83633924 454.58824909 11.70552376 455 1 C304.85 1 154.7 1 0 1 C0 0.67 0 0.34 0 0 Z " fill="#747F89" transform="translate(15,360)"/>
<path d="M0 0 C13.86 0 27.72 0 42 0 C42 13.86 42 27.72 42 42 C28.14 42 14.28 42 0 42 C0 28.14 0 14.28 0 0 Z " fill="#6AD8E6" transform="translate(374,72)"/>
<path d="M0 0 C6.6 0 13.2 0 20 0 C20 6.6 20 13.2 20 20 C17.525 20.99 17.525 20.99 15 22 C2.78399537 40.32400695 12.34952288 65.98005827 12 88 C-47.4 88 -106.8 88 -168 88 C-168 87.67 -168 87.34 -168 87 C-114.87 87 -61.74 87 -7 87 C-7 83.37 -7 79.74 -7 76 C-4.5625 73.9375 -4.5625 73.9375 -2 73 C-0.54449197 70.08898394 -0.8348901 67.50682802 -0.79467773 64.25537109 C-0.78477814 63.56257553 -0.77487854 62.86977997 -0.76467896 62.1559906 C-0.73304503 59.86184122 -0.70829914 57.56767111 -0.68359375 55.2734375 C-0.66302585 53.68445288 -0.64202942 52.09547376 -0.62062073 50.50650024 C-0.56538309 46.32096805 -0.51598131 42.13538634 -0.46777344 37.94976807 C-0.41757074 33.6800088 -0.36187826 29.41032158 -0.30664062 25.140625 C-0.19903835 16.76047588 -0.0981052 8.38026569 0 0 Z " fill="#758691" transform="translate(334,409)"/>
<path d="M0 0 C4.87261676 1.5866517 8.53413719 4.37290181 12.5625 7.4375 C13.26632812 7.97101074 13.97015625 8.50452148 14.6953125 9.05419922 C40.15370378 28.60425695 40.15370378 28.60425695 42.25 39.1875 C41.52481127 50.24662819 30.10075921 59.42130033 22.19189453 66.35913086 C15.81303543 71.80419533 9.10390837 76.53285762 2 81 C1 78 1 78 1.85546875 75.9765625 C2.51482422 74.81253906 2.51482422 74.81253906 3.1875 73.625 C6.33645166 67.66041191 8.20806205 61.48259904 10 55 C10.176521 54.37246826 10.35304199 53.74493652 10.53491211 53.09838867 C14.67647441 34.41244225 8.29308122 16.42309623 0 0 Z " fill="#A4E5EE" transform="translate(246,198)"/>
<path d="M0 0 C4.14460619 0.7612542 5.43316612 2.31341628 8.0625 5.5625 C8.69741821 8.82556152 8.69741821 8.82556152 8.70947266 12.56835938 C8.71823425 13.25356155 8.72699585 13.93876373 8.73602295 14.64472961 C8.75794661 16.89922283 8.74349222 19.1517385 8.7265625 21.40625 C8.72993273 22.97896703 8.73478708 24.55168151 8.74105835 26.12438965 C8.74842004 29.41634991 8.73774787 32.70763062 8.71435547 35.99951172 C8.6858669 40.21327554 8.70227483 44.42544709 8.73221779 48.63915253 C8.75031052 51.88551774 8.74452395 55.1315072 8.73157883 58.37788391 C8.72825021 59.93117971 8.73231279 61.48450993 8.74397659 63.0377655 C8.75671943 65.21163904 8.73726729 67.38295688 8.70947266 69.55664062 C8.70549469 70.79176392 8.70151672 72.02688721 8.69741821 73.29943848 C7.88667739 77.46611244 6.35101273 78.96082447 3.0625 81.5625 C0 82.125 0 82.125 -2.9375 81.5625 C-5.98225659 79.30938358 -6.84966821 78.1202456 -7.44543457 74.33703613 C-7.44861694 73.06114624 -7.45179932 71.78525635 -7.45507812 70.47070312 C-7.4620874 69.76453354 -7.46909668 69.05836395 -7.47631836 68.33079529 C-7.49389374 66.00137771 -7.48227846 63.67317948 -7.46875 61.34375 C-7.47144508 59.72236905 -7.47532763 58.10098968 -7.48034668 56.47961426 C-7.48624106 53.08342076 -7.47768109 49.68764841 -7.45898438 46.29150391 C-7.43619439 41.93993865 -7.44931786 37.58936017 -7.47327423 33.23783112 C-7.4877341 29.89032568 -7.48312546 26.54305389 -7.47276306 23.19554138 C-7.47009627 21.59118025 -7.47336388 19.98679784 -7.48268127 18.38246155 C-7.49285059 16.13916915 -7.47734335 13.89747065 -7.45507812 11.65429688 C-7.45189575 10.37840698 -7.44871338 9.10251709 -7.44543457 7.78796387 C-6.68931042 2.98645742 -4.76590758 0.9126206 0 0 Z " fill="#050505" transform="translate(436.9375,203.4375)"/>
<path d="M0 0 C6.27 0 12.54 0 19 0 C19 13.86 19 27.72 19 42 C12.73 42 6.46 42 0 42 C0 28.14 0 14.28 0 0 Z " fill="#2FD0E1" transform="translate(397,72)"/>
<path d="M0 0 C3.05707778 3.05707778 4.08842529 6.88365349 5.625 10.875 C5.94984375 11.69097656 6.2746875 12.50695312 6.609375 13.34765625 C6.91617187 14.13785156 7.22296875 14.92804688 7.5390625 15.7421875 C7.95986084 16.82282471 7.95986084 16.82282471 8.38916016 17.92529297 C9 20 9 20 9 24 C3.39 24 -2.22 24 -8 24 C-6.5102402 15.50836915 -3.31428738 7.9105161 0 0 Z " fill="#DEECED" transform="translate(383,230)"/>
<path d="M0 0 C4.95 0 9.9 0 15 0 C15 3.3 15 6.6 15 10 C10.05 10 5.1 10 0 10 C0 6.7 0 3.4 0 0 Z " fill="#FFE076" transform="translate(431,88)"/>
</svg>
