<?xml version="1.0" encoding="UTF-8"?>
<svg version="1.1" xmlns="http://www.w3.org/2000/svg" width="512" height="512">
<path d="M0 0 C5.19764827 2.72311573 7.98011524 6.86612696 9.796875 12.31640625 C9.91037348 13.77347542 9.97288975 15.23485584 10.00219727 16.69604492 C10.02214249 17.57673141 10.04208771 18.45741791 10.06263733 19.36479187 C10.08770607 20.78523552 10.08770607 20.78523552 10.11328125 22.234375 C10.13406235 23.20675613 10.15484344 24.17913727 10.17625427 25.1809845 C10.24166248 28.2885529 10.30059429 31.3962061 10.359375 34.50390625 C10.40256851 36.61003483 10.44618307 38.71615481 10.49023438 40.82226562 C10.59733499 45.98689216 10.69862719 51.15160403 10.796875 56.31640625 C11.29803833 55.28253784 11.29803833 55.28253784 11.80932617 54.2277832 C12.25252197 53.32503662 12.69571777 52.42229004 13.15234375 51.4921875 C13.58957764 50.59669189 14.02681152 49.70119629 14.47729492 48.77856445 C17.98386232 42.23578328 24.41791206 37.6999236 31.41796875 35.48828125 C52.75801674 30.97125617 74.94456199 41.45931208 92.796875 52.31640625 C93.54005981 52.89092529 94.28324463 53.46544434 95.0489502 54.05737305 C103.00409464 59.95376147 110.12484322 60.2619081 119.640625 60.03515625 C121.14227554 60.02461068 122.64394975 60.0170559 124.14562988 60.0123291 C128.06443075 59.9914594 131.98139613 59.92774513 135.89953613 59.85534668 C139.10699209 59.80324736 142.31432523 59.78146408 145.52211761 59.76122284 C152.14456942 59.71906031 158.76709036 59.65776323 165.38867188 59.54101562 C166.55684448 59.5221228 167.72501709 59.50322998 168.92858887 59.48376465 C171.86873921 59.4371355 171.86873921 59.4371355 174.796875 58.31640625 C176.58710719 53.65371848 176.10194533 48.23691242 176.171875 43.31640625 C176.20925781 42.31867187 176.24664062 41.3209375 176.28515625 40.29296875 C176.51923746 34.46006805 176.51923746 34.46006805 173.38671875 29.828125 C172.53207031 29.32925781 171.67742187 28.83039062 170.796875 28.31640625 C167.78518708 23.01998955 167.00084795 18.28115685 167.796875 12.31640625 C169.70505109 7.09402959 172.83570857 3.15747929 177.59375 0.19921875 C182.55727977 -1.78971339 188.94562677 -1.6205048 193.99609375 0.0390625 C198.84232516 2.63563334 202.06756981 6.12849069 203.796875 11.31640625 C204.30936122 17.59436248 204.46362011 22.94724377 200.796875 28.31640625 C200.11367188 28.82042969 199.43046875 29.32445313 198.7265625 29.84375 C195.71057699 33.70836301 196.19853028 37.67011056 196.171875 42.44140625 C195.99473912 54.80549039 195.1532662 63.68166512 186.3515625 72.81640625 C180.04110041 78.60961735 172.88820341 79.76191265 164.703125 79.828125 C163.87099487 79.8460762 163.03886475 79.8640274 162.18151855 79.88252258 C159.55335386 79.93621252 156.92536635 79.97038696 154.296875 80.00390625 C152.50257972 80.03711594 150.70830771 80.07160892 148.9140625 80.10742188 C144.54179544 80.19191449 140.16957714 80.25892084 135.796875 80.31640625 C136.18359375 80.72890625 136.5703125 81.14140625 136.96875 81.56640625 C140.85425283 85.87508265 143.38961108 90.03894305 145.796875 95.31640625 C154.57658025 95.38596919 163.35619038 95.43924935 172.13611126 95.47184277 C176.21315444 95.48748735 180.29000883 95.50870333 184.36694336 95.54272461 C188.30268518 95.57536149 192.2382456 95.59326835 196.17411232 95.60103798 C197.67440457 95.60657375 199.17468709 95.61738386 200.67490196 95.63359642 C202.77917172 95.65542897 204.88269544 95.65837085 206.98706055 95.65698242 C208.782425 95.66697517 208.782425 95.66697517 210.61405945 95.6771698 C214.11928789 95.27986162 215.99339361 94.42039358 218.796875 92.31640625 C220.2776598 89.35483665 220.15001537 86.4813433 220.359375 83.19140625 C220.44316406 81.91007812 220.52695312 80.62875 220.61328125 79.30859375 C220.67386719 78.32117188 220.73445313 77.33375 220.796875 76.31640625 C220.18199219 76.04570313 219.56710937 75.775 218.93359375 75.49609375 C215.35497876 73.52033191 213.49986114 70.13245379 212.046875 66.37890625 C211.22619592 59.60830381 211.94413311 54.93646094 215.796875 49.31640625 C219.11879141 45.8036748 222.33067811 43.55595722 227.25 43.078125 C233.75530476 42.9054982 237.56098189 43.36277268 242.796875 47.31640625 C247.80173373 52.7163854 248.13774896 57.16025717 248.0859375 64.29296875 C247.66936541 68.65008768 246.43432836 70.85003898 243.796875 74.31640625 C242.311875 75.30640625 242.311875 75.30640625 240.796875 76.31640625 C240.35825182 79.52444783 240.35825182 79.52444783 240.359375 83.25390625 C239.97869691 92.56879769 238.05883537 100.93587196 231.51171875 107.8828125 C225.69884455 112.74232236 219.38747843 114.44311528 211.9387207 114.42993164 C211.24577911 114.43007767 210.55283752 114.43022369 209.83889771 114.43037415 C207.55011863 114.42967788 205.2614211 114.42189885 202.97265625 114.4140625 C201.38510686 114.41219731 199.79755689 114.41077388 198.21000671 114.40977478 C194.0326478 114.40595759 189.85532369 114.39613411 185.67797852 114.3850708 C181.41488109 114.37483953 177.15177804 114.37027348 172.88867188 114.36523438 C164.52472362 114.35451114 156.16080364 114.33744428 147.796875 114.31640625 C147.73597183 115.00411102 147.67506866 115.6918158 147.61231995 116.40036011 C147.52828415 117.30190826 147.44424835 118.20345642 147.35766602 119.13232422 C147.27613785 120.02627899 147.19460968 120.92023376 147.11061096 121.84127808 C146.75346728 124.65885877 146.00307617 126.90400392 144.734375 129.44140625 C144.37214844 130.18648437 144.00992187 130.9315625 143.63671875 131.69921875 C143.35957031 132.23289063 143.08242188 132.7665625 142.796875 133.31640625 C143.74046875 133.46335938 144.6840625 133.6103125 145.65625 133.76171875 C159.62365932 136.20180833 169.70981248 141.08472635 179.796875 151.31640625 C180.37179687 151.88101563 180.94671875 152.445625 181.5390625 153.02734375 C191.27502726 163.36865347 195.27392775 178.00563697 195 191.953125 C194.796875 194.31640625 194.796875 194.31640625 194.28125 196.8359375 C193.28721912 201.95573662 193.28721912 201.95573662 195.30078125 206.59375 C196.70242435 208.107099 198.13654271 209.59086134 199.59765625 211.046875 C210.74229127 222.54782162 213.23909195 238.42591108 213.00390625 253.7421875 C212.52659854 268.02335121 205.9625073 281.50566046 196.796875 292.31640625 C197.910625 293.39921875 197.910625 293.39921875 199.046875 294.50390625 C208.85519108 304.53513861 213.23164923 315.76017867 213.16040039 329.75830078 C212.86742313 341.83938098 208.00420934 352.34488605 199.98828125 361.34765625 C192.20283378 368.72845469 182.06353185 372.72702819 171.796875 375.31640625 C172.23 376.58484375 172.23 376.58484375 172.671875 377.87890625 C173.043125 379.01328125 173.414375 380.14765625 173.796875 381.31640625 C174.168125 382.43015625 174.539375 383.54390625 174.921875 384.69140625 C175.90914386 388.78152009 175.85765906 392.12230641 175.796875 396.31640625 C177.05757813 396.3006958 178.31828125 396.28498535 179.6171875 396.26879883 C184.32106061 396.214255 189.02490607 396.17996749 193.72900391 396.15161133 C195.7599763 396.13658026 197.79091654 396.11614978 199.82177734 396.09008789 C202.75105759 396.05345393 205.67990644 396.03662274 208.609375 396.0234375 C209.50865723 396.00795364 210.40793945 395.99246979 211.33447266 395.97651672 C219.43960391 395.9743819 226.09703022 397.87306971 232.19140625 403.4375 C239.22209015 411.66562398 239.91916475 420.32369536 240.125 430.6875 C240.94515637 435.11729807 242.481123 436.38749198 245.796875 439.31640625 C248.96267271 444.10347613 248.38171792 449.80733034 247.796875 455.31640625 C246.18633926 460.21765826 243.05403684 463.47829836 238.796875 466.31640625 C233.16004137 468.19535079 227.03850326 468.06361567 221.421875 466.19140625 C216.80082019 462.89065281 213.2837318 458.85832705 211.796875 453.31640625 C211.17020735 446.54839561 212.99107787 441.88829913 216.859375 436.37890625 C217.49875 435.69828125 218.138125 435.01765625 218.796875 434.31640625 C219.456875 434.31640625 220.116875 434.31640625 220.796875 434.31640625 C220.73669483 432.06566797 220.64786294 429.815683 220.546875 427.56640625 C220.50046875 426.3134375 220.4540625 425.06046875 220.40625 423.76953125 C219.71898142 419.8750093 218.87324786 418.69886042 215.796875 416.31640625 C212.36311232 414.59952491 208.41573135 415.07131623 204.6328125 415 C203.72560455 414.9792189 202.81839661 414.95843781 201.88369751 414.93702698 C198.9798352 414.8715349 196.07588095 414.81264811 193.171875 414.75390625 C191.20571958 414.7107207 189.23957353 414.6671064 187.2734375 414.62304688 C182.44801138 414.51585386 177.6224926 414.41458544 172.796875 414.31640625 C172.59976929 415.46435669 172.59976929 415.46435669 172.39868164 416.63549805 C171.64215153 420.00566324 170.13714997 422.25744584 168.234375 425.12890625 C167.59371094 426.10472656 166.95304687 427.08054687 166.29296875 428.0859375 C165.79925781 428.82199219 165.30554688 429.55804688 164.796875 430.31640625 C165.6425 430.40277344 166.488125 430.48914063 167.359375 430.578125 C178.29736761 431.93294454 184.39086403 434.895177 191.390625 443.40625 C195.53057885 449.02968731 195.82879148 455.57640891 195.90234375 462.34765625 C195.92458008 463.68763672 195.92458008 463.68763672 195.94726562 465.0546875 C195.97200307 466.89567451 195.97721317 468.73702751 195.96289062 470.578125 C196.10492425 476.54353726 197.0827037 479.67215136 201.4152832 483.86132812 C204.67554792 487.29500505 204.12501038 492.08690881 204.078125 496.5234375 C203.5378756 501.88841414 201.18556856 505.02932441 197.234375 508.69140625 C191.89116801 512.25354424 186.00236469 511.88711838 179.796875 511.31640625 C174.41521064 509.64656359 171.48094483 506.16837864 168.796875 501.31640625 C166.92220809 495.69240552 167.00169905 490.34117169 169.546875 484.94140625 C170.78004659 482.56314675 171.56107809 481.46547971 173.84936523 480.01879883 C176.00460545 478.48163092 176.00460545 478.48163092 176.2668457 476.01977539 C176.25226318 475.13926514 176.23768066 474.25875488 176.22265625 473.3515625 C176.21427734 472.38669922 176.20589844 471.42183594 176.19726562 470.42773438 C176.16826172 469.42162109 176.13925781 468.41550781 176.109375 467.37890625 C176.09970703 466.37666016 176.09003906 465.37441406 176.08007812 464.34179688 C176.14456144 458.21860665 176.14456144 458.21860665 174.796875 452.31640625 C171.931349 451.36123092 170.03166179 451.16586427 167.05004883 451.11108398 C166.08927933 451.09113876 165.12850983 451.07119354 164.1386261 451.05064392 C163.10416855 451.03393143 162.069711 451.01721893 161.00390625 451 C159.41215828 450.96882835 159.41215828 450.96882835 157.78825378 450.93702698 C154.39536063 450.87159387 151.0023895 450.81267532 147.609375 450.75390625 C145.31053878 450.71071511 143.01171047 450.66710063 140.71289062 450.62304688 C135.0743014 450.51591885 129.43563444 450.41414074 123.796875 450.31640625 C123.49668457 451.2595166 123.19649414 452.20262695 122.88720703 453.17431641 C121.19811134 458.04190743 118.11738651 461.44137592 114.796875 465.31640625 C114.22066406 466.00089844 113.64445312 466.68539063 113.05078125 467.390625 C102.69886654 478.72207572 88.10799199 484.44451411 73.0390625 485.51171875 C55.41411849 486.16128671 39.82533654 480.11452404 26.796875 468.31640625 C20.24058459 461.86397786 15.08035914 454.4114814 12.21191406 445.64233398 C11.81265717 444.42706276 11.81265717 444.42706276 11.40533447 443.1872406 C11.20454285 442.56986526 11.00375122 441.95248993 10.796875 441.31640625 C10.79322937 442.0127417 10.78958374 442.70907715 10.78582764 443.42651367 C10.74782244 450.01712459 10.69082926 456.60727319 10.61297226 463.19754028 C10.57361025 466.58499981 10.54136734 469.9722038 10.52587891 473.35986328 C10.50439668 477.26246791 10.45771496 481.16409574 10.40625 485.06640625 C10.40502136 486.27192139 10.40379272 487.47743652 10.40252686 488.71948242 C10.28173062 495.70666246 9.58239959 500.38638982 5.796875 506.31640625 C0.47954181 511.37435734 -4.09930826 511.67079556 -11.1875 511.59375 C-15.65332562 511.18303288 -17.68112204 510.10465859 -21.203125 507.31640625 C-24.85383001 502.60891821 -26.33491856 499.11669193 -26.30078125 493.2109375 C-26.29755859 492.22802734 -26.29433594 491.24511719 -26.29101562 490.23242188 C-26.28263672 489.20826172 -26.27425781 488.18410156 -26.265625 487.12890625 C-26.26111328 486.09314453 -26.25660156 485.05738281 -26.25195312 483.99023438 C-26.2401651 481.43223359 -26.22371015 478.87434892 -26.203125 476.31640625 C-27.31557713 476.32193701 -28.42802925 476.32746777 -29.57419205 476.33316612 C-56.66685269 476.46647831 -83.7594707 476.56501517 -110.85239029 476.62727928 C-123.95444663 476.6581916 -137.05628604 476.70032241 -150.15820312 476.76904297 C-161.58042987 476.82892476 -173.00249948 476.86757445 -184.42487884 476.88093722 C-190.4706682 476.88874598 -196.5160081 476.90704447 -202.56165314 476.95078659 C-208.25804137 476.99166583 -213.95379715 477.00404415 -219.65031815 476.99505234 C-221.73518695 476.99669612 -223.82007801 477.00853911 -225.90481949 477.0316391 C-247.03292654 477.2541656 -247.03292654 477.2541656 -256.203125 470.31640625 C-261.94498628 464.36327711 -264.4507912 458.73656512 -264.46039391 450.41409588 C-264.46389998 449.72862046 -264.46740605 449.04314504 -264.47101837 448.33689764 C-264.48033813 446.03503917 -264.47540764 443.73343337 -264.47055054 441.43156433 C-264.47428651 439.76652915 -264.47888782 438.10149572 -264.48428118 436.43646508 C-264.49653315 431.85695085 -264.49624813 427.27750956 -264.49389243 422.69798267 C-264.49348482 417.76057294 -264.50451808 412.82318676 -264.51400757 407.88578796 C-264.53063055 398.21093929 -264.5361177 388.53611498 -264.53723232 378.86125322 C-264.53818218 370.99816443 -264.54228933 363.1350837 -264.54863358 355.27199745 C-264.56624947 332.98569794 -264.57547189 310.6994177 -264.57397263 288.41311117 C-264.57389272 287.21129376 -264.5738128 286.00947635 -264.57373047 284.77124023 C-264.57364871 283.56795786 -264.57356695 282.36467548 -264.57348271 281.12493 C-264.57266969 261.6211089 -264.59181038 242.11736501 -264.6200072 222.61356624 C-264.64872154 202.59406412 -264.6625483 182.57459967 -264.66081965 162.55507642 C-264.66015525 151.31287553 -264.66566943 140.07075559 -264.68717575 128.82857323 C-264.70536845 119.25709808 -264.7097506 109.68574056 -264.6961569 100.11425563 C-264.68961763 95.23022979 -264.68954468 90.34642973 -264.7068634 85.46242523 C-264.72255673 80.99082902 -264.71976884 76.51963833 -264.70229514 72.04805223 C-264.69921699 70.43097539 -264.70288827 68.81386856 -264.71401529 67.19682708 C-264.80963803 52.31390829 -264.80963803 52.31390829 -260.203125 45.31640625 C-259.64625 44.42953125 -259.089375 43.54265625 -258.515625 42.62890625 C-252.84868553 36.96196678 -246.04262488 34.2079611 -238.11014205 34.18732494 C-236.85090975 34.1916942 -236.85090975 34.1916942 -235.5662384 34.19615173 C-234.22707187 34.1948701 -234.22707187 34.1948701 -232.86085147 34.19356257 C-229.85749084 34.19191027 -226.85418559 34.19742509 -223.85083008 34.20288086 C-221.70263165 34.20316281 -219.55443312 34.20300484 -217.40623474 34.20243835 C-211.56361512 34.20215069 -205.72101591 34.20804243 -199.87840104 34.21501231 C-193.77649428 34.22125099 -187.67458708 34.22185006 -181.57267761 34.22303772 C-170.01300127 34.22614951 -158.45333434 34.23436087 -146.89366215 34.24438721 C-133.73544032 34.25555305 -120.57721803 34.26105999 -107.41899264 34.26608264 C-80.34703153 34.27654359 -53.27507879 34.29414011 -26.203125 34.31640625 C-26.22407227 33.69185547 -26.24501953 33.06730469 -26.26660156 32.42382812 C-26.35048344 29.55485565 -26.40201011 26.68614217 -26.453125 23.81640625 C-26.48664063 22.83414062 -26.52015625 21.851875 -26.5546875 20.83984375 C-26.63990273 14.44870134 -25.9411009 9.61888813 -22.203125 4.31640625 C-16.17483594 -1.41781993 -7.94345414 -2.46472425 0 0 Z " fill="#464F5D" transform="translate(264.203125,0.68359375)"/>
<path d="M0 0 C5.19764827 2.72311573 7.98011524 6.86612696 9.796875 12.31640625 C9.91037348 13.77347542 9.97288975 15.23485584 10.00219727 16.69604492 C10.0321151 18.01707466 10.0321151 18.01707466 10.06263733 19.36479187 C10.07934982 20.3117543 10.09606232 21.25871674 10.11328125 22.234375 C10.13406235 23.20675613 10.15484344 24.17913727 10.17625427 25.1809845 C10.24166248 28.2885529 10.30059429 31.3962061 10.359375 34.50390625 C10.40256851 36.61003483 10.44618307 38.71615481 10.49023438 40.82226562 C10.59733499 45.98689216 10.69862719 51.15160403 10.796875 56.31640625 C11.13098389 55.62716064 11.46509277 54.93791504 11.80932617 54.2277832 C12.25252197 53.32503662 12.69571777 52.42229004 13.15234375 51.4921875 C13.58957764 50.59669189 14.02681152 49.70119629 14.47729492 48.77856445 C17.98386232 42.23578328 24.41791206 37.6999236 31.41796875 35.48828125 C52.75801674 30.97125617 74.94456199 41.45931208 92.796875 52.31640625 C93.54005981 52.89092529 94.28324463 53.46544434 95.0489502 54.05737305 C103.00409464 59.95376147 110.12484322 60.2619081 119.640625 60.03515625 C121.14227554 60.02461068 122.64394975 60.0170559 124.14562988 60.0123291 C128.06443075 59.9914594 131.98139613 59.92774513 135.89953613 59.85534668 C139.10699209 59.80324736 142.31432523 59.78146408 145.52211761 59.76122284 C152.14456942 59.71906031 158.76709036 59.65776323 165.38867188 59.54101562 C166.55684448 59.5221228 167.72501709 59.50322998 168.92858887 59.48376465 C171.86873921 59.4371355 171.86873921 59.4371355 174.796875 58.31640625 C176.58710719 53.65371848 176.10194533 48.23691242 176.171875 43.31640625 C176.20925781 42.31867187 176.24664062 41.3209375 176.28515625 40.29296875 C176.51923746 34.46006805 176.51923746 34.46006805 173.38671875 29.828125 C172.53207031 29.32925781 171.67742187 28.83039062 170.796875 28.31640625 C167.78518708 23.01998955 167.00084795 18.28115685 167.796875 12.31640625 C169.70505109 7.09402959 172.83570857 3.15747929 177.59375 0.19921875 C182.55727977 -1.78971339 188.94562677 -1.6205048 193.99609375 0.0390625 C198.84232516 2.63563334 202.06756981 6.12849069 203.796875 11.31640625 C204.30936122 17.59436248 204.46362011 22.94724377 200.796875 28.31640625 C200.11367188 28.82042969 199.43046875 29.32445313 198.7265625 29.84375 C195.71057699 33.70836301 196.19853028 37.67011056 196.171875 42.44140625 C195.99473912 54.80549039 195.1532662 63.68166512 186.3515625 72.81640625 C180.04110041 78.60961735 172.88820341 79.76191265 164.703125 79.828125 C163.87099487 79.8460762 163.03886475 79.8640274 162.18151855 79.88252258 C159.55335386 79.93621252 156.92536635 79.97038696 154.296875 80.00390625 C152.50257972 80.03711594 150.70830771 80.07160892 148.9140625 80.10742188 C144.54179544 80.19191449 140.16957714 80.25892084 135.796875 80.31640625 C136.18359375 80.72890625 136.5703125 81.14140625 136.96875 81.56640625 C140.85425283 85.87508265 143.38961108 90.03894305 145.796875 95.31640625 C154.57658025 95.38596919 163.35619038 95.43924935 172.13611126 95.47184277 C176.21315444 95.48748735 180.29000883 95.50870333 184.36694336 95.54272461 C188.30268518 95.57536149 192.2382456 95.59326835 196.17411232 95.60103798 C197.67440457 95.60657375 199.17468709 95.61738386 200.67490196 95.63359642 C202.77917172 95.65542897 204.88269544 95.65837085 206.98706055 95.65698242 C208.18397018 95.66364426 209.38087982 95.67030609 210.61405945 95.6771698 C214.11928789 95.27986162 215.99339361 94.42039358 218.796875 92.31640625 C220.2776598 89.35483665 220.15001537 86.4813433 220.359375 83.19140625 C220.44316406 81.91007812 220.52695312 80.62875 220.61328125 79.30859375 C220.67386719 78.32117188 220.73445312 77.33375 220.796875 76.31640625 C220.18199219 76.04570313 219.56710937 75.775 218.93359375 75.49609375 C215.35497876 73.52033191 213.49986114 70.13245379 212.046875 66.37890625 C211.22619592 59.60830381 211.94413311 54.93646094 215.796875 49.31640625 C219.11879141 45.8036748 222.33067811 43.55595722 227.25 43.078125 C233.75530476 42.9054982 237.56098189 43.36277268 242.796875 47.31640625 C247.80173373 52.7163854 248.13774896 57.16025717 248.0859375 64.29296875 C247.66936541 68.65008768 246.43432836 70.85003898 243.796875 74.31640625 C242.311875 75.30640625 242.311875 75.30640625 240.796875 76.31640625 C240.35825182 79.52444783 240.35825182 79.52444783 240.359375 83.25390625 C239.97869691 92.56879769 238.05883537 100.93587196 231.51171875 107.8828125 C225.69884455 112.74232236 219.38747843 114.44311528 211.9387207 114.42993164 C211.24577911 114.43007767 210.55283752 114.43022369 209.83889771 114.43037415 C207.55011863 114.42967788 205.2614211 114.42189885 202.97265625 114.4140625 C201.38510686 114.41219731 199.79755689 114.41077388 198.21000671 114.40977478 C194.0326478 114.40595759 189.85532369 114.39613411 185.67797852 114.3850708 C181.41488109 114.37483953 177.15177804 114.37027348 172.88867188 114.36523438 C164.52472362 114.35451114 156.16080364 114.33744428 147.796875 114.31640625 C147.73597183 115.00411102 147.67506866 115.6918158 147.61231995 116.40036011 C147.52828415 117.30190826 147.44424835 118.20345642 147.35766602 119.13232422 C147.27613785 120.02627899 147.19460968 120.92023376 147.11061096 121.84127808 C146.75346728 124.65885877 146.00307617 126.90400392 144.734375 129.44140625 C144.37214844 130.18648437 144.00992188 130.9315625 143.63671875 131.69921875 C143.35957031 132.23289063 143.08242188 132.7665625 142.796875 133.31640625 C143.74046875 133.46335938 144.6840625 133.6103125 145.65625 133.76171875 C159.62365932 136.20180833 169.70981248 141.08472635 179.796875 151.31640625 C180.65925781 152.16332031 180.65925781 152.16332031 181.5390625 153.02734375 C191.27502726 163.36865347 195.27392775 178.00563697 195 191.953125 C194.796875 194.31640625 194.796875 194.31640625 194.28125 196.8359375 C193.28721912 201.95573662 193.28721912 201.95573662 195.30078125 206.59375 C196.70242435 208.107099 198.13654271 209.59086134 199.59765625 211.046875 C210.74229127 222.54782162 213.23909195 238.42591108 213.00390625 253.7421875 C212.52659854 268.02335121 205.9625073 281.50566046 196.796875 292.31640625 C197.910625 293.39921875 197.910625 293.39921875 199.046875 294.50390625 C208.85519108 304.53513861 213.23164923 315.76017867 213.16040039 329.75830078 C212.86742313 341.83938098 208.00420934 352.34488605 199.98828125 361.34765625 C192.20283378 368.72845469 182.06353185 372.72702819 171.796875 375.31640625 C172.23 376.58484375 172.23 376.58484375 172.671875 377.87890625 C173.043125 379.01328125 173.414375 380.14765625 173.796875 381.31640625 C174.168125 382.43015625 174.539375 383.54390625 174.921875 384.69140625 C175.90914386 388.78152009 175.85765906 392.12230641 175.796875 396.31640625 C177.05757812 396.3006958 178.31828125 396.28498535 179.6171875 396.26879883 C184.32106061 396.214255 189.02490607 396.17996749 193.72900391 396.15161133 C195.7599763 396.13658026 197.79091654 396.11614978 199.82177734 396.09008789 C202.75105759 396.05345393 205.67990644 396.03662274 208.609375 396.0234375 C209.50865723 396.00795364 210.40793945 395.99246979 211.33447266 395.97651672 C219.43960391 395.9743819 226.09703022 397.87306971 232.19140625 403.4375 C239.22209015 411.66562398 239.91916475 420.32369536 240.125 430.6875 C240.94515637 435.11729807 242.481123 436.38749198 245.796875 439.31640625 C248.96267271 444.10347613 248.38171792 449.80733034 247.796875 455.31640625 C246.18633926 460.21765826 243.05403684 463.47829836 238.796875 466.31640625 C233.16004137 468.19535079 227.03850326 468.06361567 221.421875 466.19140625 C216.80082019 462.89065281 213.2837318 458.85832705 211.796875 453.31640625 C211.17020735 446.54839561 212.99107787 441.88829913 216.859375 436.37890625 C217.49875 435.69828125 218.138125 435.01765625 218.796875 434.31640625 C219.456875 434.31640625 220.116875 434.31640625 220.796875 434.31640625 C220.73669483 432.06566797 220.64786294 429.815683 220.546875 427.56640625 C220.50046875 426.3134375 220.4540625 425.06046875 220.40625 423.76953125 C219.71898142 419.8750093 218.87324786 418.69886042 215.796875 416.31640625 C212.36311232 414.59952491 208.41573135 415.07131623 204.6328125 415 C203.72560455 414.9792189 202.81839661 414.95843781 201.88369751 414.93702698 C198.9798352 414.8715349 196.07588095 414.81264811 193.171875 414.75390625 C191.20571958 414.7107207 189.23957353 414.6671064 187.2734375 414.62304688 C182.44801138 414.51585386 177.6224926 414.41458544 172.796875 414.31640625 C172.59976929 415.46435669 172.59976929 415.46435669 172.39868164 416.63549805 C171.64215153 420.00566324 170.13714997 422.25744584 168.234375 425.12890625 C167.59371094 426.10472656 166.95304688 427.08054687 166.29296875 428.0859375 C165.79925781 428.82199219 165.30554688 429.55804688 164.796875 430.31640625 C166.0653125 430.44595703 166.0653125 430.44595703 167.359375 430.578125 C178.29736761 431.93294454 184.39086403 434.895177 191.390625 443.40625 C195.53057885 449.02968731 195.82879148 455.57640891 195.90234375 462.34765625 C195.92458008 463.68763672 195.92458008 463.68763672 195.94726562 465.0546875 C195.97200307 466.89567451 195.97721317 468.73702751 195.96289062 470.578125 C196.10492425 476.54353726 197.0827037 479.67215136 201.4152832 483.86132812 C204.67554792 487.29500505 204.12501038 492.08690881 204.078125 496.5234375 C203.5378756 501.88841414 201.18556856 505.02932441 197.234375 508.69140625 C191.89116801 512.25354424 186.00236469 511.88711838 179.796875 511.31640625 C174.41521064 509.64656359 171.48094483 506.16837864 168.796875 501.31640625 C166.92220809 495.69240552 167.00169905 490.34117169 169.546875 484.94140625 C170.78004659 482.56314675 171.56107809 481.46547971 173.84936523 480.01879883 C176.00460545 478.48163092 176.00460545 478.48163092 176.2668457 476.01977539 C176.25226318 475.13926514 176.23768066 474.25875488 176.22265625 473.3515625 C176.21427734 472.38669922 176.20589844 471.42183594 176.19726562 470.42773438 C176.16826172 469.42162109 176.13925781 468.41550781 176.109375 467.37890625 C176.09487305 465.87553711 176.09487305 465.87553711 176.08007812 464.34179688 C176.14456144 458.21860665 176.14456144 458.21860665 174.796875 452.31640625 C171.931349 451.36123092 170.03166179 451.16586427 167.05004883 451.11108398 C166.08927933 451.09113876 165.12850983 451.07119354 164.1386261 451.05064392 C163.10416855 451.03393143 162.069711 451.01721893 161.00390625 451 C159.41215828 450.96882835 159.41215828 450.96882835 157.78825378 450.93702698 C154.39536063 450.87159387 151.0023895 450.81267532 147.609375 450.75390625 C145.31053878 450.71071511 143.01171047 450.66710063 140.71289062 450.62304688 C135.0743014 450.51591885 129.43563444 450.41414074 123.796875 450.31640625 C123.49668457 451.2595166 123.19649414 452.20262695 122.88720703 453.17431641 C121.19811134 458.04190743 118.11738651 461.44137592 114.796875 465.31640625 C114.22066406 466.00089844 113.64445313 466.68539063 113.05078125 467.390625 C102.69886654 478.72207572 88.10799199 484.44451411 73.0390625 485.51171875 C55.41411849 486.16128671 39.82533654 480.11452404 26.796875 468.31640625 C20.24058459 461.86397786 15.08035914 454.4114814 12.21191406 445.64233398 C11.9457428 444.83215317 11.67957153 444.02197235 11.40533447 443.1872406 C11.20454285 442.56986526 11.00375122 441.95248993 10.796875 441.31640625 C10.79322937 442.0127417 10.78958374 442.70907715 10.78582764 443.42651367 C10.74782244 450.01712459 10.69082926 456.60727319 10.61297226 463.19754028 C10.57361025 466.58499981 10.54136734 469.9722038 10.52587891 473.35986328 C10.50439668 477.26246791 10.45771496 481.16409574 10.40625 485.06640625 C10.40502136 486.27192139 10.40379272 487.47743652 10.40252686 488.71948242 C10.28173062 495.70666246 9.58239959 500.38638982 5.796875 506.31640625 C0.47954181 511.37435734 -4.09930826 511.67079556 -11.1875 511.59375 C-15.65332562 511.18303288 -17.68112204 510.10465859 -21.203125 507.31640625 C-25.60229241 501.64379564 -26.35081489 497.36573492 -26.33734608 490.37956715 C-26.33969831 489.55795277 -26.34205054 488.7363384 -26.34447405 487.88982663 C-26.35117678 485.11288343 -26.35070544 482.33598688 -26.35029602 479.55903625 C-26.35359385 477.55749492 -26.35731924 475.55595426 -26.3614375 473.55441445 C-26.37147478 468.03547154 -26.37517706 462.5165395 -26.37782681 456.99758875 C-26.38172473 451.05264295 -26.39130338 445.1077058 -26.40003967 439.1627655 C-26.41888315 425.47594059 -26.42906213 411.78911412 -26.43750035 398.10227979 C-26.44170576 391.34007477 -26.44692789 384.57787063 -26.45218488 377.81566635 C-26.47007562 354.67208473 -26.4850721 331.52850286 -26.49250507 308.38491535 C-26.49297983 306.93174241 -26.49345572 305.47856947 -26.49393274 304.02539654 C-26.49416911 303.30474698 -26.49440549 302.58409742 -26.49464903 301.84160999 C-26.49585024 298.19038647 -26.49706568 294.53916296 -26.49829102 290.88793945 C-26.49853117 290.16334064 -26.49877132 289.43874182 -26.49901874 288.69218546 C-26.50691257 265.19624929 -26.53034585 241.70036359 -26.56284696 218.20444946 C-26.5971388 193.36867096 -26.61685561 168.53292199 -26.62014931 143.69711941 C-26.62056686 140.97110091 -26.62104642 138.24508243 -26.62157249 135.51906395 C-26.62169569 134.8478317 -26.62181888 134.17659945 -26.6219458 133.48502683 C-26.62427862 122.67929469 -26.63994312 111.87362113 -26.66041434 101.06790987 C-26.68066248 90.20770675 -26.6858208 79.34757742 -26.67664371 68.48735914 C-26.6720882 62.60287585 -26.67405792 56.7185829 -26.69340515 50.83412552 C-26.71096011 45.44837009 -26.71010148 40.06294496 -26.69450786 34.67718639 C-26.69212012 32.7276137 -26.69651539 30.7780186 -26.70833651 28.82848028 C-26.72340583 26.17940151 -26.71381755 23.53150058 -26.69810963 20.88245106 C-26.70833183 20.12461282 -26.71855404 19.36677459 -26.72908601 18.58597156 C-26.65811646 13.10631105 -25.2191972 8.90891288 -22.203125 4.31640625 C-16.17483594 -1.41781993 -7.94345414 -2.46472425 0 0 Z " fill="#FE5263" transform="translate(264.203125,0.68359375)"/>
<path d="M0 0 C5.19764827 2.72311573 7.98011524 6.86612696 9.796875 12.31640625 C9.89512695 14.97073824 9.9362137 17.59877503 9.93109608 20.25324535 C9.93344831 21.07485973 9.93580054 21.8964741 9.93822405 22.74298587 C9.94492678 25.51992907 9.94445544 28.29682562 9.94404602 31.07377625 C9.94734385 33.07531758 9.95106924 35.07685824 9.9551875 37.07839805 C9.96522478 42.59734096 9.96892706 48.116273 9.97157681 53.63522375 C9.97547473 59.58016955 9.98505338 65.5251067 9.99378967 71.470047 C10.01263315 85.15687191 10.02281213 98.84369838 10.03125035 112.53053271 C10.03545576 119.29273773 10.04067789 126.05494187 10.04593488 132.81714615 C10.06382562 155.96072777 10.0788221 179.10430964 10.08625507 202.24789715 C10.08672983 203.70107009 10.08720572 205.15424303 10.08768274 206.60741596 C10.08791911 207.32806552 10.08815549 208.04871508 10.08839903 208.79120251 C10.08960024 212.44242603 10.09081568 216.09364954 10.09204102 219.74487305 C10.09240124 220.83177127 10.09240124 220.83177127 10.09276874 221.94062704 C10.10066257 245.43656321 10.12409585 268.93244891 10.15659696 292.42836304 C10.1908888 317.26414154 10.21060561 342.09989051 10.21389931 366.93569309 C10.21431686 369.66171159 10.21479642 372.38773007 10.21532249 375.11374855 C10.21550728 376.12059692 10.21550728 376.12059692 10.2156958 377.14778567 C10.21802862 387.95351781 10.23369312 398.75919137 10.25416434 409.56490263 C10.27441248 420.42510575 10.2795708 431.28523508 10.27039371 442.14545336 C10.2658382 448.02993665 10.26780792 453.9142296 10.28715515 459.79868698 C10.30471011 465.18444241 10.30385148 470.56986754 10.28825786 475.95562611 C10.28587012 477.9051988 10.29026539 479.8547939 10.30208651 481.80433222 C10.31715583 484.45341099 10.30756755 487.10131192 10.29185963 489.75036144 C10.30208183 490.50819968 10.31230404 491.26603791 10.32283601 492.04684094 C10.25186646 497.52650145 8.8129472 501.72389962 5.796875 506.31640625 C0.47954181 511.37435734 -4.09930826 511.67079556 -11.1875 511.59375 C-15.65332562 511.18303288 -17.68112204 510.10465859 -21.203125 507.31640625 C-25.60229241 501.64379564 -26.35081489 497.36573492 -26.33734608 490.37956715 C-26.33969831 489.55795277 -26.34205054 488.7363384 -26.34447405 487.88982663 C-26.35117678 485.11288343 -26.35070544 482.33598688 -26.35029602 479.55903625 C-26.35359385 477.55749492 -26.35731924 475.55595426 -26.3614375 473.55441445 C-26.37147478 468.03547154 -26.37517706 462.5165395 -26.37782681 456.99758875 C-26.38172473 451.05264295 -26.39130338 445.1077058 -26.40003967 439.1627655 C-26.41888315 425.47594059 -26.42906213 411.78911412 -26.43750035 398.10227979 C-26.44170576 391.34007477 -26.44692789 384.57787063 -26.45218488 377.81566635 C-26.47007562 354.67208473 -26.4850721 331.52850286 -26.49250507 308.38491535 C-26.49297983 306.93174241 -26.49345572 305.47856947 -26.49393274 304.02539654 C-26.49416911 303.30474698 -26.49440549 302.58409742 -26.49464903 301.84160999 C-26.49585024 298.19038647 -26.49706568 294.53916296 -26.49829102 290.88793945 C-26.49853117 290.16334064 -26.49877132 289.43874182 -26.49901874 288.69218546 C-26.50691257 265.19624929 -26.53034585 241.70036359 -26.56284696 218.20444946 C-26.5971388 193.36867096 -26.61685561 168.53292199 -26.62014931 143.69711941 C-26.62056686 140.97110091 -26.62104642 138.24508243 -26.62157249 135.51906395 C-26.62169569 134.8478317 -26.62181888 134.17659945 -26.6219458 133.48502683 C-26.62427862 122.67929469 -26.63994312 111.87362113 -26.66041434 101.06790987 C-26.68066248 90.20770675 -26.6858208 79.34757742 -26.67664371 68.48735914 C-26.6720882 62.60287585 -26.67405792 56.7185829 -26.69340515 50.83412552 C-26.71096011 45.44837009 -26.71010148 40.06294496 -26.69450786 34.67718639 C-26.69212012 32.7276137 -26.69651539 30.7780186 -26.70833651 28.82848028 C-26.72340583 26.17940151 -26.71381755 23.53150058 -26.69810963 20.88245106 C-26.70833183 20.12461282 -26.71855404 19.36677459 -26.72908601 18.58597156 C-26.65811646 13.10631105 -25.2191972 8.90891288 -22.203125 4.31640625 C-16.17483594 -1.41781993 -7.94345414 -2.46472425 0 0 Z " fill="#BBC2C6" transform="translate(264.203125,0.68359375)"/>
<path d="M0 0 C2.9375 1.6875 2.9375 1.6875 5 5 C7.56333291 20.5373951 0.65989419 36.85948238 -7.7265625 49.62890625 C-17.01270941 62.15884421 -30.19036398 70.43509799 -45 75 C-45.99 75 -46.98 75 -48 75 C-42.87457059 84.49988014 -37.28740538 91.12798764 -27 95 C-25.42348317 95.36421181 -23.8395549 95.69772399 -22.25 96 C-19.37735132 96.57948258 -17.98266608 97.0117004 -15.5 98.6875 C-13.42023527 101.89380395 -13 104.18495231 -13 108 C-14.76641172 110.80189446 -16.03049822 112.51524911 -19 114 C-30.31457695 115.25717522 -41.23252148 109.65652864 -50 103 C-58.42439436 95.97155538 -63.46926292 87.63353565 -66 77 C-66.57105469 77.04640625 -67.14210938 77.0928125 -67.73046875 77.140625 C-82.95169893 77.81819963 -97.3046944 70.43167406 -108.84375 61.02734375 C-112.09883909 57.96685238 -114.72541834 55.46443552 -115.5625 51 C-114.81714299 47.02476263 -113.02318049 45.58076383 -110 43 C-109.505 42.505 -109.505 42.505 -109 42 C-103.40007834 42.3004836 -100.51572145 43.6913042 -96.25 47.25 C-84.52293092 56.47040807 -72.81308116 60.08388399 -58 59 C-44.57852089 56.97572115 -32.45568796 50.96280629 -23.875 40.37890625 C-16.71987987 30.47485209 -14.06772038 20.33950343 -13.33984375 8.28515625 C-12.84993013 4.99090953 -11.42678843 3.2061713 -9 1 C-5.86128812 -0.56935594 -3.46144178 -0.35201103 0 0 Z " fill="#DF4D60" transform="translate(425,177)"/>
<path d="M0 0 C14.17048995 2.65510233 24.87755672 8.9112982 35 19 C35.7115625 19.68835938 36.423125 20.37671875 37.15625 21.0859375 C47.57721694 31.86763022 53.09391057 46.42408808 53.1875 61.375 C53.0946875 63.169375 53.0946875 63.169375 53 65 C53.66 64.67 54.32 64.34 55 64 C59.59698532 63.57691462 63.70653278 63.46105533 68 65.25 C70.18157687 67.15887976 71.20324163 68.21134569 72 71 C71.84643971 74.68544705 71.44745308 76.4659431 69.0625 79.3125 C65.48457797 82.23989075 62.81534904 82.21771782 58.25 82.625 C46.21337233 84.02000234 34.92906165 89.70223128 27 99 C20.37692318 108.66714481 17.84853947 116.84000359 16.85546875 128.44140625 C15.8286292 132.71287121 14.42516829 134.31349429 11 137 C7.5 137.625 7.5 137.625 4 137 C0.65873656 134.3834065 -0.8281099 132.90535905 -1.62890625 128.6875 C-1.30162229 110.51361441 5.20296776 94.7326762 18.0078125 81.74609375 C29.26776832 71 29.26776832 71 35 71 C34.86668093 60.09207622 34.45088893 50.7459611 29 41 C28.52820313 40.12988281 28.05640625 39.25976562 27.5703125 38.36328125 C21.54486687 28.57567927 12.21392379 22.37958149 1.25 19.5 C-2.9038303 18.53220036 -6.87202364 17.86520132 -11.125 17.625 C-15.69079477 16.88858149 -15.69079477 16.88858149 -18.125 14.375 C-20 11 -20 11 -20.0625 7.375 C-17.01659251 -2.30023557 -8.48040729 -0.95409701 0 0 Z " fill="#DF4D60" transform="translate(340,311)"/>
<path d="M0 0 C4.88006234 2.62528299 8.1174457 6.04374335 9.86328125 11.28125 C10.52760219 18.73035692 10.46673698 24.23099389 5.86328125 30.28125 C4.87328125 30.94125 3.88328125 31.60125 2.86328125 32.28125 C2.42465807 35.48929158 2.42465807 35.48929158 2.42578125 39.21875 C2.04510316 48.53364144 0.12524162 56.90071571 -6.421875 63.84765625 C-12.2347492 68.70716611 -18.54611532 70.40795903 -25.99487305 70.39477539 C-26.68781464 70.39492142 -27.38075623 70.39506744 -28.09469604 70.3952179 C-30.38347512 70.39452163 -32.67217265 70.3867426 -34.9609375 70.37890625 C-36.54848689 70.37704106 -38.13603686 70.37561763 -39.72358704 70.37461853 C-43.90094595 70.37080134 -48.07827006 70.36097786 -52.25561523 70.34991455 C-56.51871266 70.33968328 -60.78181571 70.33511723 -65.04492188 70.33007812 C-73.40887191 70.31935489 -81.77278699 70.30176453 -90.13671875 70.28125 C-90.79671875 64.34125 -91.45671875 58.40125 -92.13671875 52.28125 C-90.10298096 52.26666748 -88.06924316 52.25208496 -85.97387695 52.23706055 C-79.24825965 52.1866838 -72.52287313 52.12008336 -65.79748249 52.04553509 C-61.72055863 52.00084101 -57.64373448 51.96158293 -53.56665039 51.93481445 C-49.63072016 51.90877161 -45.6951738 51.86836271 -41.75948143 51.81806374 C-40.25926685 51.80140157 -38.75898589 51.78988322 -37.25869179 51.78363609 C-35.15423129 51.77398751 -33.05075137 51.74592174 -30.9465332 51.71362305 C-29.74962357 51.70251999 -28.55271393 51.69141693 -27.3195343 51.67997742 C-23.8358285 51.24355595 -21.9313396 50.37108432 -19.13671875 48.28125 C-17.65593395 45.3196804 -17.78357838 42.44618705 -17.57421875 39.15625 C-17.44853516 37.23425781 -17.44853516 37.23425781 -17.3203125 35.2734375 C-17.25972656 34.28601563 -17.19914062 33.29859375 -17.13671875 32.28125 C-17.75160156 32.01054688 -18.36648438 31.73984375 -19 31.4609375 C-22.57861499 29.48517566 -24.43373261 26.09729754 -25.88671875 22.34375 C-26.70739783 15.57314756 -25.98946064 10.90130469 -22.13671875 5.28125 C-16.25893427 -0.93416179 -8.19099395 -2.75528864 0 0 Z " fill="#3B97D2" transform="translate(502.13671875,44.71875)"/>
<path d="M0 0 C4.84623141 2.59657084 8.07147606 6.08942819 9.80078125 11.27734375 C10.31326747 17.55529998 10.46752636 22.90818127 6.80078125 28.27734375 C6.11757813 28.78136719 5.434375 29.28539063 4.73046875 29.8046875 C1.71448324 33.66930051 2.20243653 37.63104806 2.17578125 42.40234375 C1.99864537 54.76642789 1.15717245 63.64260262 -7.64453125 72.77734375 C-14.08246452 78.68757757 -21.32900161 79.7440712 -29.66796875 79.74609375 C-30.54771362 79.75370728 -31.4274585 79.7613208 -32.3338623 79.76916504 C-34.18266988 79.77990772 -36.03153784 79.78284306 -37.88037109 79.77832031 C-40.69211692 79.77734621 -43.50114584 79.81906984 -46.3125 79.86328125 C-48.11848395 79.86848812 -49.92447729 79.87117645 -51.73046875 79.87109375 C-52.56090698 79.88748901 -53.39134521 79.90388428 -54.24694824 79.92077637 C-60.50950804 79.84742049 -64.19720671 77.91951178 -69.19921875 74.27734375 C-70.62819279 73.49081754 -72.06398179 72.71627436 -73.51171875 71.96484375 C-79.07909793 68.91835829 -84.24619621 65.23976178 -89.19921875 61.27734375 C-89.19921875 60.94734375 -89.19921875 60.61734375 -89.19921875 60.27734375 C-87.95013985 60.26188255 -87.95013985 60.26188255 -86.67582703 60.24610901 C-78.83298666 60.14818175 -70.99022248 60.04567405 -63.14750957 59.93800449 C-59.11537591 59.88281094 -55.08323494 59.82939663 -51.05102539 59.7800293 C-47.16063427 59.73233313 -43.27033106 59.6799884 -39.38004494 59.624403 C-37.89489744 59.60400325 -36.40972586 59.58528624 -34.92453575 59.56826973 C-32.84633037 59.54417296 -30.76829067 59.51412579 -28.69018555 59.48266602 C-27.50659958 59.46712173 -26.32301361 59.45157745 -25.1035614 59.43556213 C-22.13285059 59.40197389 -22.13285059 59.40197389 -19.19921875 58.27734375 C-17.40898656 53.61465598 -17.89414842 48.19784992 -17.82421875 43.27734375 C-17.78683594 42.27960937 -17.74945313 41.281875 -17.7109375 40.25390625 C-17.47685629 34.42100555 -17.47685629 34.42100555 -20.609375 29.7890625 C-21.46402344 29.29019531 -22.31867188 28.79132812 -23.19921875 28.27734375 C-26.21090667 22.98092705 -26.9952458 18.24209435 -26.19921875 12.27734375 C-24.29104266 7.05496709 -21.16038518 3.11841679 -16.40234375 0.16015625 C-11.43881398 -1.82877589 -5.05046698 -1.6595673 0 0 Z " fill="#3B96D2" transform="translate(458.19921875,0.72265625)"/>
<path d="M0 0 C5.97734898 -0.07448767 11.95442418 -0.1287615 17.93212891 -0.16479492 C19.9631013 -0.17982599 21.99404154 -0.20025647 24.02490234 -0.22631836 C26.95418259 -0.26295232 29.88303144 -0.27978351 32.8125 -0.29296875 C33.71178223 -0.30845261 34.61106445 -0.32393646 35.53759766 -0.33988953 C43.64272891 -0.34202435 50.30015522 1.55666346 56.39453125 7.12109375 C63.42521515 15.34921773 64.12228975 24.00728911 64.328125 34.37109375 C65.14828137 38.80089182 66.684248 40.07108573 70 43 C73.16579771 47.78706988 72.58484292 53.49092409 72 59 C70.38946426 63.90125201 67.25716184 67.16189211 63 70 C57.36316637 71.87894454 51.24162826 71.74720942 45.625 69.875 C41.00394519 66.57424656 37.4868568 62.5419208 36 57 C35.37333235 50.23198936 37.19420287 45.57189288 41.0625 40.0625 C42.0215625 39.0415625 42.0215625 39.0415625 43 38 C43.66 38 44.32 38 45 38 C44.93981983 35.74926172 44.85098794 33.49927675 44.75 31.25 C44.70359375 29.99703125 44.6571875 28.7440625 44.609375 27.453125 C43.92210642 23.55860305 43.07637286 22.38245417 40 20 C36.56623732 18.28311866 32.61885635 18.75490998 28.8359375 18.68359375 C27.92872955 18.66281265 27.02152161 18.64203156 26.08682251 18.62062073 C23.1829602 18.55512865 20.27900595 18.49624186 17.375 18.4375 C15.40884458 18.39431445 13.44269853 18.35070015 11.4765625 18.30664062 C6.65113638 18.19944761 1.8256176 18.09817919 -3 18 C-2.86722656 17.28714844 -2.73445313 16.57429688 -2.59765625 15.83984375 C-2.42105469 14.88207031 -2.24445313 13.92429687 -2.0625 12.9375 C-1.88847656 11.99777344 -1.71445312 11.05804688 -1.53515625 10.08984375 C-0.95407079 6.73481749 -0.46736138 3.37258073 0 0 Z " fill="#3B97D2" transform="translate(440,397)"/>
<path d="M0 0 C8.01109714 0.16310018 14.43744252 2.11605601 20.375 7.625 C26.82183904 14.74085064 28.48841841 21.91453161 28.60546875 31.40625 C28.62029297 32.29957031 28.63511719 33.19289063 28.65039062 34.11328125 C28.67512807 35.95426826 28.68033817 37.79562126 28.66601562 39.63671875 C28.80804925 45.60213101 29.7858287 48.73074511 34.1184082 52.91992188 C37.37867292 56.3535988 36.82813538 61.14550256 36.78125 65.58203125 C36.2410006 70.94700789 33.88869356 74.08791816 29.9375 77.75 C24.59429301 81.31213799 18.70548969 80.94571213 12.5 80.375 C7.11833564 78.70515734 4.18406983 75.22697239 1.5 70.375 C-0.37466691 64.75099927 -0.29517595 59.39976544 2.25 54 C3.48317159 51.6217405 4.26420309 50.52407346 6.55249023 49.07739258 C8.70773045 47.54022467 8.70773045 47.54022467 8.9699707 45.07836914 C8.95538818 44.19785889 8.94080566 43.31734863 8.92578125 42.41015625 C8.91740234 41.44529297 8.90902344 40.48042969 8.90039062 39.48632812 C8.87138672 38.48021484 8.84238281 37.47410156 8.8125 36.4375 C8.80283203 35.43525391 8.79316406 34.43300781 8.78320312 33.40039062 C8.84768644 27.2772004 8.84768644 27.2772004 7.5 21.375 C4.66037579 20.4284586 2.79593471 20.22505776 -0.1550293 20.16967773 C-1.09577805 20.14973251 -2.03652679 20.12978729 -3.00578308 20.10923767 C-4.01836685 20.09252518 -5.03095062 20.07581268 -6.07421875 20.05859375 C-7.11318802 20.03781265 -8.15215729 20.01703156 -9.22261047 19.99562073 C-12.54417253 19.93019344 -15.86581416 19.87127179 -19.1875 19.8125 C-21.4381593 19.76930831 -23.68881052 19.72569381 -25.93945312 19.68164062 C-31.4595511 19.57451902 -36.97972837 19.47273984 -42.5 19.375 C-42.5 18.385 -42.5 17.395 -42.5 16.375 C-41.62859375 16.28863281 -40.7571875 16.20226562 -39.859375 16.11328125 C-25.26595504 14.39176309 -12.22680939 0.15756198 0 0 Z " fill="#3C96D1" transform="translate(431.5,431.625)"/>
<path d="M0 0 C0.91963531 -0.0071553 1.83927063 -0.01431061 2.78677368 -0.02168274 C3.7987381 -0.02437164 4.81070251 -0.02706055 5.85333252 -0.02983093 C7.44865311 -0.03968773 7.44865311 -0.03968773 9.07620239 -0.04974365 C12.60770736 -0.06950877 16.13916974 -0.08114654 19.67071533 -0.09111023 C21.47710354 -0.09722352 21.47710354 -0.09722352 23.31998444 -0.10346031 C29.69405446 -0.12433494 36.06810287 -0.13863054 42.44219971 -0.147995 C49.03095853 -0.1590612 55.6193798 -0.19346002 62.20801926 -0.23316669 C67.26949701 -0.25929503 72.3308939 -0.2676835 77.39243317 -0.27127647 C79.82132496 -0.27615234 82.25021292 -0.28779457 84.679039 -0.30631447 C88.07855568 -0.33062411 91.47719329 -0.32975535 94.87677002 -0.32279968 C95.88063751 -0.33560974 96.884505 -0.3484198 97.91879272 -0.36161804 C103.78854502 -0.31783477 107.15428385 0.22944861 111.62384033 4.14717102 C113.05046252 7.00041539 112.93417901 8.98171651 112.62384033 12.14717102 C110.47293582 15.48478147 109.41971234 16.88188035 105.62384033 18.14717102 C104.11246055 18.24429293 102.59720916 18.28634483 101.08273315 18.29434204 C99.68642921 18.305075 99.68642921 18.305075 98.26191711 18.31602478 C97.24262619 18.31871368 96.22333527 18.32140259 95.17315674 18.32417297 C94.09810379 18.33074417 93.02305084 18.33731537 91.91542053 18.34408569 C88.35208062 18.36382323 84.78878282 18.37548098 81.22540283 18.38545227 C79.40196917 18.39156556 79.40196917 18.39156556 77.54169846 18.39780235 C71.11042195 18.41866279 64.6791668 18.43296592 58.24786377 18.44233704 C51.59735253 18.45341495 44.94727725 18.48783091 38.29686928 18.52750874 C33.18911098 18.55361749 28.0814329 18.56202367 22.97361374 18.56561852 C20.52156695 18.57049755 18.06952406 18.58214871 15.61754227 18.60065651 C12.18919446 18.62493006 8.7617199 18.62410434 5.33331299 18.61714172 C4.31807053 18.62995178 3.30282806 18.64276184 2.25682068 18.65596008 C-2.14871531 18.6232949 -4.66249347 18.5846206 -8.48300171 16.24279785 C-10.73650286 13.74828996 -11.30604954 12.67299696 -11.75115967 9.33467102 C-11.25377212 5.10687688 -9.5823489 3.81899538 -6.37615967 1.14717102 C-4.02611967 -0.02784898 -2.62018093 0.0139697 0 0 Z " fill="#64D9B6" transform="translate(99.37615966796875,237.8528289794922)"/>
<path d="M0 0 C1.08509857 -0.00700928 2.17019714 -0.01401855 3.28817749 -0.02124023 C6.87336857 -0.03883875 10.4577697 -0.02719014 14.04296875 -0.01367188 C16.53491365 -0.01636623 19.02685753 -0.02024819 21.51879883 -0.02526855 C27.4095438 -0.03192138 33.3000023 -0.01792688 39.1907053 0.00333452 C43.88604185 0.0183531 48.58104308 0.01304065 53.27636719 -0.00390625 C59.75314052 -0.02708169 66.22958973 -0.03073337 72.70639038 -0.01768494 C75.1751615 -0.01501563 77.64394641 -0.01829452 80.11270142 -0.02760315 C83.56248603 -0.03775602 87.01123041 -0.02228365 90.4609375 0 C91.48238861 -0.00809692 92.50383972 -0.01619385 93.5562439 -0.02453613 C97.91018052 0.02759511 100.52571743 0.1057956 104.34106445 2.33508301 C106.97926046 5.38252495 107.23046875 7.52412986 107.23046875 11.51757812 C106.006923 14.41544964 105.09440487 15.98698239 102.40614986 17.63800335 C99.97329677 18.62154648 98.22490487 18.7715653 95.60707092 18.77827454 C94.68324112 18.78535934 93.75941132 18.79244415 92.80758667 18.79974365 C91.80124176 18.79726624 90.79489685 18.79478882 89.75805664 18.79223633 C88.15988853 18.79990273 88.15988853 18.79990273 86.5294342 18.807724 C83.00394082 18.82163558 79.47864258 18.82066206 75.953125 18.81835938 C73.50459215 18.82224535 71.05605998 18.82657982 68.60752869 18.8313446 C63.47376318 18.83881013 58.34006644 18.83851303 53.20629883 18.83325195 C46.62426799 18.82745603 40.04251842 18.84438996 33.4605341 18.86759663 C28.40337984 18.88232093 23.34629352 18.88320744 18.28912163 18.8800869 C15.86221192 18.88060074 13.43529846 18.88585011 11.0084095 18.89589882 C7.61617827 18.90822071 4.22449766 18.90149668 0.83227539 18.88989258 C-0.67420563 18.90135818 -0.67420563 18.90135818 -2.21112061 18.91305542 C-7.19680948 18.87531604 -10.75208012 18.83064383 -14.76953125 15.51757812 C-16.85560051 12.86258089 -16.7683258 11.45007308 -16.70703125 8.01757812 C-14.39595126 -0.61045383 -7.56294471 -0.05995058 0 0 Z " fill="#64D9B6" transform="translate(104.76953125,308.482421875)"/>
<path d="M0 0 C0.33 0 0.66 0 1 0 C1.33 35.97 1.66 71.94 2 109 C5.63 107.68 9.26 106.36 13 105 C18.04880916 104.40987945 21.32963422 104.08248737 25.5625 107 C28.25700024 110.31630798 28.93252579 111.89698542 28.5703125 116.0703125 C27.76852113 118.78322302 26.25751683 120.42384463 23.9765625 122.05078125 C20.90357189 123.52654552 17.74121062 123.94007783 14.3984375 124.4921875 C9.34083368 125.56301567 6.68844887 127.97516876 3.86600113 132.1766901 C1.77673098 135.9806406 1.50644808 139.1205454 1.51898193 143.48545837 C1.51556423 144.20606101 1.51214653 144.92666365 1.50862527 145.66910273 C1.50207469 148.06619294 1.52397395 150.4621451 1.54589844 152.85913086 C1.54702753 154.58427911 1.54639184 156.30942928 1.54412842 158.03457642 C1.54298277 162.70566993 1.56646795 167.37635092 1.59442425 172.04734874 C1.61946272 176.9333643 1.62178183 181.81938977 1.62652588 186.70545959 C1.63894846 195.95242654 1.6717604 205.19920389 1.71192384 214.44608742 C1.75666385 224.97564777 1.7786342 235.50521727 1.79870558 246.03484905 C1.84049362 267.69000511 1.91083177 289.3449906 2 311 C2.47009995 310.52088165 2.94019989 310.04176331 3.42454529 309.54812622 C4.04684525 308.91881195 4.6691452 308.28949768 5.31030273 307.64111328 C5.92477768 307.01761993 6.53925262 306.39412659 7.17234802 305.7517395 C15.13820054 298.11675281 25.63735475 294.14797437 36 291 C36.639375 290.79890625 37.27875 290.5978125 37.9375 290.390625 C41.10597816 289.79053444 44.21626349 289.74815758 47.4375 289.6875 C48.73558594 289.65011719 50.03367187 289.61273438 51.37109375 289.57421875 C55.54679295 290.06415547 57.12082301 290.99214471 60 294 C61.125 297.375 61.125 297.375 61 301 C59.06183275 304.52967044 56.87998682 306.70667106 53 308 C51.20268028 308.18962547 49.40502699 308.37689398 47.60546875 308.54394531 C35.97705677 309.68197636 26.94664154 313.35329783 18 321 C17.41734375 321.45375 16.8346875 321.9075 16.234375 322.375 C8.3154277 329.22381928 2.52334732 341.56476624 1.68359375 351.890625 C1.59774032 353.34352919 1.51581549 354.79667 1.4375 356.25 C1.39431641 356.99507813 1.35113281 357.74015625 1.30664062 358.5078125 C1.20103275 360.338349 1.10005799 362.16915176 1 364 C0.67 364 0.34 364 0 364 C0 243.88 0 123.76 0 0 Z " fill="#DF4D60" transform="translate(273,67)"/>
<path d="M0 0 C1.65668953 -0.01292336 1.65668953 -0.01292336 3.34684753 -0.02610779 C7.00238394 -0.04883405 10.65715785 -0.04201601 14.31274414 -0.03295898 C16.85095956 -0.03819175 19.38917303 -0.04446694 21.92738342 -0.05174255 C27.24954381 -0.06215927 32.57142674 -0.05789572 37.89355469 -0.04296875 C44.04110017 -0.0260494 50.18793548 -0.04187884 56.33540338 -0.07419163 C62.25465651 -0.10412344 68.17368899 -0.1060689 74.09301949 -0.09669304 C76.6092477 -0.09587205 79.12549055 -0.10276345 81.64167595 -0.11746407 C85.15878091 -0.13486062 88.67436291 -0.12040552 92.19140625 -0.09765625 C93.23312988 -0.10934845 94.27485352 -0.12104065 95.34814453 -0.13308716 C100.1061392 -0.07039103 102.40926168 -0.02731735 106.31080627 2.88539124 C108.16040039 5.53344727 108.16040039 5.53344727 108.72290039 8.53344727 C108.03682382 12.19252231 106.73305725 13.88512402 104.16040039 16.53344727 C101.78451959 17.72138767 100.31556531 17.67198848 97.66362 17.69407654 C96.71729706 17.70412216 95.77097412 17.71416779 94.79597473 17.72451782 C93.75438705 17.73034882 92.71279938 17.73617981 91.63964844 17.7421875 C90.54523438 17.75197128 89.45082031 17.76175507 88.32324219 17.77183533 C84.68954698 17.8018316 81.05588863 17.82318504 77.42211914 17.84204102 C76.1835145 17.84861284 74.94490986 17.85518467 73.66877174 17.86195564 C68.4642227 17.88784967 63.25967912 17.91133935 58.05508709 17.92645168 C50.59736735 17.94836054 43.14036738 17.99033584 35.68293542 18.05988926 C29.80644627 18.11283591 23.93018102 18.13293416 18.05347633 18.14164925 C15.55394719 18.1502276 13.05443169 18.16910362 10.55505943 18.19839287 C7.05924401 18.23715732 3.56531398 18.23836075 0.06933594 18.23046875 C-0.96617905 18.25046936 -2.00169403 18.27046997 -3.06858826 18.29107666 C-9.86296793 18.22209873 -9.86296793 18.22209873 -12.61952782 16.278368 C-15.17448526 13.42377672 -15.83579506 11.75411126 -15.90209961 7.90844727 C-13.22226274 -0.60397573 -7.87125643 -0.04921386 0 0 Z " fill="#64DCB8" transform="translate(103.839599609375,379.466552734375)"/>
<path d="M0 0 C1.10445969 -0.01022186 2.20891937 -0.02044373 3.34684753 -0.03097534 C7.00236611 -0.05880457 10.65713215 -0.05685139 14.31274414 -0.05224609 C16.8509601 -0.06001778 19.38917346 -0.06868665 21.92738342 -0.07821655 C27.24953715 -0.09314885 32.571414 -0.09282899 37.89355469 -0.08203125 C44.04119475 -0.06995029 50.18791949 -0.09457683 56.33540338 -0.13717139 C62.25465662 -0.17667302 68.17362657 -0.18274857 74.09301949 -0.17570114 C76.60926018 -0.17672897 79.12551528 -0.18723081 81.64167595 -0.20732498 C85.15897256 -0.23196673 88.67414434 -0.21852748 92.19140625 -0.1953125 C93.7539917 -0.21824371 93.7539917 -0.21824371 95.34814453 -0.24163818 C102.18051963 -0.14182749 102.18051963 -0.14182749 104.94397163 1.80733109 C107.49798898 4.66071939 108.15662283 6.33021766 108.22290039 10.17431641 C107.00435764 14.0449816 106.47501421 15.23461306 103.16040039 17.54931641 C99.55393051 18.16857361 95.9726374 18.11596865 92.32080078 18.09863281 C91.21634109 18.10885468 90.11188141 18.11907654 88.97395325 18.12960815 C85.31843467 18.15743739 81.66366863 18.15548421 78.00805664 18.15087891 C75.46984068 18.15865059 72.93162732 18.16731947 70.39341736 18.17684937 C65.07126363 18.19178166 59.74938678 18.19146181 54.42724609 18.18066406 C48.27960603 18.16858311 42.13288129 18.19320964 35.9853974 18.2358042 C30.06614416 18.27530584 24.14717421 18.28138138 18.2277813 18.27433395 C15.7115406 18.27536178 13.1952855 18.28586363 10.67912483 18.30595779 C7.16182822 18.33059954 3.64665644 18.31716029 0.12939453 18.29394531 C-1.43319092 18.31687653 -1.43319092 18.31687653 -3.02734375 18.340271 C-9.85971885 18.2404603 -9.85971885 18.2404603 -12.62317085 16.29130173 C-15.17718819 13.43791342 -15.83582204 11.76841516 -15.90209961 7.92431641 C-13.22352095 -0.58410991 -7.86931726 -0.03735688 0 0 Z " fill="#64DCB8" transform="translate(103.839599609375,167.45068359375)"/>
<path d="M0 0 C-0.33473248 6.91780464 -1.17994538 13.69196464 -6 19 C-9.14226124 20.19388174 -12.14197112 20.71076081 -15.45703125 21.25390625 C-27.4688561 23.78340851 -38.34196998 32.46764768 -45.3125 42.375 C-46.23561538 43.90048729 -47.13164914 45.44268813 -48 47 C-48.45117188 47.76183594 -48.90234375 48.52367187 -49.3671875 49.30859375 C-53.04778657 56.28866478 -54.03628561 63.33701592 -54.83666992 71.0949707 C-55.57152738 77.44715958 -55.57152738 77.44715958 -57.96484375 80.53515625 C-61.46374885 83.05356203 -63.67037013 83.50936822 -68 83 C-71.52745321 80.2937255 -72.86195197 78.83737031 -73.59375 74.3984375 C-73.59325068 73.05692773 -73.56064048 71.71513859 -73.5 70.375 C-73.48155029 69.66569336 -73.46310059 68.95638672 -73.4440918 68.22558594 C-73.19491374 62.16568531 -72.09009013 56.70332286 -70 51 C-69.67128906 50.04867187 -69.34257812 49.09734375 -69.00390625 48.1171875 C-61.47533438 28.16256449 -46.30385335 13.84028846 -27.125 5.125 C-18.76158452 1.8719353 -8.99837603 -0.32942032 0 0 Z " fill="#DF4D60" transform="translate(412,116)"/>
<path d="M0 0 C3.22382517 1.7237007 6.01179393 3.92565882 8.875 6.1875 C10.10488647 7.12795166 10.10488647 7.12795166 11.35961914 8.08740234 C13.06524279 9.39392807 14.76548194 10.70751108 16.46044922 12.02783203 C18.91706092 13.93559105 21.39299159 15.8142384 23.87890625 17.68359375 C39.81500968 29.70506779 39.81500968 29.70506779 40.5625 34.9375 C40.67109619 38.15066955 40.01949817 38.97778198 37.84375 41.45703125 C34.96245748 44.03357167 32.01722974 46.41444287 28.9375 48.75 C28.37313232 49.17901611 27.80876465 49.60803223 27.22729492 50.05004883 C25.48768012 51.37046765 23.74396826 52.68533909 22 54 C20.95585938 54.79277344 19.91171875 55.58554688 18.8359375 56.40234375 C16.84712509 57.90551592 14.85118108 59.39930663 12.84765625 60.8828125 C10.98259425 62.26945668 9.13521369 63.68028183 7.30859375 65.1171875 C0.32428896 70.42739176 0.32428896 70.42739176 -4.375 70.6875 C-8 70 -8 70 -10.5 68.5625 C-12.80856919 64.61869429 -13.10845822 61.42486478 -12 57 C-10.52832031 55.26806641 -10.52832031 55.26806641 -8.578125 53.6640625 C-7.85399414 53.06650146 -7.12986328 52.46894043 -6.38378906 51.85327148 C-1.47413833 48.03627448 3.57112044 44.41650241 8.63671875 40.81054688 C9.45785156 40.21693359 10.27898438 39.62332031 11.125 39.01171875 C11.87007812 38.48022217 12.61515625 37.94872559 13.3828125 37.40112305 C14.18332031 36.70756714 14.18332031 36.70756714 15 36 C15 35.34 15 34.68 15 34 C13.32378532 32.50330155 13.32378532 32.50330155 11.125 30.98828125 C9.89330078 30.09786133 9.89330078 30.09786133 8.63671875 29.18945312 C7.76660156 28.57005859 6.89648438 27.95066406 6 27.3125 C1.04792949 23.77150335 -3.87840404 20.21399759 -8.57421875 16.3359375 C-9.21705811 15.80661621 -9.85989746 15.27729492 -10.5222168 14.73193359 C-12.35280156 12.58652333 -12.59517748 11.09446669 -12.8125 8.3125 C-12.4878603 5.03251958 -12.07502299 4.09321038 -9.9375 1.4375 C-6.15184967 -0.41505229 -4.20640796 -0.51784235 0 0 Z " fill="#64DAB7" transform="translate(39,62)"/>
<path d="M0 0 C0.73250977 -0.0087616 1.46501953 -0.01752319 2.21972656 -0.02655029 C4.62626464 -0.04844682 7.03094528 -0.03402837 9.4375 -0.01708984 C11.11849315 -0.02046083 12.79948391 -0.02531581 14.48046875 -0.03158569 C17.99763269 -0.03894374 21.51416024 -0.02828659 25.03125 -0.00488281 C29.53070737 0.02360507 34.02867347 0.00719526 38.52807617 -0.02274513 C41.99750932 -0.04084744 45.4665912 -0.03504681 48.93603516 -0.02210617 C50.59456562 -0.01878023 52.25312838 -0.02283064 53.91162109 -0.03450394 C56.23360159 -0.04726211 58.55319641 -0.02777124 60.875 0 C62.19371094 0.00397797 63.51242188 0.00795593 64.87109375 0.01205444 C69.55741776 0.84634876 71.16629976 2.23313196 74.4375 5.64697266 C75.20902986 9.96753987 74.96497866 11.83817205 72.5625 15.52197266 C69.00681679 19.07765586 66.09552705 18.8054885 61.31323242 18.82397461 C60.57970047 18.83054581 59.84616852 18.837117 59.09040833 18.84388733 C56.65792747 18.86363082 54.22550838 18.87528532 51.79296875 18.88525391 C50.54736899 18.8913672 50.54736899 18.8913672 49.27660561 18.89760399 C44.88126498 18.91846941 40.48595562 18.93276895 36.09057617 18.94213867 C31.55084334 18.95320302 27.01160068 18.98760153 22.47204113 19.02731037 C18.98129872 19.05345771 15.49067342 19.06182882 11.99984169 19.06542015 C10.32649742 19.07029116 8.65315856 19.08191986 6.9799099 19.10045815 C4.63619552 19.12481009 2.29375337 19.12389238 -0.05004883 19.11694336 C-1.08435532 19.13615845 -1.08435532 19.13615845 -2.13955688 19.15576172 C-6.86883789 19.10472618 -9.23723209 17.97645882 -12.5625 14.64697266 C-14.15189347 11.46818571 -13.97826711 9.15129545 -13.5625 5.64697266 C-9.18526939 1.0378396 -6.49695116 0.01959842 0 0 Z " fill="#64D9B6" transform="translate(119.5625,202.35302734375)"/>
<path d="M0 0 C1.11799484 -0.00591408 1.11799484 -0.00591408 2.25857544 -0.01194763 C4.71270818 -0.0186395 7.16496404 0.01046138 9.61889648 0.04077148 C11.32852315 0.04502365 13.03815559 0.04735039 14.74778748 0.0478363 C18.32642886 0.05399578 21.90444288 0.07666768 25.48291016 0.11230469 C30.06851669 0.15761097 34.65355589 0.17233285 39.23936558 0.1760416 C42.76785367 0.18047141 46.29622288 0.19577686 49.82465935 0.21491814 C51.51553305 0.22379263 53.20641939 0.23052637 54.89731026 0.23507881 C57.25988172 0.24412832 59.62194223 0.26652397 61.984375 0.29296875 C62.68214554 0.29363342 63.37991608 0.2942981 64.09883118 0.29498291 C67.6840459 0.35032961 70.45062615 0.5039268 73.42749023 2.59936523 C75.92780678 6.34984005 75.96352578 8.15792789 75.42749023 12.59936523 C72.98999023 15.47436523 72.98999023 15.47436523 70.42749023 17.59936523 C69.93249023 18.09436523 69.93249023 18.09436523 69.42749023 18.59936523 C67.08132591 18.71555075 64.76417522 18.76733979 62.41674805 18.77636719 C61.31666916 18.78622398 61.31666916 18.78622398 60.19436646 18.79627991 C57.75644845 18.81606185 55.31859224 18.82768764 52.88061523 18.83764648 C52.04929832 18.84172201 51.21798141 18.84579754 50.36147308 18.84999657 C45.95965318 18.87088039 41.55786464 18.8851708 37.15600586 18.89453125 C32.60839719 18.90558735 28.06127897 18.93997106 23.51384354 18.97970295 C20.01880993 19.00585328 16.52389328 19.01422177 13.02877045 19.01781273 C11.35263515 19.02268455 9.67650528 19.03431554 8.00046539 19.05285072 C5.65185315 19.0772045 3.30451045 19.07628438 0.95581055 19.06933594 C-0.08085251 19.08855103 -0.08085251 19.08855103 -1.13845825 19.1081543 C-5.86794225 19.05723094 -8.25921428 17.94833528 -11.57250977 14.59936523 C-12.45532227 12.41577148 -12.45532227 12.41577148 -12.69750977 10.16186523 C-12.80321289 9.4206543 -12.90891602 8.67944336 -13.01782227 7.91577148 C-11.70759139 1.10027226 -6.01808674 -0.12831407 0 0 Z " fill="#64D9B6" transform="translate(118.572509765625,414.400634765625)"/>
<path d="M0 0 C0.73192566 -0.00817749 1.46385132 -0.01635498 2.21795654 -0.02478027 C4.64562155 -0.04963724 7.073228 -0.06615234 9.50097656 -0.08056641 C10.33012825 -0.08589008 11.15927994 -0.09121376 12.01355743 -0.09669876 C16.40356014 -0.12343364 20.79353439 -0.14280608 25.18359375 -0.15722656 C29.71437374 -0.17386147 34.24442449 -0.2186279 38.77492905 -0.26959801 C42.26142189 -0.30328642 45.74774212 -0.31480577 49.23438263 -0.32045364 C50.90413221 -0.32716342 52.57387054 -0.34237853 54.24346161 -0.36634445 C56.58478304 -0.39803077 58.9241447 -0.39802849 61.265625 -0.390625 C61.95156738 -0.40703033 62.63750977 -0.42343567 63.34423828 -0.44033813 C67.06820496 -0.39229821 69.44002352 0.26036437 72.3291626 2.5105896 C74.89160156 5.19287109 74.89160156 5.19287109 75.51660156 8.69287109 C74.80723478 12.6653251 73.71928449 14.36518817 70.89160156 17.19287109 C67.95558974 18.66087701 64.98695322 18.35742751 61.76733398 18.36987305 C61.03380203 18.37644424 60.30027008 18.38301544 59.54450989 18.38978577 C57.11202903 18.40952926 54.67960995 18.42118376 52.24707031 18.43115234 C51.00147056 18.43726563 51.00147056 18.43726563 49.73070717 18.44350243 C45.33536655 18.46436785 40.94005719 18.47866739 36.54467773 18.48803711 C32.0049449 18.49910146 27.46570224 18.53349997 22.92614269 18.57320881 C19.43540028 18.59935615 15.94477498 18.60772726 12.45394325 18.61131859 C10.78059899 18.6161896 9.10726012 18.62781829 7.43401146 18.64635658 C5.09029708 18.67070853 2.74785493 18.66979082 0.40405273 18.6628418 C-0.63025375 18.68205688 -0.63025375 18.68205688 -1.68545532 18.70166016 C-6.41473633 18.65062462 -8.78313052 17.52235726 -12.10839844 14.19287109 C-13.53502062 11.33962672 -13.41873711 9.3583256 -13.10839844 6.19287109 C-9.26748905 0.43150701 -6.56879454 0.04031865 0 0 Z " fill="#64DAB7" transform="translate(119.1083984375,343.80712890625)"/>
<path d="M0 0 C1.13021576 -0.0131424 1.13021576 -0.0131424 2.28326416 -0.02655029 C4.76495569 -0.04849233 7.24485402 -0.03401173 9.7265625 -0.01708984 C11.45622091 -0.02045951 13.18587702 -0.02531339 14.91552734 -0.03158569 C18.53701364 -0.03894992 22.15788247 -0.02826648 25.77929688 -0.00488281 C30.41674955 0.02360527 35.05275542 0.0071988 39.69015503 -0.02274513 C43.2607713 -0.0408306 46.83104568 -0.03505448 50.40167236 -0.02210617 C52.11126884 -0.01877558 53.82089656 -0.02284706 55.53045654 -0.03450394 C57.92217977 -0.04723405 60.31157482 -0.02780947 62.703125 0 C63.406651 -0.01012115 64.110177 -0.02024231 64.83502197 -0.03067017 C68.64132312 0.05114304 70.26729848 0.58040685 73.29052734 2.96865845 C75.3515625 5.64697266 75.3515625 5.64697266 75.9765625 9.14697266 C75.17816697 13.61798762 73.89052887 14.85344239 70.3515625 17.64697266 C67.58829062 18.1379467 65.44218706 18.32375954 62.68725586 18.27807617 C61.93217239 18.28523148 61.17708893 18.29238678 60.39912415 18.29975891 C57.91259569 18.3166163 55.42787766 18.29726461 52.94140625 18.27587891 C51.20935416 18.2767078 49.47730214 18.27916796 47.74525452 18.28318787 C44.11956029 18.2860437 40.49448457 18.27136455 36.86889648 18.24389648 C32.22252691 18.20978815 27.57726126 18.21584215 22.93083858 18.23455906 C19.35599063 18.24512845 15.78139947 18.23619231 12.20657539 18.22117424 C10.49337082 18.2159932 8.78013942 18.2164733 7.0669384 18.22271919 C4.67286383 18.22817187 2.28036911 18.20779801 -0.11352539 18.18041992 C-0.82064667 18.1869458 -1.52776794 18.19347168 -2.25631714 18.20019531 C-5.64765206 18.13427044 -7.36330428 17.87290026 -10.05686951 15.7386322 C-12.71384788 12.24679636 -13.16587872 10.045223 -12.6484375 5.64697266 C-8.92637142 0.80874213 -5.86445638 -0.08436798 0 0 Z " fill="#64DCB8" transform="translate(118.6484375,273.35302734375)"/>
<path d="M0 0 C0.71518799 0.5266626 1.43037598 1.0533252 2.16723633 1.59594727 C3.34769531 2.45736328 3.34769531 2.45736328 4.55200195 3.33618164 C5.35959961 3.93881836 6.16719727 4.54145508 6.99926758 5.16235352 C7.8184668 5.76112305 8.63766602 6.35989258 9.48168945 6.97680664 C15.45115519 11.36424113 15.45115519 11.36424113 17.81176758 13.72485352 C16.92875977 13.67844727 16.04575195 13.63204102 15.13598633 13.58422852 C1.99806404 13.18910303 -8.4664193 16.49234341 -18.16088867 25.57250977 C-25.46196089 33.36962086 -27.55923042 40.98213661 -28.59838867 51.49047852 C-29.21912403 54.89424594 -30.15581788 56.94738926 -32.18823242 59.72485352 C-35.38056728 61.32102094 -38.72284739 61.23951466 -42.18823242 60.72485352 C-44.61942865 58.85470257 -45.82892415 57.44347007 -47.18823242 54.72485352 C-48.57411909 41.10585182 -43.05637137 27.75202472 -35.11791992 16.89282227 C-27.69230992 8.2296106 -12.29873727 -7.16683083 0 0 Z " fill="#DF4D60" transform="translate(367.188232421875,59.275146484375)"/>
<path d="M0 0 C2.93740845 1.32398913 4.71851374 3.47510008 6.86328125 5.83984375 C7.79140625 6.82984375 7.79140625 6.82984375 8.73828125 7.83984375 C9.86328125 9.83984375 9.86328125 9.83984375 9.73828125 12.24609375 C7.79038315 18.02022027 0.32650339 20.50329721 -4.75 23.2578125 C-12.5225918 27.09103304 -20.72242806 28.97811349 -29.13671875 30.83984375 C-30.42449219 31.13181641 -30.42449219 31.13181641 -31.73828125 31.4296875 C-37.74343866 32.4566281 -43.97957181 33.10875372 -49.32421875 29.96484375 C-51.65402172 27.23335061 -52.09630373 26.1458432 -52.57421875 22.52734375 C-52.13671875 18.83984375 -52.13671875 18.83984375 -49.6015625 16.171875 C-46.07976162 13.43880807 -42.61424589 13.05531042 -38.26171875 12.83984375 C-25.71964433 11.75976334 -14.62819116 8.71084346 -4.37109375 1.09765625 C-2.13671875 -0.16015625 -2.13671875 -0.16015625 0 0 Z " fill="#DF4D60" transform="translate(460.13671875,293.16015625)"/>
<path d="M0 0 C4.53891368 2.72334821 7.41448399 5.74345197 9.125 10.875 C9.82266205 18.057488 9.52036204 23.05411514 5.125 28.875 C-0.27373278 33.87870355 -4.7244661 34.22989711 -11.859375 34.15234375 C-16.32520062 33.74162663 -18.35299704 32.66325234 -21.875 29.875 C-26.41601091 24.01948593 -27.686519 19.13162638 -26.875 11.875 C-25.54422114 7.11979654 -23.30382807 3.7926854 -19.3125 0.875 C-13.36376102 -2.41012451 -6.32595286 -2.28781737 0 0 Z " fill="#EFC419" transform="translate(458.875,478.125)"/>
<path d="M0 0 C4.84623141 2.59657084 8.07147606 6.08942819 9.80078125 11.27734375 C10.42983843 18.98329425 9.95957262 24.35608549 4.98828125 30.52734375 C0.08247799 34.45198635 -5.35277471 34.78935334 -11.4453125 34.6484375 C-16.69234072 33.94139114 -20.36490443 31.66766836 -23.578125 27.48046875 C-26.38742772 22.58621313 -27.04595238 17.83274243 -26.19921875 12.27734375 C-24.29104266 7.05496709 -21.16038518 3.11841679 -16.40234375 0.16015625 C-11.43881398 -1.82877589 -5.05046698 -1.6595673 0 0 Z " fill="#EFC419" transform="translate(458.19921875,0.72265625)"/>
<path d="M0 0 C3.84192232 2.3131574 6.26128959 5.10201357 7.5 9.4375 C8.22048148 14.96119133 8.47201729 20.4006999 5.8125 25.4375 C2.79504242 29.35203957 0.2153415 31.8657195 -4.5 33.4375 C-10.72187421 33.9454081 -16.24503901 34.19104356 -21.5 30.4375 C-25.84804801 25.89181345 -28.23185636 22.33345136 -28.8125 16.0625 C-28.27659455 9.8459968 -25.83778116 4.90286296 -21.5 0.4375 C-14.92675508 -2.78689725 -6.7313233 -2.94258598 0 0 Z " fill="#EFC419" transform="translate(504.5,434.5625)"/>
<path d="M0 0 C4.88006234 2.62528299 8.1174457 6.04374335 9.86328125 11.28125 C10.51868048 18.63031673 10.7036391 24.47282057 5.86328125 30.28125 C0.66321311 34.46880487 -4.86364396 34.85552785 -11.3671875 34.59375 C-15.78271463 34.09552409 -18.59562709 33.02445204 -21.56640625 29.6640625 C-25.58828276 24.36972788 -26.6963976 19.99739624 -26.13671875 13.28125 C-24.17738131 7.39204146 -21.16901395 3.81456365 -16.13671875 0.28125 C-11.04065361 -1.41743838 -5.14382507 -1.73028119 0 0 Z " fill="#EFC419" transform="translate(502.13671875,44.71875)"/>
<path d="M0 0 C0.33 0 0.66 0 1 0 C1.33 35.97 1.66 71.94 2 109 C5.63 107.68 9.26 106.36 13 105 C18.04880916 104.40987945 21.32963422 104.08248737 25.5625 107 C28.25700024 110.31630798 28.93252579 111.89698542 28.5703125 116.0703125 C27.76852113 118.78322302 26.25751683 120.42384463 23.9765625 122.05078125 C20.90357189 123.52654552 17.74121062 123.94007783 14.3984375 124.4921875 C9.40518411 125.54939099 6.73060799 127.95430193 3.86837387 132.05093479 C1.44121922 136.47750926 1.43660789 140.5374548 1.48101807 145.49754333 C1.47351681 146.43457425 1.46601556 147.37160516 1.458287 148.33703095 C1.43804123 151.4663694 1.44610658 154.59498116 1.45410156 157.72436523 C1.44536489 159.97168188 1.43487878 162.2189923 1.42277527 164.46629333 C1.39490649 170.56077524 1.39151079 176.65505426 1.39249516 182.74959064 C1.38936685 189.12111633 1.36375028 195.49255055 1.34051514 201.86402893 C1.30455451 212.55608606 1.28245102 223.24808147 1.27099609 233.94018555 C1.25916171 244.95096287 1.23895365 255.96167255 1.20751953 266.97241211 C1.20558343 267.65160804 1.20364733 268.33080396 1.20165256 269.03058159 C1.19188774 272.4380558 1.18195868 275.84552951 1.17194796 279.253003 C1.08916847 307.5019694 1.03545183 335.75093757 1 364 C0.67 364 0.34 364 0 364 C0 243.88 0 123.76 0 0 Z " fill="#DD6877" transform="translate(273,67)"/>
<path d="M0 0 C1.40324524 -0.00717545 1.40324524 -0.00717545 2.83483887 -0.01449585 C4.80836676 -0.0178911 6.78195118 -0.00871489 8.75537109 0.01220703 C11.77178656 0.03897851 14.78448117 0.01244714 17.80078125 -0.01953125 C19.72136236 -0.01622708 21.64194116 -0.00982071 23.5625 0 C24.46158081 -0.01012115 25.36066162 -0.02024231 26.2869873 -0.03067017 C30.79485349 0.05347194 32.69721955 0.21027412 36.36303711 3.05859375 C38.28125 5.6640625 38.28125 5.6640625 38.69140625 8.015625 C38.57667969 8.76585938 38.46195313 9.51609375 38.34375 10.2890625 C38.20646484 11.42214844 38.20646484 11.42214844 38.06640625 12.578125 C36.96581005 15.50209699 36.05113318 16.14953496 33.28125 17.6640625 C30.0649427 18.12724733 26.87015664 18.10815529 23.625 18.09765625 C22.68571655 18.1028981 21.74643311 18.10813995 20.77868652 18.11354065 C18.7950133 18.1199572 16.81130202 18.1186286 14.82763672 18.11010742 C11.79195511 18.10159253 8.75815222 18.13037174 5.72265625 18.16210938 C3.7942714 18.16372137 1.86588321 18.16314389 -0.0625 18.16015625 C-1.42356873 18.17700722 -1.42356873 18.17700722 -2.81213379 18.19419861 C-9.10483242 18.12455967 -9.10483242 18.12455967 -12.25976562 15.75805664 C-14.73325519 12.2080031 -15.23115321 10.01948976 -14.71875 5.6640625 C-10.54521586 -0.12506755 -6.6087723 -0.07439644 0 0 Z " fill="#64DBB8" transform="translate(111.71875,114.3359375)"/>
<path d="M0 0 C2.17300022 -0.00968252 4.34504502 -0.04069388 6.51782227 -0.07226562 C7.90518645 -0.07879831 9.29255739 -0.08404774 10.67993164 -0.08789062 C11.93974854 -0.09723633 13.19956543 -0.10658203 14.49755859 -0.11621094 C18.12752922 0.26641538 19.97813651 1.0769912 22.87915039 3.24023438 C24.82248554 5.80190344 24.89412124 7.00070084 24.69165039 10.24023438 C23.86100993 13.30721453 23.06954074 14.96559824 20.87915039 17.24023438 C15.55940954 19.01348132 9.82696838 18.54517539 4.25561523 18.59033203 C2.75806136 18.60689574 1.26058668 18.63419209 -0.23657227 18.67236328 C-2.40414089 18.72728075 -4.56986555 18.7490227 -6.73803711 18.76367188 C-8.03338379 18.78349121 -9.32873047 18.80331055 -10.66333008 18.82373047 C-14.98368302 18.09462134 -16.42349662 16.61327254 -19.12084961 13.24023438 C-20.02823102 10.21375103 -19.58518094 8.49055368 -19.12084961 5.24023438 C-14.10220451 -1.28400425 -7.51452878 0.02029354 0 0 Z " fill="#64D9B6" transform="translate(46.120849609375,343.759765625)"/>
<path d="M0 0 C0.71353638 -0.00241196 1.42707275 -0.00482391 2.16223145 -0.00730896 C3.66501444 -0.0063331 5.16783454 0.0069986 6.67041016 0.03198242 C8.96251287 0.06631283 11.25075972 0.05262863 13.54296875 0.03320312 C15.00782881 0.04010207 16.47267897 0.04977492 17.9375 0.0625 C18.61784302 0.05754013 19.29818604 0.05258026 19.99914551 0.04747009 C24.72056777 0.1635422 27.16266346 1.2780429 30.46875 4.62890625 C31.16796875 6.8125 31.16796875 6.8125 31.15625 9.06640625 C31.18074219 9.80761719 31.20523438 10.54882812 31.23046875 11.3125 C30.3153607 14.09536703 29.08435601 15.84793253 26.74926758 17.63208008 C21.86098421 19.76877433 16.35221438 19.35960767 11.10107422 19.28076172 C8.97312371 19.25396133 6.85044478 19.28055122 4.72265625 19.3125 C-6.57432297 19.3427634 -6.57432297 19.3427634 -10.45703125 16.33984375 C-13.33189145 12.58249351 -13.33189145 12.58249351 -13.21875 9.62890625 C-13.22261719 8.98953125 -13.22648437 8.35015625 -13.23046875 7.69140625 C-11.04864228 1.2556276 -6.16865207 -0.12021183 0 0 Z " fill="#64D9B6" transform="translate(39.53125,414.37109375)"/>
<path d="M0 0 C2.13806008 0.04195623 4.27297328 0.04105479 6.41137695 0.03417969 C18.03246601 0.12322822 18.03246601 0.12322822 22.57739258 3.54199219 C24.16990901 6.72702506 23.96869018 10.07523269 23.57739258 13.54199219 C21.83485913 16.77812573 21.10553314 17.36594533 17.57739258 18.54199219 C13.03921753 18.81562662 8.49912153 18.85524981 3.95385742 18.89208984 C2.45630355 18.90865355 0.95882887 18.9359499 -0.53833008 18.97412109 C-2.7058987 19.02903856 -4.87162336 19.05078052 -7.03979492 19.06542969 C-8.3351416 19.08524902 -9.63048828 19.10506836 -10.96508789 19.12548828 C-15.28529847 18.39640317 -16.72091067 16.91048126 -19.42260742 13.54199219 C-20.12182617 11.47949219 -20.12182617 11.47949219 -20.11010742 9.54199219 C-20.13459961 8.90261719 -20.1590918 8.26324219 -20.18432617 7.60449219 C-19.218212 4.98855229 -17.9128798 3.25726486 -15.70751953 1.54980469 C-10.81730907 -0.60713396 -5.25804234 -0.10900007 0 0 Z " fill="#64D9B6" transform="translate(46.422607421875,237.4580078125)"/>
<path d="M0 0 C1.0370105 -0.00006042 1.0370105 -0.00006042 2.0949707 -0.00012207 C3.55071141 0.00521844 5.00645282 0.02273887 6.46191406 0.05175781 C8.6812415 0.09363192 10.89753129 0.09282168 13.1171875 0.0859375 C25.17672449 0.17510103 25.17672449 0.17510103 29.6875 3.59375 C31.28366743 6.78608485 31.20216114 10.12836497 30.6875 13.59375 C28.81734906 16.02494623 27.40611655 17.23444173 24.6875 18.59375 C20.33605386 18.87561639 15.98092041 18.90744605 11.62158203 18.94384766 C10.17252499 18.96036943 8.72354819 18.98761032 7.27490234 19.02587891 C5.1776333 19.08095676 3.08227212 19.10256703 0.984375 19.1171875 C-0.89749512 19.1469165 -0.89749512 19.1469165 -2.81738281 19.17724609 C-7.43793765 18.4058626 -9.03239375 16.87972738 -12.3125 13.59375 C-13.07421875 11.53125 -13.07421875 11.53125 -13 9.59375 C-13.00386719 8.954375 -13.00773437 8.315 -13.01171875 7.65625 C-10.83492414 1.23531395 -6.20467081 -0.03429718 0 0 Z " fill="#64D9B6" transform="translate(39.3125,202.40625)"/>
<path d="M0 0 C1.0370105 -0.00006042 1.0370105 -0.00006042 2.0949707 -0.00012207 C3.55071141 0.00521844 5.00645282 0.02273887 6.46191406 0.05175781 C8.6812415 0.09363192 10.89753129 0.09282168 13.1171875 0.0859375 C25.17672449 0.17510103 25.17672449 0.17510103 29.6875 3.59375 C31.27393982 6.76662965 31.65549489 10.21489991 30.6875 13.59375 C27.84910067 17.34776201 26.07059173 18.39409163 21.38452148 19.07055664 C18.01519312 19.23429451 14.69046232 19.29621565 11.31982422 19.24560547 C9.19187371 19.21880508 7.06919478 19.24539497 4.94140625 19.27734375 C-6.35557297 19.30760715 -6.35557297 19.30760715 -10.23828125 16.3046875 C-13.11314145 12.54733726 -13.11314145 12.54733726 -13 9.59375 C-13.00386719 8.954375 -13.00773437 8.315 -13.01171875 7.65625 C-10.83492414 1.23531395 -6.20467081 -0.03429718 0 0 Z " fill="#64D9B6" transform="translate(39.3125,308.40625)"/>
<path d="M0 0 C0.76171509 -0.0038269 1.52343018 -0.00765381 2.30822754 -0.01159668 C3.91529668 -0.01431313 5.52241024 -0.00697044 7.12939453 0.00976562 C9.58596587 0.03118214 12.03961311 0.00995822 14.49609375 -0.015625 C16.05990227 -0.01298167 17.62370898 -0.00785658 19.1875 0 C20.28608337 -0.01214539 20.28608337 -0.01214539 21.40686035 -0.02453613 C24.88469772 0.03924562 26.76161051 0.27532681 29.55249023 2.42578125 C31.31497866 4.83346384 31.6613179 6.07159753 31.65625 9.03125 C31.67816406 9.7840625 31.70007813 10.536875 31.72265625 11.3125 C30.76784164 14.68103851 28.99876717 15.65158993 26.09375 17.53125 C23.44030404 17.93365002 21.20983403 18.11695597 18.5625 18.09765625 C17.84896362 18.10385483 17.13542725 18.11005341 16.40026855 18.11643982 C14.89755614 18.12351704 13.39476497 18.12040055 11.89208984 18.10766602 C9.59976356 18.09378641 7.3115139 18.12790607 5.01953125 18.16601562 C3.55468651 18.16696685 2.08983668 18.16510782 0.625 18.16015625 C-0.39551453 18.18004356 -0.39551453 18.18004356 -1.43664551 18.20033264 C-5.2883685 18.12539253 -6.82112521 17.60118178 -9.83764648 15.12304688 C-11.87323924 12.57260987 -12.5762382 11.64913607 -12.46875 8.46875 C-11.90625 4.53125 -11.90625 4.53125 -10.36523438 2.31835938 C-7.00195328 -0.12596327 -4.00487184 -0.04427585 0 0 Z " fill="#64DCB8" transform="translate(38.90625,379.46875)"/>
<path d="M0 0 C1.10572105 -0.00574036 1.10572105 -0.00574036 2.23377991 -0.01159668 C3.78957488 -0.01431302 5.34541573 -0.00697106 6.90112305 0.00976562 C9.27431875 0.03115233 11.6444772 0.00997426 14.01757812 -0.015625 C15.53255873 -0.01298107 17.04753745 -0.00785474 18.5625 0 C19.26785385 -0.00809692 19.9732077 -0.01619385 20.69993591 -0.02453613 C25.50008058 0.06614675 27.99697844 1.09816869 31.34765625 4.53125 C32.01171875 6.75 32.01171875 6.75 31.97265625 9.03125 C31.98554687 9.7840625 31.9984375 10.536875 32.01171875 11.3125 C31.0066488 14.67061605 29.26565441 15.65195565 26.34765625 17.53125 C23.61375629 17.93353779 21.29088949 18.11684159 18.5625 18.09765625 C17.45534386 18.10695412 17.45534386 18.10695412 16.32582092 18.11643982 C14.77183344 18.12351773 13.2177698 18.12039936 11.66381836 18.10766602 C9.28813461 18.09376742 6.91636891 18.12792938 4.54101562 18.16601562 C3.02734279 18.16696663 1.51366503 18.16510898 0 18.16015625 C-0.70737808 18.17341446 -1.41475616 18.18667267 -2.14356995 18.20033264 C-5.91092544 18.12925154 -7.37055339 17.8087917 -10.09741211 15.12304688 C-12.48874156 11.13712233 -12.23627836 9.12973509 -11.65234375 4.53125 C-8.50545803 0.0471481 -5.12252704 -0.05863443 0 0 Z " fill="#64DCB8" transform="translate(38.65234375,273.46875)"/>
<path d="M0 0 C0.71353638 -0.0038269 1.42707275 -0.00765381 2.16223145 -0.01159668 C3.66497211 -0.01430847 5.16776056 -0.00699854 6.67041016 0.00976562 C8.96233987 0.03119008 11.25113579 0.00994361 13.54296875 -0.015625 C15.00781937 -0.01298159 16.47266806 -0.00785632 17.9375 0 C18.95801453 -0.01214539 18.95801453 -0.01214539 19.99914551 -0.02453613 C24.7267892 0.06800045 27.16337751 1.17054117 30.46875 4.53125 C31.1328125 6.75 31.1328125 6.75 31.09375 9.03125 C31.10664062 9.7840625 31.11953125 10.536875 31.1328125 11.3125 C30.12752964 14.67132744 28.38826737 15.65315543 25.46875 17.53125 C22.7334393 17.92177183 20.41147507 18.093814 17.68359375 18.0625 C16.94548965 18.0663269 16.20738556 18.07015381 15.44691467 18.07409668 C13.89289987 18.07680873 12.33883887 18.06949699 10.78491211 18.05273438 C8.40960923 18.03128034 6.03731978 18.05257189 3.66210938 18.078125 C2.14843085 18.07548219 0.63475419 18.07035818 -0.87890625 18.0625 C-1.58628433 18.07059692 -2.29366241 18.07869385 -3.0224762 18.08703613 C-6.44492492 18.02207345 -8.23549975 17.76061458 -10.97412109 15.63671875 C-12.75520407 13.22843095 -13.09883567 12.00128324 -13.09375 9.03125 C-13.11566406 8.2784375 -13.13757813 7.525625 -13.16015625 6.75 C-11.39513703 0.52309989 -5.60601689 -0.06671854 0 0 Z " fill="#64DCB8" transform="translate(39.53125,167.46875)"/>
</svg>
