<?xml version="1.0" encoding="UTF-8"?>
<svg version="1.1" xmlns="http://www.w3.org/2000/svg" width="512" height="512">
<path d="M0 0 C8.32411188 5.01402041 11.90724225 11.67371828 14.375 20.9375 C14.89467998 23.96387166 15.17365322 26.86696162 15.375 29.9375 C16.05046875 30.02386719 16.7259375 30.11023437 17.421875 30.19921875 C24.70383097 31.34623205 24.70383097 31.34623205 28 34.25 C29.46630947 37.1159685 29.73723059 38.76798232 29.375 41.9375 C30.0659375 42.04578125 30.756875 42.1540625 31.46875 42.265625 C35.95384846 43.3025026 40.02098845 45.30838272 44.21875 47.171875 C47.38402131 48.30115966 47.38402131 48.30115966 50.0859375 46.56640625 C50.84132813 46.02886719 51.59671875 45.49132813 52.375 44.9375 C56.27885466 45.17173128 58.09499971 45.75083314 61.375 47.9375 C65.27791396 47.62804566 67.64162848 46.29480858 70.75 44 C77.19715371 39.56359225 83.61528498 37.94140346 91.375 38.9375 C98.92733907 40.8807305 105.44302432 43.4077174 109.80859375 50.15234375 C114.34241232 58.07689348 115.39296371 64.78525223 114.375 73.9375 C112.54199996 79.05945897 110.21359382 83.89811756 106.55078125 87.9609375 C105.07822363 89.90909832 105.07822363 89.90909832 105.953125 92.265625 C107.30602656 94.80789056 108.67426849 97.33936308 110.09106445 99.84667969 C116.81844528 111.82411804 121.09605011 124.62036143 124.375 137.9375 C125.78652344 138.21013672 125.78652344 138.21013672 127.2265625 138.48828125 C128.47179687 138.73964844 129.71703125 138.99101562 131 139.25 C132.22976563 139.49363281 133.45953125 139.73726562 134.7265625 139.98828125 C141.64607215 141.78853911 147.81061682 145.08403173 151.828125 151.12109375 C156.32411567 158.98907743 158.0239143 166.67341796 155.65625 175.66796875 C152.71347158 183.51142252 148.60348958 188.91066649 141.1328125 192.8359375 C135.75194599 194.98523545 130.06398418 195.94213008 124.375 196.9375 C124.04886719 198.071875 123.72273438 199.20625 123.38671875 200.375 C122.9454756 201.89588066 122.5040601 203.41671133 122.0625 204.9375 C121.84916016 205.68128906 121.63582031 206.42507812 121.41601562 207.19140625 C121.20009766 207.93261719 120.98417969 208.67382812 120.76171875 209.4375 C120.56795654 210.1078125 120.37419434 210.778125 120.17456055 211.46875 C119.02901413 215.00577761 117.69581747 218.46216891 116.375 221.9375 C117.01757751 221.92861755 117.66015503 221.91973511 118.32220459 221.9105835 C125.00540275 221.82214352 131.6884349 221.76177946 138.37207031 221.71777344 C140.86693065 221.69764836 143.36174378 221.67034548 145.85644531 221.63574219 C149.44087368 221.58726543 153.02467885 221.5645398 156.609375 221.546875 C157.72616638 221.52622986 158.84295776 221.50558472 159.99359131 221.48431396 C161.03436829 221.48401184 162.07514526 221.48370972 163.14746094 221.48339844 C164.06235291 221.47451599 164.97724487 221.46563354 165.91986084 221.45648193 C169.22852611 222.10472534 170.27503426 223.3304031 172.375 225.9375 C172.86719131 228.60050583 172.86719131 228.60050583 172.85601807 231.69549561 C172.86426605 233.45809471 172.86426605 233.45809471 172.87268066 235.25630188 C172.85829956 236.54167343 172.84391846 237.82704498 172.82910156 239.15136719 C172.82797302 240.52139757 172.82860708 241.89143037 172.83087158 243.26145935 C172.83201941 246.97825815 172.80849951 250.69454077 172.78057575 254.4112196 C172.75557333 258.29627555 172.75322102 262.18134329 172.74847412 266.06646729 C172.73604089 273.42234463 172.70321473 280.77798423 172.66307616 288.13375688 C172.61836914 296.50850554 172.59637413 304.88326556 172.57629442 313.25810385 C172.53448229 330.48470676 172.46412364 347.71107824 172.375 364.9375 C173.1133609 364.92861755 173.8517218 364.91973511 174.61245728 364.9105835 C181.58595089 364.83028741 188.55937501 364.76945943 195.53321266 364.73025131 C199.11820901 364.70941577 202.70282194 364.68117349 206.28759766 364.63574219 C209.7500419 364.59213808 213.21211841 364.56833257 216.67481613 364.55799103 C218.63242482 364.54705179 220.58988648 364.51584872 222.54727173 364.48431396 C233.83844245 364.48147306 233.83844245 364.48147306 238.375 368.9375 C243.45661963 374.35222772 242.94254395 379.97645011 242.89257812 386.99804688 C242.90309204 388.81369896 242.90309204 388.81369896 242.91381836 390.66603088 C242.92837699 393.97417804 242.92500792 397.28132056 242.91230202 400.58941078 C242.9021456 404.05795221 242.911575 407.52645193 242.91784668 410.99499512 C242.92511545 416.81884429 242.9155558 422.64249029 242.89648438 428.46630859 C242.87471687 435.19090479 242.88176881 441.91501583 242.90379 448.63960028 C242.92196615 454.42239952 242.92449158 460.20505306 242.91403532 465.98787165 C242.90781246 469.4376689 242.90693115 472.88723842 242.92018127 476.33702087 C242.93392546 480.18385547 242.91485385 484.03015052 242.89257812 487.87695312 C242.90067505 489.01479752 242.90877197 490.15264191 242.91711426 491.32496643 C242.85271936 497.32723204 242.67437505 501.35629421 238.375 505.9375 C232.85245255 511.24223037 226.60932948 510.50250719 219.39648438 510.45507812 C218.08851395 510.4620874 216.78054352 510.46909668 215.43293762 510.47631836 C211.85640608 510.49450706 208.28033762 510.487503 204.70379829 510.47480202 C200.95498564 510.46465106 197.20621173 510.4740735 193.45739746 510.48034668 C187.16276963 510.48761702 180.86832974 510.47805162 174.57373047 510.45898438 C167.30383095 510.43721664 160.0343802 510.44426846 152.76449156 510.46629 C146.51460803 510.48446161 140.26485933 510.48699377 134.0149579 510.47653532 C130.28570993 510.47031 126.55667266 510.46943804 122.82743835 510.48268127 C118.66919523 510.49641742 114.51172166 510.47736152 110.35351562 510.45507812 C109.12216385 510.46317505 107.89081207 510.47127197 106.62214661 510.47961426 C95.99370558 510.37403731 95.99370558 510.37403731 91.375 505.9375 C86.29338037 500.52277228 86.80745605 494.89854989 86.85742188 487.87695312 C86.84690796 486.06130104 86.84690796 486.06130104 86.83618164 484.20896912 C86.82162301 480.90082196 86.82499208 477.59367944 86.83769798 474.28558922 C86.8478544 470.81704779 86.838425 467.34854807 86.83215332 463.88000488 C86.82488455 458.05615571 86.8344442 452.23250971 86.85351562 446.40869141 C86.87528313 439.68409521 86.86823119 432.95998417 86.84621 426.23539972 C86.82803385 420.45260048 86.82550842 414.66994694 86.83596468 408.88712835 C86.84218754 405.4373311 86.84306885 401.98776158 86.82981873 398.53797913 C86.81607454 394.69114453 86.83514615 390.84484948 86.85742188 386.99804688 C86.84932495 385.86020248 86.84122803 384.72235809 86.83288574 383.55003357 C86.89728064 377.54776796 87.07562495 373.51870579 91.375 368.9375 C109.71369386 356.7117041 135.33463299 364.9375 157.375 364.9375 C157.375 323.0275 157.375 281.1175 157.375 237.9375 C140.875 237.9375 124.375 237.9375 107.375 237.9375 C104.74617491 244.33371481 104.74617491 244.33371481 106.640625 247.8515625 C107.29546875 248.74617187 107.9503125 249.64078125 108.625 250.5625 C114.43391518 258.67174559 115.2802016 264.9913214 114.375 274.9375 C112.13928387 283.01604128 107.62693266 288.653617 100.4453125 292.8671875 C93.77088275 296.31774175 86.82829859 297.09786654 79.6015625 295.21484375 C75.09689971 293.69066333 71.26346537 292.05395783 67.5 289.125 C64.71803375 286.713094 64.71803375 286.713094 62.234375 287.00390625 C58.03254086 288.37581658 54.35219544 290.54238307 50.5 292.6875 C39.2700219 298.76487452 28.05893413 302.93791509 15.375 304.9375 C15.27703125 305.783125 15.1790625 306.62875 15.078125 307.5 C13.8561162 316.77041157 11.90944279 324.01867823 5.375 330.9375 C1.43909228 333.95223783 -0.65105725 334.94271145 -5.625 335.9375 C-5.625 345.5075 -5.625 355.0775 -5.625 364.9375 C0.76746094 364.86789062 0.76746094 364.86789062 7.2890625 364.796875 C10.6967268 364.77113358 14.10436347 364.7494487 17.5120697 364.73049927 C21.10411228 364.70941556 24.69577457 364.68126281 28.28759766 364.63574219 C31.7500419 364.59213808 35.21211841 364.56833257 38.67481613 364.55799103 C40.63242482 364.54705179 42.58988648 364.51584872 44.54727173 364.48431396 C49.55262858 364.4830546 53.36635924 364.4937363 57.98193359 366.52441406 C63.60426696 372.19378184 64.83213347 376.72456052 64.92822266 384.52531433 C64.92169678 385.63771988 64.9151709 386.75012543 64.90844727 387.89624023 C64.91706284 389.08410126 64.92567841 390.27196228 64.93455505 391.49581909 C64.9533075 394.73778179 64.95413047 397.97909664 64.94523358 401.2210834 C64.94010478 403.93469234 64.94743155 406.64821067 64.95470566 409.36181027 C64.97167677 415.76708575 64.96816739 422.17212283 64.95141602 428.57739258 C64.93449764 435.16969642 64.95033082 441.76133793 64.9826389 448.35356945 C65.00939064 454.02857286 65.01659584 459.7033708 65.00812382 465.3784309 C65.00321067 468.76127615 65.00532159 472.14372313 65.02591133 475.52651787 C65.04336107 479.30128906 65.02880773 483.07465034 65.00610352 486.84936523 C65.01779572 487.95974655 65.02948792 489.07012787 65.04153442 490.2141571 C64.9604115 496.85468051 64.12224705 502.01327479 59.375 506.9375 C55.70912435 509.61343969 53.16045028 510.31411761 48.65101624 510.32518005 C46.93722527 510.340037 46.93722527 510.340037 45.18881226 510.35519409 C43.94451447 510.35069244 42.70021667 510.3461908 41.41821289 510.34155273 C39.44184593 510.35184761 39.44184593 510.35184761 37.42555237 510.36235046 C33.8180519 510.38027566 30.21079475 510.37911475 26.60326314 510.37340808 C23.58885687 510.3703152 20.57449726 510.3764098 17.56009763 510.38244683 C10.44733346 510.39648841 3.3346894 510.39493393 -3.77807617 510.38354492 C-11.10985568 510.37206446 -18.44126936 510.38613873 -25.77300066 510.4129414 C-32.07380621 510.43511075 -38.37449703 510.441733 -44.6753388 510.43586498 C-48.43591514 510.43249707 -52.19625701 510.43489919 -55.95680046 510.45211601 C-60.15104145 510.47048076 -64.34457238 510.45638546 -68.53881836 510.43920898 C-69.78109192 510.44887695 -71.02336548 510.45854492 -72.30328369 510.46850586 C-83.13913175 510.3754675 -83.13913175 510.3754675 -87.625 505.9375 C-92.32096596 499.91612616 -92.20213727 494.42618675 -92.15844727 486.97875977 C-92.16706284 485.79089874 -92.17567841 484.60303772 -92.18455505 483.37918091 C-92.2033075 480.13721821 -92.20413047 476.89590336 -92.19523358 473.6539166 C-92.19010478 470.94030766 -92.19743155 468.22678933 -92.20470566 465.51318973 C-92.22167677 459.10791425 -92.21816739 452.70287717 -92.20141602 446.29760742 C-92.18449764 439.70530358 -92.20033082 433.11366207 -92.2326389 426.52143055 C-92.25939064 420.84642714 -92.26659584 415.1716292 -92.25812382 409.4965691 C-92.25321067 406.11372385 -92.25532159 402.73127687 -92.27591133 399.34848213 C-92.29336107 395.57371094 -92.27880773 391.80034966 -92.25610352 388.02563477 C-92.27364182 386.36006279 -92.27364182 386.36006279 -92.29153442 384.6608429 C-92.20852008 377.86549248 -91.25787102 373.08276301 -86.625 367.9375 C-82.9601101 364.95664933 -80.21141086 364.56748056 -75.54956055 364.59692383 C-74.34869308 364.59715042 -73.14782562 364.59737701 -71.91056824 364.59761047 C-70.62394791 364.61309433 -69.33732758 364.62857819 -68.01171875 364.64453125 C-66.67365495 364.65013131 -65.33558498 364.65439947 -63.99751282 364.65739441 C-60.48748588 364.66881108 -56.97783544 364.69825013 -53.46795654 364.73150635 C-49.88168522 364.76227628 -46.29535084 364.7760792 -42.70898438 364.79101562 C-35.68065783 364.82152934 -28.65336313 364.88025541 -21.625 364.9375 C-21.625 355.3675 -21.625 345.7975 -21.625 335.9375 C-23.935 335.2775 -26.245 334.6175 -28.625 333.9375 C-37.2080787 328.10100648 -40.03413868 320.73863095 -42.14453125 310.79296875 C-42.625 307.9375 -42.625 307.9375 -42.625 304.9375 C-43.46160156 304.79054688 -44.29820312 304.64359375 -45.16015625 304.4921875 C-58.89174734 301.84623307 -70.86822362 296.75587428 -82.90356445 289.74560547 C-86.87833576 287.48550675 -86.87833576 287.48550675 -91.34375 287 C-93.85414387 288.03166871 -95.81705854 289.26340604 -98 290.875 C-104.44715371 295.31140775 -110.86528498 296.93359654 -118.625 295.9375 C-126.17733907 293.9942695 -132.69302432 291.4672826 -137.05859375 284.72265625 C-141.59241232 276.79810652 -142.64296371 270.08974777 -141.625 260.9375 C-139.81407286 255.87721943 -137.55569194 250.94674257 -133.80078125 247.0390625 C-133.21876953 245.99878906 -133.21876953 245.99878906 -132.625 244.9375 C-133.615 241.4725 -133.615 241.4725 -134.625 237.9375 C-151.125 237.9375 -167.625 237.9375 -184.625 237.9375 C-184.625 279.8475 -184.625 321.7575 -184.625 364.9375 C-164.825 364.9375 -145.025 364.9375 -124.625 364.9375 C-116.92794292 370.06887138 -116.92794292 370.06887138 -114.625 374.9375 C-114.05455998 378.96101272 -114.07854317 382.93978065 -114.10742188 386.99804688 C-114.1004126 388.2084816 -114.09340332 389.41891632 -114.08618164 390.66603088 C-114.07162301 393.97417804 -114.07499208 397.28132056 -114.08769798 400.58941078 C-114.0978544 404.05795221 -114.088425 407.52645193 -114.08215332 410.99499512 C-114.07488455 416.81884429 -114.0844442 422.64249029 -114.10351562 428.46630859 C-114.12528313 435.19090479 -114.11823119 441.91501583 -114.09621 448.63960028 C-114.07803385 454.42239952 -114.07550842 460.20505306 -114.08596468 465.98787165 C-114.09218754 469.4376689 -114.09306885 472.88723842 -114.07981873 476.33702087 C-114.06607454 480.18385547 -114.08514615 484.03015052 -114.10742188 487.87695312 C-114.09932495 489.01479752 -114.09122803 490.15264191 -114.08288574 491.32496643 C-114.14728064 497.32723204 -114.32562495 501.35629421 -118.625 505.9375 C-124.14754745 511.24223037 -130.39067052 510.50250719 -137.60351562 510.45507812 C-138.91148605 510.4620874 -140.21945648 510.46909668 -141.56706238 510.47631836 C-145.14359392 510.49450706 -148.71966238 510.487503 -152.29620171 510.47480202 C-156.04501436 510.46465106 -159.79378827 510.4740735 -163.54260254 510.48034668 C-169.83723037 510.48761702 -176.13167026 510.47805162 -182.42626953 510.45898438 C-189.69616905 510.43721664 -196.9656198 510.44426846 -204.23550844 510.46629 C-210.48539197 510.48446161 -216.73514067 510.48699377 -222.9850421 510.47653532 C-226.71429007 510.47031 -230.44332734 510.46943804 -234.17256165 510.48268127 C-238.33080477 510.49641742 -242.48827834 510.47736152 -246.64648438 510.45507812 C-247.87783615 510.46317505 -249.10918793 510.47127197 -250.37785339 510.47961426 C-256.7397494 510.41641876 -260.84432 510.32227618 -265.625 505.9375 C-269.38754803 501.45919229 -270.14231386 498.28654397 -270.19140625 492.4921875 C-270.19760483 491.79989044 -270.20380341 491.10759338 -270.21018982 490.39431763 C-270.21725353 488.94046425 -270.21417444 487.4865294 -270.20141602 486.03271484 C-270.18748852 483.81066805 -270.22173129 481.5927894 -270.25976562 479.37109375 C-270.26071642 477.95312397 -270.25886011 476.53514894 -270.25390625 475.1171875 C-270.25463135 473.83569824 -270.25535645 472.55420898 -270.25610352 471.23388672 C-269.625 467.9375 -269.625 467.9375 -267.21069336 465.48876953 C-264.625 463.9375 -264.625 463.9375 -262.625 463.9375 C-262.625 457.6675 -262.625 451.3975 -262.625 444.9375 C-264.275 444.6075 -265.925 444.2775 -267.625 443.9375 C-270.39200295 441.17049705 -269.8902216 439.53136466 -269.91552734 435.65527344 C-269.92224457 435.01112991 -269.92896179 434.36698639 -269.93588257 433.70332336 C-269.95492273 431.56776263 -269.95879032 429.43251541 -269.9609375 427.296875 C-269.9673635 425.81194936 -269.97409171 424.32702501 -269.98110962 422.84210205 C-269.99309898 419.72494576 -269.99678898 416.60790039 -269.99560547 413.49072266 C-269.99540269 409.50478974 -270.02265386 405.51957313 -270.05714989 401.53380966 C-270.07944347 398.4642005 -270.0834422 395.39476269 -270.08238602 392.32508087 C-270.08474024 390.85632112 -270.09355384 389.38755653 -270.10905075 387.91887665 C-270.12875322 385.85785168 -270.12285727 383.79835681 -270.11083984 381.73730469 C-270.11368988 380.56641296 -270.11653992 379.39552124 -270.11947632 378.18914795 C-269.33405622 373.02427039 -266.88880232 370.17886796 -263.23193359 366.58691406 C-257.57297363 363.9991292 -252.05895178 364.44787682 -245.9140625 364.546875 C-244.57743174 364.55434417 -243.24078996 364.56003391 -241.90414429 364.56402588 C-238.40221418 364.57922947 -234.90095768 364.61846378 -231.39929199 364.6628418 C-227.81967275 364.70390973 -224.23994365 364.72206132 -220.66015625 364.7421875 C-213.64816245 364.78496468 -206.63661365 364.85315062 -199.625 364.9375 C-199.62868717 364.22481838 -199.63237434 363.51213676 -199.63617325 362.77785873 C-199.7244781 345.44351192 -199.79068704 328.10922218 -199.83224869 310.77470016 C-199.8528814 302.39187293 -199.8810154 294.00919576 -199.92675781 285.62646484 C-199.96660405 278.32078714 -199.99242766 271.0152181 -200.00135398 263.70943475 C-200.00657254 259.84037085 -200.01885233 255.97161784 -200.04792023 252.1026535 C-200.07505465 248.46156357 -200.08344918 244.82091281 -200.07743073 241.17973137 C-200.07905722 239.20519793 -200.1005904 237.23071241 -200.12268066 235.25630188 C-200.11718201 234.08123581 -200.11168335 232.90616974 -200.10601807 231.69549561 C-200.10970524 230.67414898 -200.11339241 229.65280235 -200.11719131 228.60050583 C-199.4923267 225.21966981 -198.29415917 224.03698038 -195.625 221.9375 C-193.16986084 221.45648193 -193.16986084 221.45648193 -190.39746094 221.48339844 C-188.83629547 221.48385162 -188.83629547 221.48385162 -187.24359131 221.48431396 C-185.56840424 221.51528168 -185.56840424 221.51528168 -183.859375 221.546875 C-182.13657318 221.55536469 -182.13657318 221.55536469 -180.37896729 221.56402588 C-176.71055426 221.58641669 -173.04311783 221.63662058 -169.375 221.6875 C-166.88803494 221.70756139 -164.40105457 221.72581278 -161.9140625 221.7421875 C-155.81737511 221.78629045 -149.72125733 221.85323051 -143.625 221.9375 C-144.03492188 220.803125 -144.44484375 219.66875 -144.8671875 218.5 C-145.41165782 216.97923807 -145.95591739 215.45840068 -146.5 213.9375 C-146.76941406 213.19371094 -147.03882813 212.44992188 -147.31640625 211.68359375 C-149.05232706 206.81454757 -150.44664705 201.97124074 -151.625 196.9375 C-152.56601563 196.75574219 -153.50703125 196.57398438 -154.4765625 196.38671875 C-156.34441406 196.00966797 -156.34441406 196.00966797 -158.25 195.625 C-159.47976562 195.38136719 -160.70953125 195.13773438 -161.9765625 194.88671875 C-168.89607215 193.08646089 -175.06061682 189.79096827 -179.078125 183.75390625 C-183.57411567 175.88592257 -185.2739143 168.20158204 -182.90625 159.20703125 C-180.0112244 151.49085414 -176.03768971 145.91838892 -168.625 141.9375 C-163.04542773 140.07209076 -157.43158991 138.851184 -151.625 137.9375 C-151.356875 136.84695312 -151.08875 135.75640625 -150.8125 134.6328125 C-147.13228352 120.25309478 -142.18809159 106.14089412 -133.4609375 93.98046875 C-132.36934149 91.9025226 -132.36934149 91.9025226 -133.28515625 89.49609375 C-134.66236353 86.86614982 -136.11888681 84.33307255 -137.6875 81.8125 C-142.16110289 74.61535892 -142.28235874 68.31882397 -141.625 59.9375 C-139.86554718 53.30130297 -136.20121524 47.08322914 -130.22265625 43.49609375 C-122.45050799 39.49018473 -115.52952126 37.41375258 -106.83984375 39.65625 C-102.34346503 41.19009033 -98.51020731 42.82357779 -94.75 45.75 C-91.96638425 48.16408222 -91.96638425 48.16408222 -89.47265625 47.8671875 C-85.33306787 46.51571695 -81.72693485 44.37280663 -77.9375 42.25 C-71.40962592 38.70105562 -64.93911664 35.6936654 -57.875 33.375 C-57.14966064 33.13628174 -56.42432129 32.89756348 -55.67700195 32.65161133 C-51.33879128 31.29670896 -47.13879969 30.46332221 -42.625 29.9375 C-42.49544922 28.70386719 -42.49544922 28.70386719 -42.36328125 27.4453125 C-41.10534457 17.45106329 -39.2001006 9.46744824 -31.125 2.9375 C-22.39354592 -3.45736778 -9.91834012 -4.58930806 0 0 Z " fill="#000001" transform="translate(269.625,2.0625)"/>
<path d="M0 0 C0.72364746 0.28407715 1.44729492 0.5681543 2.19287109 0.86083984 C25.89951452 10.45898712 44.38668383 28.55776283 54.875 51.875 C63.04069406 71.30874127 65.57739961 93.68432218 59 114 C58.6596875 115.19367188 58.319375 116.38734375 57.96875 117.6171875 C50.88094344 141.03568351 34.71198225 161.20221999 13.16552734 173.00488281 C-9.37336867 184.70042468 -36.3756748 188.51160941 -61 181 C-85.71140362 172.16397964 -107.44116789 155.25440123 -118.85546875 131.2421875 C-120.33587459 127.85735835 -121.703442 124.45892383 -123 121 C-123.31582031 120.20207031 -123.63164062 119.40414062 -123.95703125 118.58203125 C-132.13545673 96.46402343 -129.37240648 70.81635646 -119.8449707 49.6796875 C-110.34332635 29.70455477 -94.5489698 14.02052457 -75 4 C-74.03835937 3.505 -73.07671875 3.01 -72.0859375 2.5 C-50.61017399 -7.89748781 -22.13092124 -8.78689547 0 0 Z " fill="#EAF2FC" transform="translate(289,80)"/>
<path d="M0 0 C4.78489444 4.25323951 6.28019803 9.43513351 7.25 15.625 C8.16130433 21.34640629 9.82255422 25.11198662 14.5 28.75 C19.73370619 31.12895736 25.48105485 32.78667434 31.25 32 C31.91 31.319375 32.57 30.63875 33.25 29.9375 C33.91 29.298125 34.57 28.65875 35.25 28 C39.75185067 28.36118 43.50525657 29.77727785 47.625 31.5625 C48.68460938 32.01753906 49.74421875 32.47257812 50.8359375 32.94140625 C51.63257813 33.29074219 52.42921875 33.64007813 53.25 34 C53.229375 34.58007812 53.20875 35.16015625 53.1875 35.7578125 C53.28638826 39.50320547 53.38742149 42.06006019 55.9921875 44.8984375 C61.54451876 49.0677705 66.22232915 50.70407092 73.25 50 C77.71572623 48.5384896 80.85067892 46.57946329 84.625 43.8125 C88.50434596 41.18008667 91.39761155 40.08484077 96.1015625 40.3984375 C99.98527749 41.4858777 102.64360661 44.00575045 105.25 47 C106.77563984 50.05127967 106.90008663 52.71345095 106.25 56 C104.08373071 60.4010914 101.32167528 64.4150223 98.578125 68.47265625 C97.08468135 71.31459167 96.81711994 73.12012094 96.8125 76.3125 C96.79316406 77.19550781 96.77382813 78.07851562 96.75390625 78.98828125 C97.43728181 83.13696282 99.25886753 86.33267009 101.25 90 C101.92077646 91.30779604 102.58751362 92.61767251 103.25 93.9296875 C103.57774414 94.57429932 103.90548828 95.21891113 104.24316406 95.88305664 C109.48134519 106.24637377 113.47133893 116.11906985 116.02734375 127.484375 C117.48224578 131.66779936 119.01336104 133.97089451 122.25 137 C125.00325314 137.97139829 127.29907749 138.62320068 130.125 139.125 C136.28691807 140.30147207 142.77882753 141.56214299 146.66796875 146.97265625 C148.0217166 151.68805985 147.90876417 156.31649157 146.125 160.875 C142.21299354 165.30860732 137.8975589 166.12570715 132.25 166.9375 C125.91759061 167.90146826 122.13849746 169.48801006 118.203125 174.72265625 C116.17470509 178.12634486 115.3457004 180.83438542 114.5 184.6875 C111.61869268 196.58737444 106.89070755 208.1464238 100.25 218.4375 C96.71643325 224.28335468 95.66019836 229.2875042 97.25 236 C99.20400617 239.98858991 101.5718696 243.46753388 104.25 247 C106.73386059 250.72579089 106.6304212 252.58711402 106.25 257 C104.44007928 261.09613637 102.1140796 263.73195328 98.25 266 C95.0244343 266.89415066 92.49197849 266.82990767 89.25 266 C85.97042239 264.14184736 82.97671451 262.09156487 79.94921875 259.84765625 C75.46750647 256.77985609 70.61909996 256.06268255 65.25 257 C62.53412285 258.21452592 60.03204348 259.66327948 57.4609375 261.16015625 C46.371672 267.51422444 34.92935593 272.05047642 22.64916992 275.56616211 C17.75577313 277.00586565 13.90421591 278.24387369 10.25 282 C8.08715242 286.65844094 6.98281694 291.18386018 5.875 296.1875 C4.65050749 301.31870673 3.47628732 303.8573761 -0.75 307 C-3.94598065 308.59799033 -7.27322756 308.36773555 -10.75 308 C-15.03423984 306.19109874 -16.6549205 304.07437829 -18.75 300 C-19.65613584 296.63730578 -20.42184876 293.29132712 -21.12304688 289.8828125 C-22.15065995 285.32519801 -23.45091525 282.33014958 -26.75 279 C-30.53428371 277.25340752 -34.30479072 276.13126082 -38.30078125 274.953125 C-49.15927623 271.71730159 -59.42047981 267.73345863 -69.2265625 261.99609375 C-77.19753801 257.2784681 -77.19753801 257.2784681 -86.1953125 256.2265625 C-90.75250232 257.60626217 -94.38669444 260.34550945 -98.18359375 263.15234375 C-101.85415964 265.79492772 -105.09316443 266.45529546 -109.61328125 266.421875 C-113.52929961 265.64869404 -116.23716579 262.99355032 -118.75 260 C-119.96530634 256.35408098 -120.10369311 253.83837408 -119.75 250 C-118.32341835 247.5912282 -116.92692516 245.51976182 -115.25 243.3125 C-111.66511679 238.06551561 -109.27677181 233.88698081 -109.79296875 227.31640625 C-111.55395263 221.21405804 -114.91059444 215.95237129 -118.140625 210.5234375 C-123.89828967 200.77175437 -127.21181729 190.24052344 -129.6953125 179.2421875 C-131.24007465 174.49347421 -133.32496585 171.78831676 -137.6875 169.375 C-141.16163394 168.01850518 -144.72732182 167.36690065 -148.375 166.625 C-153.76599755 165.45385226 -156.5291543 164.48617794 -159.75 160 C-161.47589785 156.54820431 -161.11043965 152.78133961 -160.75 149 C-158.97573409 144.70440886 -156.83061043 143.07943436 -152.75 141 C-150.28634037 140.4645394 -147.80389474 140.01137945 -145.3125 139.625 C-139.45497374 138.571351 -135.55748334 137.75935418 -131.75 133 C-129.96047139 129.28328673 -128.94419839 125.8243317 -128 121.81640625 C-125.10450927 109.8078755 -120.53329445 97.89499037 -113.53125 87.62890625 C-110.03033093 82.46197964 -109.68665463 77.04777677 -110.75 71 C-113.03939248 66.36500228 -115.79385619 62.24359756 -118.75 58 C-120.35127074 54.79745853 -120.15701607 52.54685436 -119.75 49 C-117.65150313 45.72634488 -115.26032454 42.75516227 -111.75 41 C-105.70178534 39.99196422 -102.72617475 40.75191765 -97.60253906 44.22119141 C-96.43428965 45.05579185 -95.2825779 45.91418662 -94.15136719 46.79833984 C-89.93119159 49.89779981 -86.50631974 50.69980061 -81.26879883 50.44433594 C-76.97651314 49.68714296 -73.70636771 47.68012013 -70.0625 45.375 C-68.49083007 44.44528206 -66.91524321 43.52215588 -65.3359375 42.60546875 C-64.56217773 42.15606934 -63.78841797 41.70666992 -62.99121094 41.24365234 C-54.0977393 36.3086475 -44.28140312 33.33660084 -34.47045898 30.82299805 C-30.06290349 29.63608485 -27.01520999 28.21089042 -23.75 25 C-21.70933973 20.61635943 -20.61894937 16.55286606 -19.75 11.8125 C-18.80156296 6.78501261 -17.59048968 3.52497716 -13.5625 0.1875 C-8.87512253 -1.79161493 -4.76644054 -1.73325111 0 0 Z M-46.75 67 C-47.81992188 67.515625 -48.88984375 68.03125 -49.9921875 68.5625 C-57.75318511 72.5069129 -64.29693305 77.17297686 -70.75 83 C-72.01457031 84.12341797 -72.01457031 84.12341797 -73.3046875 85.26953125 C-89.89083766 100.84811154 -100.95861554 123.55909304 -102.09375 146.3671875 C-102.84613785 173.92669777 -95.18601633 198.22504419 -76.09375 218.625 C-57.61956928 237.34550313 -35.73682853 247.86825747 -9.29614258 248.29272461 C2.23132316 248.35700858 12.39480514 248.22768185 23.25 244 C23.90500488 243.74798828 24.56000977 243.49597656 25.23486328 243.23632812 C39.65615485 237.59365528 51.22759296 229.86759795 62.25 219 C62.9821875 218.28070313 63.714375 217.56140625 64.46875 216.8203125 C76.78642829 203.86719843 83.49693273 187.24382259 87.25 170 C87.42200928 169.22624023 87.59401855 168.45248047 87.77124023 167.65527344 C91.91802765 144.65656875 85.81652592 121.03080636 73.375 101.625 C57.57307838 79.1808119 35.32717354 64.01497176 8.25 59 C3.82280609 58.60940455 -0.55786575 58.56992301 -5 58.625 C-6.77225952 58.6391394 -6.77225952 58.6391394 -8.58032227 58.65356445 C-22.28485037 58.88918584 -34.32356129 60.90276074 -46.75 67 Z " fill="#5F9FF5" transform="translate(262.75,16)"/>
<path d="M0 0 C41.25 0 82.5 0 125 0 C125 37.95 125 75.9 125 115 C83.75 115 42.5 115 0 115 C-0.33 106.42 -0.66 97.84 -1 89 C-3.79991832 85.68558593 -3.79991832 85.68558593 -8 85 C-8 78.4 -8 71.8 -8 65 C-6.02 64.01 -4.04 63.02 -2 62 C7.24722181 43.50555639 -0.34457575 20.67454529 0 0 Z " fill="#EBF3FE" transform="translate(15,382)"/>
<path d="M0 0 C41.25 0 82.5 0 125 0 C125 37.95 125 75.9 125 115 C83.75 115 42.5 115 0 115 C0 77.05 0 39.1 0 0 Z " fill="#FEDF7C" transform="translate(372,382)"/>
<path d="M0 0 C40.92 0 81.84 0 124 0 C124 37.95 124 75.9 124 115 C83.08 115 42.16 115 0 115 C0 77.05 0 39.1 0 0 Z " fill="#60A1F8" transform="translate(194,382)"/>
<path d="M0 0 C1.33971391 0.44049926 2.67956215 0.88059013 4.01953125 1.3203125 C17.97097468 6.07302024 30.05326622 13.05261691 41 23 C41.51949219 23.47034668 42.03898438 23.94069336 42.57421875 24.42529297 C62.24565569 42.46717798 76.24077739 68.10228888 78.22314453 95.03125 C79.38805586 127.02344677 70.9042486 156.60695854 48.76953125 180.546875 C31.40074524 198.78153205 6.43410225 213.71795665 -19.30664062 215.18896484 C-22.97745627 215.26808594 -26.64094829 215.2728876 -30.3125 215.25 C-31.54162109 215.25773438 -32.77074219 215.26546875 -34.03710938 215.2734375 C-45.32090306 215.24961947 -56.17610887 214.07141139 -66.875 210.375 C-67.63256592 210.11557617 -68.39013184 209.85615234 -69.1706543 209.58886719 C-96.04133249 200.0181035 -118.46065502 179.75795992 -130.97387695 154.16992188 C-132.39438269 151.14340951 -133.70588962 148.08302766 -135 145 C-135.39960938 144.06800781 -135.79921875 143.13601562 -136.2109375 142.17578125 C-144.63493983 120.98909871 -144.75893368 95.63376704 -138 74 C-137.79101074 73.3179248 -137.58202148 72.63584961 -137.36669922 71.93310547 C-128.65873153 44.38722716 -108.46537891 21.04858894 -82.94848633 7.73608398 C-57.95690284 -4.90242433 -26.8950552 -9.52718127 0 0 Z M-72 19 C-73.06992188 19.515625 -74.13984375 20.03125 -75.2421875 20.5625 C-83.00318511 24.5069129 -89.54693305 29.17297686 -96 35 C-97.26457031 36.12341797 -97.26457031 36.12341797 -98.5546875 37.26953125 C-115.14083766 52.84811154 -126.20861554 75.55909304 -127.34375 98.3671875 C-128.09613785 125.92669777 -120.43601633 150.22504419 -101.34375 170.625 C-82.86956928 189.34550313 -60.98682853 199.86825747 -34.54614258 200.29272461 C-23.01867684 200.35700858 -12.85519486 200.22768185 -2 196 C-1.34499512 195.74798828 -0.68999023 195.49597656 -0.01513672 195.23632812 C14.40615485 189.59365528 25.97759296 181.86759795 37 171 C37.7321875 170.28070313 38.464375 169.56140625 39.21875 168.8203125 C51.53642829 155.86719843 58.24693273 139.24382259 62 122 C62.17200928 121.22624023 62.34401855 120.45248047 62.52124023 119.65527344 C66.66802765 96.65656875 60.56652592 73.03080636 48.125 53.625 C32.32307838 31.1808119 10.07717354 16.01497176 -17 11 C-21.42719391 10.60940455 -25.80786575 10.56992301 -30.25 10.625 C-32.02225952 10.6391394 -32.02225952 10.6391394 -33.83032227 10.65356445 C-47.53485037 10.88918584 -59.57356129 12.90276074 -72 19 Z " fill="#020304" transform="translate(288,64)"/>
<path d="M0 0 C7.26 0 14.52 0 22 0 C22 37.95 22 75.9 22 115 C14.74 115 7.48 115 0 115 C-0.20625 111.761875 -0.4125 108.52375 -0.625 105.1875 C-0.69541504 104.17067139 -0.76583008 103.15384277 -0.83837891 102.10620117 C-0.88397949 101.30158447 -0.92958008 100.49696777 -0.9765625 99.66796875 C-1.05511475 98.43469849 -1.05511475 98.43469849 -1.13525391 97.17651367 C-1 95 -1 95 1 92 C0.59404786 87.34184319 0.59404786 87.34184319 -1 83 C-1.23836379 79.69295275 -1.18518688 76.37719696 -1.1875 73.0625 C-1.19974609 72.14275391 -1.21199219 71.22300781 -1.22460938 70.27539062 C-1.22654297 69.39173828 -1.22847656 68.50808594 -1.23046875 67.59765625 C-1.23457764 66.78820557 -1.23868652 65.97875488 -1.24291992 65.14477539 C-1 63 -1 63 1 60 C0.59404786 55.34184319 0.59404786 55.34184319 -1 51 C-1.06181548 49.36492158 -1.05799108 47.72715322 -1.02172852 46.09130859 C-0.99158409 44.55994766 -0.99158409 44.55994766 -0.96083069 42.99765015 C-0.93379562 41.89240997 -0.90676056 40.7871698 -0.87890625 39.6484375 C-0.85529526 38.5192691 -0.83168427 37.39010071 -0.80735779 36.22671509 C-0.73059782 32.60935272 -0.64662645 28.99219783 -0.5625 25.375 C-0.50929167 22.92709359 -0.4565512 20.47917696 -0.40429688 18.03125 C-0.27496595 12.02070119 -0.13916597 6.01032881 0 0 Z " fill="#FECF63" transform="translate(475,382)"/>
<path d="M0 0 C7.26 0 14.52 0 22 0 C22 37.95 22 75.9 22 115 C14.74 115 7.48 115 0 115 C-0.20625 111.761875 -0.4125 108.52375 -0.625 105.1875 C-0.69541504 104.17067139 -0.76583008 103.15384277 -0.83837891 102.10620117 C-0.88397949 101.30158447 -0.92958008 100.49696777 -0.9765625 99.66796875 C-1.05511475 98.43469849 -1.05511475 98.43469849 -1.13525391 97.17651367 C-1 95 -1 95 1 92 C0.59404786 87.34184319 0.59404786 87.34184319 -1 83 C-1.23836379 79.69295275 -1.18518688 76.37719696 -1.1875 73.0625 C-1.19974609 72.14275391 -1.21199219 71.22300781 -1.22460938 70.27539062 C-1.22654297 69.39173828 -1.22847656 68.50808594 -1.23046875 67.59765625 C-1.23457764 66.78820557 -1.23868652 65.97875488 -1.24291992 65.14477539 C-1 63 -1 63 1 60 C0.59404786 55.34184319 0.59404786 55.34184319 -1 51 C-1.06181548 49.36492158 -1.05799108 47.72715322 -1.02172852 46.09130859 C-0.99158409 44.55994766 -0.99158409 44.55994766 -0.96083069 42.99765015 C-0.93379562 41.89240997 -0.90676056 40.7871698 -0.87890625 39.6484375 C-0.85529526 38.5192691 -0.83168427 37.39010071 -0.80735779 36.22671509 C-0.73059782 32.60935272 -0.64662645 28.99219783 -0.5625 25.375 C-0.50929167 22.92709359 -0.4565512 20.47917696 -0.40429688 18.03125 C-0.27496595 12.02070119 -0.13916597 6.01032881 0 0 Z " fill="#DCE9FA" transform="translate(118,382)"/>
<path d="M0 0 C7.26 0 14.52 0 22 0 C22 37.95 22 75.9 22 115 C14.74 115 7.48 115 0 115 C-0.33 108.4 -0.66 101.8 -1 95 C-0.34 95 0.32 95 1 95 C1 91.37 1 87.74 1 84 C0.34 83.67 -0.32 83.34 -1 83 C-1 76.4 -1 69.8 -1 63 C-0.34 63 0.32 63 1 63 C1 59.37 1 55.74 1 52 C0.34 51.67 -0.32 51.34 -1 51 C-0.67 34.17 -0.34 17.34 0 0 Z " fill="#538FF8" transform="translate(296,382)"/>
<path d="M0 0 C5.2399308 0.91928611 7.28923806 3.85489523 10.27368164 8.00390625 C12.17315795 10.79501464 14.03085093 13.60955152 15.875 16.4375 C16.84276367 17.90606445 16.84276367 17.90606445 17.83007812 19.40429688 C19.41286094 21.80778189 20.99012246 24.21470028 22.5625 26.625 C22.5718457 25.94397217 22.58119141 25.26294434 22.59082031 24.5612793 C22.64448131 21.47761353 22.72813551 18.39547206 22.8125 15.3125 C22.83376953 13.7047168 22.83376953 13.7047168 22.85546875 12.06445312 C22.88769531 11.03642578 22.91992188 10.00839844 22.953125 8.94921875 C22.97407227 8.00135498 22.99501953 7.05349121 23.01660156 6.0769043 C23.5625 3.625 23.5625 3.625 25.41699219 1.82348633 C28.4129428 0.14994041 30.1795506 0.07268173 33.5625 0.625 C36.52247153 2.68230839 38.29790412 4.32105059 39.03179932 7.93774414 C39.2256696 10.85505576 39.25528262 13.73257041 39.2265625 16.65625 C39.23134613 17.7249231 39.23612976 18.79359619 39.24105835 19.89465332 C39.24445581 22.15064977 39.2352643 24.40669555 39.21435547 26.66259766 C39.1875898 30.11342264 39.21411071 33.5609948 39.24609375 37.01171875 C39.24278963 39.20573634 39.23638335 41.3997519 39.2265625 43.59375 C39.23668365 44.62407349 39.24680481 45.65439697 39.25723267 46.71594238 C39.17953171 51.47094319 39.13227682 53.85861257 36.23193359 57.75976562 C33.5625 59.625 33.5625 59.625 30.1875 60.5 C24.46512393 59.11873681 22.68200669 55.40864123 19.5625 50.625 C19.10697754 49.93374023 18.65145508 49.24248047 18.18212891 48.53027344 C14.93009228 43.59055103 11.72881182 38.62004828 8.5625 33.625 C8.5531543 34.27049805 8.54380859 34.91599609 8.53417969 35.58105469 C8.48040899 38.51313944 8.3967766 41.44364008 8.3125 44.375 C8.29123047 45.89867187 8.29123047 45.89867187 8.26953125 47.453125 C8.02281789 54.95321129 8.02281789 54.95321129 5.734375 58.29296875 C2.47210777 60.29374775 0.30175318 60.2259514 -3.4375 59.625 C-6.01076201 57.45186988 -7.26959276 55.67063933 -7.80883789 52.3125 C-7.96820031 49.39874838 -7.99168192 46.5118077 -7.96875 43.59375 C-7.9725769 42.5250769 -7.97640381 41.45640381 -7.98034668 40.35534668 C-7.98306464 38.09935563 -7.97571165 35.84333301 -7.95898438 33.58740234 C-7.93757433 30.13697966 -7.95879128 26.68863927 -7.984375 23.23828125 C-7.9817317 21.04426624 -7.97660669 18.85025253 -7.96875 16.65625 C-7.97684692 15.62592651 -7.98494385 14.59560303 -7.99328613 13.53405762 C-7.93540057 9.10608937 -7.86413247 6.36416022 -5.61914062 2.47460938 C-3.4375 0.625 -3.4375 0.625 0 0 Z " fill="#060606" transform="translate(191.4375,139.375)"/>
<path d="M0 0 C1.66095703 -0.03577148 1.66095703 -0.03577148 3.35546875 -0.07226562 C11.93660959 -0.05696038 17.01664742 1.82914742 23.0625 7.875 C26.67679726 13.63110305 28.42075623 18.49738866 27.32421875 25.32421875 C25.74755948 31.46997224 23.21998749 36.12785669 17.75 39.5625 C11.50610285 43.13044123 5.8307863 42.87642649 -1.25 42.5625 C-1.20359375 43.37074219 -1.1571875 44.17898437 -1.109375 45.01171875 C-0.81719715 53.66227007 -0.81719715 53.66227007 -2.8125 57.8125 C-6.19084442 60.23797804 -8.182313 60.21623541 -12.25 59.5625 C-14.788964 57.56730608 -16.07914052 56.36653735 -16.75793457 53.17224121 C-16.76111694 52.28717896 -16.76429932 51.4021167 -16.76757812 50.49023438 C-16.78018677 49.48238892 -16.79279541 48.47454346 -16.80578613 47.43615723 C-16.79768921 46.35378784 -16.78959229 45.27141846 -16.78125 44.15625 C-16.7850769 43.03939819 -16.78890381 41.92254639 -16.79284668 40.77185059 C-16.79556756 38.41153054 -16.7881942 36.05118043 -16.77148438 33.69091797 C-16.75007884 30.07581425 -16.77128178 26.46269807 -16.796875 22.84765625 C-16.79423176 20.55468311 -16.78910686 18.2617112 -16.78125 15.96875 C-16.78934692 14.88638062 -16.79744385 13.80401123 -16.80578613 12.68884277 C-16.79317749 11.68099731 -16.78056885 10.67315186 -16.76757812 9.63476562 C-16.76439575 8.74970337 -16.76121338 7.86464111 -16.75793457 6.95275879 C-14.97424493 -1.44099917 -6.74611027 -0.0658346 0 0 Z " fill="#030303" transform="translate(300.25,139.4375)"/>
<path d="M0 0 C0.72407043 -0.00846954 1.44814087 -0.01693909 2.19415283 -0.02566528 C4.58347218 -0.04903062 6.9721474 -0.05005762 9.36157227 -0.04882812 C11.02539833 -0.05592995 12.68922194 -0.06362898 14.3530426 -0.07189941 C17.83910939 -0.08534307 21.32494971 -0.08691354 24.81103516 -0.08105469 C29.27469379 -0.07515818 33.73726489 -0.10574761 38.20071316 -0.14617157 C41.63660011 -0.17204247 45.07222496 -0.17492659 48.50819588 -0.17127991 C50.15362342 -0.1729717 51.79906298 -0.18262008 53.44439507 -0.20042419 C55.74752102 -0.22260415 58.04844299 -0.21292015 60.3515625 -0.1953125 C61.66076157 -0.19736694 62.96996063 -0.19942139 64.3188324 -0.20153809 C68.61882799 0.57945299 70.12409099 1.9758487 72.74047852 5.41992188 C72.80437714 9.12604228 72.74860197 11.36678584 70.12779236 14.10461426 C66.82264688 15.92560777 64.24707028 15.81560992 60.48095703 15.83984375 C59.39485138 15.85254807 59.39485138 15.85254807 58.2868042 15.86550903 C55.89748485 15.88887437 53.50880963 15.88990137 51.11938477 15.88867188 C49.4555587 15.8957737 47.79173509 15.90347273 46.12791443 15.91174316 C42.64184764 15.92518682 39.15600732 15.92675729 35.66992188 15.92089844 C31.20626324 15.91500193 26.74369214 15.94559136 22.28024387 15.98601532 C18.84435693 16.01188622 15.40873207 16.01477034 11.97276115 16.01112366 C10.32733362 16.01281545 8.68189405 16.02246383 7.03656197 16.04026794 C4.73343601 16.0624479 2.43251404 16.0527639 0.12939453 16.03515625 C-1.17980453 16.03721069 -2.4890036 16.03926514 -3.83787537 16.04138184 C-8.13787096 15.26039076 -9.64313396 13.86399505 -12.25952148 10.41992188 C-12.32342011 6.71380147 -12.26764494 4.47305791 -9.64683533 1.73522949 C-6.34168985 -0.08576402 -3.76611325 0.02423383 0 0 Z " fill="#010000" transform="translate(404.259521484375,463.580078125)"/>
<path d="M0 0 C0.72407043 -0.00846954 1.44814087 -0.01693909 2.19415283 -0.02566528 C4.58347218 -0.04903062 6.9721474 -0.05005762 9.36157227 -0.04882812 C11.02539833 -0.05592995 12.68922194 -0.06362898 14.3530426 -0.07189941 C17.83910939 -0.08534307 21.32494971 -0.08691354 24.81103516 -0.08105469 C29.27469379 -0.07515818 33.73726489 -0.10574761 38.20071316 -0.14617157 C41.63660011 -0.17204247 45.07222496 -0.17492659 48.50819588 -0.17127991 C50.15362342 -0.1729717 51.79906298 -0.18262008 53.44439507 -0.20042419 C55.74752102 -0.22260415 58.04844299 -0.21292015 60.3515625 -0.1953125 C61.66076157 -0.19736694 62.96996063 -0.19942139 64.3188324 -0.20153809 C68.61882799 0.57945299 70.12409099 1.9758487 72.74047852 5.41992188 C72.80437714 9.12604228 72.74860197 11.36678584 70.12779236 14.10461426 C66.82264688 15.92560777 64.24707028 15.81560992 60.48095703 15.83984375 C59.39485138 15.85254807 59.39485138 15.85254807 58.2868042 15.86550903 C55.89748485 15.88887437 53.50880963 15.88990137 51.11938477 15.88867188 C49.4555587 15.8957737 47.79173509 15.90347273 46.12791443 15.91174316 C42.64184764 15.92518682 39.15600732 15.92675729 35.66992188 15.92089844 C31.20626324 15.91500193 26.74369214 15.94559136 22.28024387 15.98601532 C18.84435693 16.01188622 15.40873207 16.01477034 11.97276115 16.01112366 C10.32733362 16.01281545 8.68189405 16.02246383 7.03656197 16.04026794 C4.73343601 16.0624479 2.43251404 16.0527639 0.12939453 16.03515625 C-1.17980453 16.03721069 -2.4890036 16.03926514 -3.83787537 16.04138184 C-8.13787096 15.26039076 -9.64313396 13.86399505 -12.25952148 10.41992188 C-12.32342011 6.71380147 -12.26764494 4.47305791 -9.64683533 1.73522949 C-6.34168985 -0.08576402 -3.76611325 0.02423383 0 0 Z " fill="#000101" transform="translate(47.259521484375,463.580078125)"/>
<path d="M0 0 C0.72407043 -0.00846954 1.44814087 -0.01693909 2.19415283 -0.02566528 C4.58347218 -0.04903062 6.9721474 -0.05005762 9.36157227 -0.04882812 C11.02539833 -0.05592995 12.68922194 -0.06362898 14.3530426 -0.07189941 C17.83910939 -0.08534307 21.32494971 -0.08691354 24.81103516 -0.08105469 C29.27469379 -0.07515818 33.73726489 -0.10574761 38.20071316 -0.14617157 C41.63660011 -0.17204247 45.07222496 -0.17492659 48.50819588 -0.17127991 C50.15362342 -0.1729717 51.79906298 -0.18262008 53.44439507 -0.20042419 C55.74752102 -0.22260415 58.04844299 -0.21292015 60.3515625 -0.1953125 C61.66076157 -0.19736694 62.96996063 -0.19942139 64.3188324 -0.20153809 C68.61882799 0.57945299 70.12409099 1.9758487 72.74047852 5.41992188 C72.80437714 9.12604228 72.74860197 11.36678584 70.12779236 14.10461426 C66.82264688 15.92560777 64.24707028 15.81560992 60.48095703 15.83984375 C59.39485138 15.85254807 59.39485138 15.85254807 58.2868042 15.86550903 C55.89748485 15.88887437 53.50880963 15.88990137 51.11938477 15.88867188 C49.4555587 15.8957737 47.79173509 15.90347273 46.12791443 15.91174316 C42.64184764 15.92518682 39.15600732 15.92675729 35.66992188 15.92089844 C31.20626324 15.91500193 26.74369214 15.94559136 22.28024387 15.98601532 C18.84435693 16.01188622 15.40873207 16.01477034 11.97276115 16.01112366 C10.32733362 16.01281545 8.68189405 16.02246383 7.03656197 16.04026794 C4.73343601 16.0624479 2.43251404 16.0527639 0.12939453 16.03515625 C-1.17980453 16.03721069 -2.4890036 16.03926514 -3.83787537 16.04138184 C-8.13787096 15.26039076 -9.64313396 13.86399505 -12.25952148 10.41992188 C-12.32342011 6.71380147 -12.26764494 4.47305791 -9.64683533 1.73522949 C-6.34168985 -0.08576402 -3.76611325 0.02423383 0 0 Z " fill="#010000" transform="translate(404.259521484375,431.580078125)"/>
<path d="M0 0 C0.72407043 -0.00846954 1.44814087 -0.01693909 2.19415283 -0.02566528 C4.58347218 -0.04903062 6.9721474 -0.05005762 9.36157227 -0.04882812 C11.02539833 -0.05592995 12.68922194 -0.06362898 14.3530426 -0.07189941 C17.83910939 -0.08534307 21.32494971 -0.08691354 24.81103516 -0.08105469 C29.27469379 -0.07515818 33.73726489 -0.10574761 38.20071316 -0.14617157 C41.63660011 -0.17204247 45.07222496 -0.17492659 48.50819588 -0.17127991 C50.15362342 -0.1729717 51.79906298 -0.18262008 53.44439507 -0.20042419 C55.74752102 -0.22260415 58.04844299 -0.21292015 60.3515625 -0.1953125 C61.66076157 -0.19736694 62.96996063 -0.19942139 64.3188324 -0.20153809 C68.61882799 0.57945299 70.12409099 1.9758487 72.74047852 5.41992188 C72.80437714 9.12604228 72.74860197 11.36678584 70.12779236 14.10461426 C66.82264688 15.92560777 64.24707028 15.81560992 60.48095703 15.83984375 C59.39485138 15.85254807 59.39485138 15.85254807 58.2868042 15.86550903 C55.89748485 15.88887437 53.50880963 15.88990137 51.11938477 15.88867188 C49.4555587 15.8957737 47.79173509 15.90347273 46.12791443 15.91174316 C42.64184764 15.92518682 39.15600732 15.92675729 35.66992188 15.92089844 C31.20626324 15.91500193 26.74369214 15.94559136 22.28024387 15.98601532 C18.84435693 16.01188622 15.40873207 16.01477034 11.97276115 16.01112366 C10.32733362 16.01281545 8.68189405 16.02246383 7.03656197 16.04026794 C4.73343601 16.0624479 2.43251404 16.0527639 0.12939453 16.03515625 C-1.17980453 16.03721069 -2.4890036 16.03926514 -3.83787537 16.04138184 C-8.13787096 15.26039076 -9.64313396 13.86399505 -12.25952148 10.41992188 C-12.32342011 6.71380147 -12.26764494 4.47305791 -9.64683533 1.73522949 C-6.34168985 -0.08576402 -3.76611325 0.02423383 0 0 Z " fill="#000101" transform="translate(47.259521484375,431.580078125)"/>
<path d="M0 0 C0.72567673 -0.00379669 1.45135345 -0.00759338 2.19902039 -0.01150513 C4.593409 -0.01890356 6.98657895 0.00246036 9.38085938 0.02490234 C11.047077 0.02728734 12.71329735 0.02819197 14.3795166 0.02767944 C17.8698818 0.03080623 21.35983588 0.04736164 24.85009766 0.07421875 C29.3225028 0.10819849 33.7944563 0.11584723 38.2669754 0.11432838 C41.7070954 0.11487244 45.1471168 0.12584528 48.58720398 0.14033127 C50.23621373 0.14669234 51.88523463 0.15063655 53.53425598 0.15211868 C55.83943678 0.1564591 58.14414062 0.17397555 60.44921875 0.1953125 C61.76063843 0.2029361 63.07205811 0.21055969 64.42321777 0.21841431 C67.49148421 0.4669558 69.21540972 0.75844325 71.72460938 2.48583984 C73.24952935 5.5356798 72.96023486 8.12817674 72.72460938 11.48583984 C71.18198125 13.58942365 70.0435262 14.32638143 67.72460938 15.48583984 C65.37713393 15.59870937 63.02639109 15.64526009 60.67626953 15.6628418 C59.95088486 15.66941299 59.22550018 15.67598419 58.47813416 15.68275452 C56.07331239 15.70249466 53.66855306 15.71415085 51.26367188 15.72412109 C50.03274874 15.73023438 50.03274874 15.73023438 48.77695847 15.73647118 C44.43464153 15.7573337 40.09235623 15.77163533 35.75 15.78100586 C31.26173265 15.79207847 26.77395998 15.82648725 22.28586769 15.86617756 C18.83719958 15.89230174 15.38865018 15.90069387 11.93989182 15.90428734 C10.28525827 15.90916321 8.63063038 15.92080564 6.97609329 15.93932533 C4.66090734 15.96363155 2.34701233 15.96276822 0.03173828 15.95581055 C-1.28571381 15.96167679 -2.60316589 15.96754303 -3.96054077 15.97358704 C-7.27539062 15.48583984 -7.27539062 15.48583984 -9.70083618 13.67521667 C-12.00199626 10.47551368 -11.82411815 8.32693255 -11.27539062 4.48583984 C-8.06805006 0.03374568 -5.30077435 -0.01151988 0 0 Z " fill="#000000" transform="translate(225.275390625,463.51416015625)"/>
<path d="M0 0 C0.72567673 -0.00379669 1.45135345 -0.00759338 2.19902039 -0.01150513 C4.593409 -0.01890356 6.98657895 0.00246036 9.38085938 0.02490234 C11.047077 0.02728734 12.71329735 0.02819197 14.3795166 0.02767944 C17.8698818 0.03080623 21.35983588 0.04736164 24.85009766 0.07421875 C29.3225028 0.10819849 33.7944563 0.11584723 38.2669754 0.11432838 C41.7070954 0.11487244 45.1471168 0.12584528 48.58720398 0.14033127 C50.23621373 0.14669234 51.88523463 0.15063655 53.53425598 0.15211868 C55.83943678 0.1564591 58.14414062 0.17397555 60.44921875 0.1953125 C61.76063843 0.2029361 63.07205811 0.21055969 64.42321777 0.21841431 C67.49148421 0.4669558 69.21540972 0.75844325 71.72460938 2.48583984 C73.24952935 5.5356798 72.96023486 8.12817674 72.72460938 11.48583984 C71.18198125 13.58942365 70.0435262 14.32638143 67.72460938 15.48583984 C65.37713393 15.59870937 63.02639109 15.64526009 60.67626953 15.6628418 C59.95088486 15.66941299 59.22550018 15.67598419 58.47813416 15.68275452 C56.07331239 15.70249466 53.66855306 15.71415085 51.26367188 15.72412109 C50.03274874 15.73023438 50.03274874 15.73023438 48.77695847 15.73647118 C44.43464153 15.7573337 40.09235623 15.77163533 35.75 15.78100586 C31.26173265 15.79207847 26.77395998 15.82648725 22.28586769 15.86617756 C18.83719958 15.89230174 15.38865018 15.90069387 11.93989182 15.90428734 C10.28525827 15.90916321 8.63063038 15.92080564 6.97609329 15.93932533 C4.66090734 15.96363155 2.34701233 15.96276822 0.03173828 15.95581055 C-1.28571381 15.96167679 -2.60316589 15.96754303 -3.96054077 15.97358704 C-7.27539062 15.48583984 -7.27539062 15.48583984 -9.70083618 13.67521667 C-12.00199626 10.47551368 -11.82411815 8.32693255 -11.27539062 4.48583984 C-8.06805006 0.03374568 -5.30077435 -0.01151988 0 0 Z " fill="#000000" transform="translate(225.275390625,431.51416015625)"/>
<path d="M0 0 C2.19824219 0.94458008 2.19824219 0.94458008 4 3 C4.57069046 6.08613788 4.46391395 9.13301357 4.390625 12.26171875 C4.38496521 13.16751175 4.37930542 14.07330475 4.37347412 15.00654602 C4.35107616 17.90073411 4.30087392 20.7936859 4.25 23.6875 C4.2299394 25.64907067 4.21168786 27.61066073 4.1953125 29.57226562 C4.15120018 34.38198706 4.08214941 39.1907839 4 44 C4.68634521 43.98767334 5.37269043 43.97534668 6.07983398 43.96264648 C6.98032471 43.95305908 7.88081543 43.94347168 8.80859375 43.93359375 C10.14748657 43.91510376 10.14748657 43.91510376 11.51342773 43.89624023 C14.87741382 44.03661275 16.60573225 44.60573225 19 47 C20.2286877 50.90289036 20.49129026 52.96799088 18.71875 56.69140625 C14.3919302 60.36547306 9.92541707 59.68714882 4.4375 59.5625 C3.38369141 59.57345703 2.32988281 59.58441406 1.24414062 59.59570312 C-4.58255824 59.53992745 -4.58255824 59.53992745 -7 59 C-9.85036518 56.00127783 -10.37743029 53.90121778 -10.38818359 49.82006836 C-10.39764008 48.78897446 -10.40709656 47.75788055 -10.4168396 46.69554138 C-10.41076691 45.58816116 -10.40469421 44.48078094 -10.3984375 43.33984375 C-10.40130768 42.19842422 -10.40417786 41.0570047 -10.40713501 39.8809967 C-10.40917565 37.46940616 -10.40364587 35.05779907 -10.39111328 32.64624023 C-10.37504575 28.94803016 -10.3909705 25.25091062 -10.41015625 21.55273438 C-10.40817411 19.21093508 -10.40433104 16.86913647 -10.3984375 14.52734375 C-10.40754654 12.86323708 -10.40754654 12.86323708 -10.4168396 11.16551208 C-10.40738312 10.13757034 -10.39792664 9.1096286 -10.38818359 8.05053711 C-10.38579681 7.14548935 -10.38341003 6.24044159 -10.38095093 5.30796814 C-10 3 -10 3 -8.69058228 1.20777893 C-5.85568179 -0.81751918 -3.35873897 -0.35355147 0 0 Z " fill="#020202" transform="translate(252,140)"/>
<path d="M0 0 C0.88449326 -0.01591187 1.76898651 -0.03182373 2.68028259 -0.04821777 C4.10226707 -0.0485199 4.10226707 -0.0485199 5.55297852 -0.04882812 C6.53428238 -0.05644165 7.51558624 -0.06405518 8.52662659 -0.07189941 C10.60024473 -0.08269613 12.67391723 -0.08555527 14.74755859 -0.08105469 C17.91734653 -0.08008258 21.08471207 -0.12170503 24.25415039 -0.16601562 C26.27042139 -0.17122291 28.28670079 -0.17391081 30.30297852 -0.17382812 C31.24894394 -0.19022339 32.19490936 -0.20661865 33.16954041 -0.22351074 C37.74576556 -0.17553697 39.85033479 -0.05504805 43.62744141 2.73046875 C45.49438477 5.41992188 45.49438477 5.41992188 45.55688477 9.04492188 C44.37770596 12.79054866 43.76711308 13.4766866 40.49438477 15.41992188 C38.33863831 15.81433105 38.33863831 15.81433105 35.98876953 15.83984375 C34.66202965 15.86371155 34.66202965 15.86371155 33.30848694 15.88806152 C31.88650246 15.88836365 31.88650246 15.88836365 30.43579102 15.88867188 C28.96383522 15.90009216 28.96383522 15.90009216 27.46214294 15.91174316 C25.3885248 15.92253988 23.3148523 15.92539902 21.24121094 15.92089844 C18.071423 15.91992633 14.90405746 15.96154878 11.73461914 16.00585938 C9.71834814 16.01106666 7.70206874 16.01375456 5.68579102 16.01367188 C4.73982559 16.03006714 3.79386017 16.0464624 2.81922913 16.06335449 C-1.75699603 16.01538072 -3.86156525 15.8948918 -7.63867188 13.109375 C-9.50561523 10.41992188 -9.50561523 10.41992188 -9.56811523 6.79492188 C-7.95346891 1.66604531 -5.28464988 0.05737583 0 0 Z " fill="#010100" transform="translate(401.505615234375,399.580078125)"/>
<path d="M0 0 C0.88449326 -0.01591187 1.76898651 -0.03182373 2.68028259 -0.04821777 C4.10226707 -0.0485199 4.10226707 -0.0485199 5.55297852 -0.04882812 C6.53428238 -0.05644165 7.51558624 -0.06405518 8.52662659 -0.07189941 C10.60024473 -0.08269613 12.67391723 -0.08555527 14.74755859 -0.08105469 C17.91734653 -0.08008258 21.08471207 -0.12170503 24.25415039 -0.16601562 C26.27042139 -0.17122291 28.28670079 -0.17391081 30.30297852 -0.17382812 C31.24894394 -0.19022339 32.19490936 -0.20661865 33.16954041 -0.22351074 C37.74576556 -0.17553697 39.85033479 -0.05504805 43.62744141 2.73046875 C45.49438477 5.41992188 45.49438477 5.41992188 45.55688477 9.04492188 C44.37770596 12.79054866 43.76711308 13.4766866 40.49438477 15.41992188 C38.33863831 15.81433105 38.33863831 15.81433105 35.98876953 15.83984375 C34.66202965 15.86371155 34.66202965 15.86371155 33.30848694 15.88806152 C31.88650246 15.88836365 31.88650246 15.88836365 30.43579102 15.88867188 C28.96383522 15.90009216 28.96383522 15.90009216 27.46214294 15.91174316 C25.3885248 15.92253988 23.3148523 15.92539902 21.24121094 15.92089844 C18.071423 15.91992633 14.90405746 15.96154878 11.73461914 16.00585938 C9.71834814 16.01106666 7.70206874 16.01375456 5.68579102 16.01367188 C4.73982559 16.03006714 3.79386017 16.0464624 2.81922913 16.06335449 C-1.75699603 16.01538072 -3.86156525 15.8948918 -7.63867188 13.109375 C-9.50561523 10.41992188 -9.50561523 10.41992188 -9.56811523 6.79492188 C-7.95346891 1.66604531 -5.28464988 0.05737583 0 0 Z " fill="#010101" transform="translate(44.505615234375,399.580078125)"/>
<path d="M0 0 C0.98367554 0.00091644 1.96735107 0.00183289 2.98083496 0.0027771 C5.05872427 0.00881388 7.13660485 0.02456214 9.21435547 0.04931641 C12.39453201 0.08580306 15.57354233 0.09033584 18.75390625 0.08984375 C20.77344757 0.09967593 22.79298099 0.11133337 24.8125 0.125 C25.76362671 0.12722565 26.71475342 0.12945129 27.69470215 0.13174438 C28.5824231 0.14450409 29.47014404 0.15726379 30.38476562 0.17041016 C31.16323853 0.17803375 31.94171143 0.18565735 32.74377441 0.19351196 C35.19837284 0.49706328 36.81137231 1.15822989 38.90625 2.4609375 C40.43116998 5.51077746 40.14187548 8.1032744 39.90625 11.4609375 C38.36362187 13.56452131 37.22516683 14.30147909 34.90625 15.4609375 C33.47773863 15.57032311 32.04439642 15.61992647 30.61181641 15.63793945 C29.7239444 15.65077469 28.83607239 15.66360992 27.92129517 15.67683411 C26.47912125 15.68791451 26.47912125 15.68791451 25.0078125 15.69921875 C24.02130707 15.7072905 23.03480164 15.71536224 22.0184021 15.72367859 C19.92862712 15.73752288 17.83882949 15.74824348 15.74902344 15.75610352 C12.55099784 15.77333112 9.35400195 15.8172161 6.15625 15.86132812 C4.12761178 15.87145359 2.09896476 15.87997015 0.0703125 15.88671875 C-1.36578873 15.91298088 -1.36578873 15.91298088 -2.8309021 15.93977356 C-9.43516849 15.91816571 -9.43516849 15.91816571 -12.69775391 13.65307617 C-14.75728081 10.41899222 -14.6292104 8.20916031 -14.09375 4.4609375 C-10.66149041 -0.9064559 -5.73953976 -0.08672148 0 0 Z " fill="#000001" transform="translate(228.09375,399.5390625)"/>
<path d="M0 0 C8.30078125 -0.390625 8.30078125 -0.390625 11 0 C12.86328125 1.85546875 12.86328125 1.85546875 14 4 C13.8634724 6.79881574 13.45291509 8.39611322 11.76953125 10.640625 C9.36644747 12.48670261 7.80402192 12.3040528 4.8125 12.1875 C3.224375 12.125625 1.63625 12.06375 0 12 C0 8.04 0 4.08 0 0 Z " fill="#E5EDF8" transform="translate(299,155)"/>
</svg>
