<svg xmlns="http://www.w3.org/2000/svg" width="128" height="64" viewBox="0 0 128 64">
  <!-- Combined W3C CSS and JavaScript Logos -->
  <g transform="translate(-193.633,-739.48031) scale(0.5)">
    <!-- W3C CSS Logo -->
    <polygon fill="#264de4" points="437.367,100.62 404.321,470.819 255.778,512 107.644,470.877 74.633,100.62" transform="translate(370.08808,147.65292)"/>
    <polygon fill="#2965f1" points="256,480.523 376.03,447.246 404.27,130.894 256,130.894" transform="translate(370.08808,147.65292)"/>
    <polygon fill="#ebebeb" points="256,268.217 150.31,268.217 154.38,313.627 256,313.627" transform="translate(370.08808,147.65292)"/>
    <polygon fill="#ebebeb" points="256,176.305 255.843,176.305 142.132,176.305 146.26,221.716 256,221.716" transform="translate(370.08808,147.65292)"/>
    <polygon fill="#ebebeb" points="156.409,336.333 162.771,407.634 255.791,433.457 256,433.399 256,386.153 255.801,386.206 205.227,372.55 201.994,336.333 177.419,336.333" transform="translate(370.08808,147.65292)"/>
    <polygon fill="#ffffff" points="311.761,313.627 306.49,372.521 255.843,386.191 255.843,433.435 348.937,407.634 349.62,399.962 360.291,280.411 361.399,268.217 369.597,176.305 255.843,176.305 255.843,221.716 319.831,221.716 315.699,268.217 255.843,268.217 255.843,313.627" transform="translate(370.08808,147.65292)"/>
  </g>
  <g transform="translate(64,0) scale(0.25)">
    <!-- JavaScript Logo -->
    <path d="M 0,0 H 256 V 256 H 0 Z" fill="#f7df1e" />
    <path d="m 67.31,213.93 19.59,-11.86 c 3.78,6.7 7.22,12.37 15.46,12.37 7.91,0 12.89,-3.09 12.89,-15.12 v -81.8 h 24.06 v 81.82 c 0,24.92 -14.61,36.26 -35.92,36.26 -19.25,0 -30.42,-9.97 -36.09,-22" fill="#000000" />
    <path d="m 152.38,211.35 19.59,-11.34 c 5.16,8.42 11.86,14.61 23.71,14.61 9.97,0 16.32,-4.98 16.32,-11.86 0,-8.25 -6.53,-11.17 -17.53,-15.98 l -6.01,-2.58 c -17.36,-7.39 -28.87,-16.67 -28.87,-36.26 0,-18.04 13.75,-31.79 35.23,-31.79 15.29,0 26.29,5.33 34.2,19.25 l -18.73,12.03 c -4.12,-7.39 -8.59,-10.31 -15.46,-10.31 -7.05,0 -11.51,4.47 -11.51,10.31 0,7.22 4.47,10.14 14.78,14.61 l 6.01,2.58 c 20.45,8.76 31.96,17.7 31.96,37.8 0,21.65 -17.01,33.51 -39.87,33.51 -22.34,0 -36.77,-10.65 -43.82,-24.57" fill="#000000" />
  </g>
</svg>
